<?xml version="1.0" encoding="utf-8"?>
<!-- Generator: Adobe Illustrator 28.1.0, SVG Export Plug-In . SVG Version: 6.00 Build 0)  -->
<svg version="1.1" id="Livello_1" xmlns="http://www.w3.org/2000/svg" xmlns:xlink="http://www.w3.org/1999/xlink" x="0px" y="0px"
	 viewBox="0 0 400 145" style="enable-background:new 0 0 400 145;" xml:space="preserve">
<style type="text/css">
	.st0{fill:url(#SVGID_1_);}
	.st1{fill:url(#SVGID_00000080913171556631228000000010302790893058571933_);}
	.st2{fill:url(#SVGID_00000070812122618076567690000018151169919450679429_);}
	.st3{fill:url(#SVGID_00000039114411292201296710000011012148200848559779_);}
	.st4{fill:url(#SVGID_00000099620232732297417570000004205776343148349857_);}
	.st5{fill:url(#SVGID_00000072958791754249195140000009202869280309309568_);}
	.st6{fill:url(#SVGID_00000000924833070627254500000006726699669889239741_);}
	.st7{fill:url(#SVGID_00000116939728683447368760000002475390350082158229_);}
	.st8{fill:url(#SVGID_00000145750053836457070100000015814574231559294371_);}
	.st9{fill:#FFFFFF;}
</style>
<g id="BACKGROUND">
</g>
<g>
	<g>
		<linearGradient id="SVGID_1_" gradientUnits="userSpaceOnUse" x1="110.6978" y1="42.5004" x2="308.8359" y2="42.5004">
			<stop  offset="0" style="stop-color:#F2B338"/>
			<stop  offset="1" style="stop-color:#FF543E"/>
		</linearGradient>
		<path class="st0" d="M284,54.9c-8.5-0.3-16.8-0.5-24.8-0.7l-24.8-0.5l-49.6-0.8c-8.1-0.1-16.4-0.2-24.8-0.4c-1,0-2.1,0-3.1-0.1
			l-1.5-0.1l-0.7,0l-0.7-0.1c-0.3-0.1-0.5-0.1-0.8-0.1c-0.2,0-0.5,0-0.7-0.1l-1.5-0.3c-1-0.2-2-0.4-3-0.7c-3.5-0.9-6.9-1.9-10.5-3
			l-1.4-0.4c-3.8-1.3-7.8-2.6-11.7-4c-3.3-1.2-6.7-2.4-10.1-3.7c1.4-1.4,2.8-2.5,4.2-3.5c0.9-0.7,1.9-1.4,2.9-2.1c1-0.6,2-1.2,3-1.5
			l3.5-0.7c1.2-0.2,2.4-0.4,3.6-0.5c2.4-0.3,4.8-0.5,7.2-0.7c4.8-0.4,9.7-0.7,14.4-1l14.4-0.9l-0.1-1c-2.4,0.1-4.9,0.2-7.3,0.3
			c-2.4,0.1-4.8,0.1-7.2,0.2c-4.7,0.2-9.6,0.4-14.5,0.7c-2.4,0.1-4.8,0.3-7.2,0.6c-1.2,0.1-2.5,0.3-3.6,0.5l-1.8,0.3l-1.3,0.3
			l-0.6,0.3c-1.3,0.4-2.5,1.1-3.3,1.6c-1,0.6-2,1.3-3.1,2.1c-1.9,1.5-3.8,3-5.5,4.7l-1.1,1.1l1.5,0.6c8.9,3.5,16.3,6.2,23.3,8.5
			c4.5,1.5,8.3,2.6,11.8,3.5l0,0c0.4,0.1,0.9,0.2,1.3,0.3c0.6,0.1,1.2,0.3,1.8,0.4l1.5,0.3c0.3,0.1,0.6,0.1,0.9,0.1
			c0.3,0,0.5,0,0.8,0.1l0.9,0.1l0.8,0l1.6,0.1c1,0.1,2.2,0.1,3.1,0.1c14.8,0.4,31,0.6,49.6,0.7l24.8,0.3l24.8,0.2
			c3.3,0,6.7,0.1,10,0.1c13,0.1,26.4,0.3,39.6,0.7l0.1-1c-6.6-0.5-13.3-0.7-19.9-0.9C287.3,55,285.7,55,284,54.9z"/>
		
			<linearGradient id="SVGID_00000045605460461924413510000012499671336352183732_" gradientUnits="userSpaceOnUse" x1="78.8262" y1="39.8" x2="112.374" y2="39.8">
			<stop  offset="0" style="stop-color:#F2B338"/>
			<stop  offset="1" style="stop-color:#FF543E"/>
		</linearGradient>
		<path style="fill:url(#SVGID_00000045605460461924413510000012499671336352183732_);" d="M95.8,40.7c3.2-0.9,5.8-1.7,8.3-2.5
			c2.7-0.8,5.4-1.7,8.2-2.7l-0.3-1l-8.4,2.1c-3.1,0.8-6.1,1.6-8.3,2.3c-2.8,0.8-5.6,1.6-8.3,2.5c-2.7,0.8-5.4,1.7-8.2,2.7l0.3,1
			l8.4-2.1C90.6,42.2,93.6,41.4,95.8,40.7z"/>
		
			<linearGradient id="SVGID_00000033370921279761310520000001924677013963680953_" gradientUnits="userSpaceOnUse" x1="32.2881" y1="53.3752" x2="149.4316" y2="53.3752">
			<stop  offset="0" style="stop-color:#F2B338"/>
			<stop  offset="1" style="stop-color:#FF543E"/>
		</linearGradient>
		<path style="fill:url(#SVGID_00000033370921279761310520000001924677013963680953_);" d="M105.9,49.3c-5.6-0.6-10.3-0.9-14.8-1.1
			C85.8,48,80.8,48,76.2,48.3c-5,0.2-10,0.6-14.8,1.2c-4.5,0.4-9.4,1.1-14.5,2l-1.1,0.2c-4.4,0.8-9,1.7-13.4,2.7l0.2,1
			c8.7-1.3,19-2.9,29.2-3.8c10.6-1,20.2-1.3,29.3-0.9c0.6,0.1,1.2,0.1,1.9,0.1c0.6,0,1.2,0,1.8,0.1l3.7,0.2l7.3,0.6
			c5,0.5,9.9,1.1,14.6,1.8c4.8,0.7,9.5,1.5,14.5,2.4c4.9,0.8,9.8,1.8,14.5,2.8l0.2-1c-9.5-2.6-19.3-4.7-29-6.3
			C115.3,50.6,110.6,49.9,105.9,49.3z"/>
		
			<linearGradient id="SVGID_00000027593979903798308700000006779650137589188787_" gradientUnits="userSpaceOnUse" x1="58.4497" y1="68.8968" x2="108.5981" y2="68.8968">
			<stop  offset="0" style="stop-color:#F2B338"/>
			<stop  offset="1" style="stop-color:#FF543E"/>
		</linearGradient>
		<path style="fill:url(#SVGID_00000027593979903798308700000006779650137589188787_);" d="M83.8,64.3c-2-0.1-4.2,0-6.7,0.2
			c-2.2,0.2-4.4,0.6-6.5,1.2c-4.2,1.1-8.2,2.7-12.2,5l0.5,0.9c4.1-2,8.1-3.4,12.1-4.3c4.3-0.9,8.5-1.3,12.7-1.1
			c4.3,0.2,8.6,0.9,12.6,2.1c3.9,1.1,7.8,2.9,11.8,5.2l0.5-0.8c-3.4-2.5-7.4-4.6-11.7-6.1C92.8,65.3,88.5,64.5,83.8,64.3z"/>
		
			<linearGradient id="SVGID_00000170276624466268012110000011925123997322514318_" gradientUnits="userSpaceOnUse" x1="182.7896" y1="66.4001" x2="299.6094" y2="66.4001">
			<stop  offset="0" style="stop-color:#F2B338"/>
			<stop  offset="1" style="stop-color:#FF543E"/>
		</linearGradient>
		<path style="fill:url(#SVGID_00000170276624466268012110000011925123997322514318_);" d="M285,65.7l-14.6-0.1
			c-9.7-0.1-19.6-0.1-29.2-0.1c-9.5,0-19.4,0-29.2,0.1l-14.6,0.1h0c-2.4,0.1-4.9,0.1-7.3,0.1c-2.4,0-4.9,0.1-7.3,0.1v1l0.2,0
			c4.9,0.1,9.6,0.2,14.4,0.2l14.6,0.1c9.7,0.1,19.6,0.1,29.2,0.1c9.5,0,19.4,0,29.2-0.1l14.6-0.1c2.4,0,4.9-0.1,7.3-0.1
			c2.4,0,4.9,0,7.3-0.1v-1l-0.3,0C294.4,65.8,289.8,65.7,285,65.7z"/>
		
			<linearGradient id="SVGID_00000138549177077764718170000003500221398363708043_" gradientUnits="userSpaceOnUse" x1="25.4297" y1="43.8298" x2="375.4053" y2="43.8298">
			<stop  offset="0" style="stop-color:#F2B338"/>
			<stop  offset="1" style="stop-color:#FF543E"/>
		</linearGradient>
		<path style="fill:url(#SVGID_00000138549177077764718170000003500221398363708043_);" d="M369.1,62.4l-1.3-0.4
			c-1.8-0.6-3.5-1.1-5.2-1.6c-4.3-1.3-8.8-2.3-13.1-3.3c-4.1-0.9-8.4-1.7-13.3-2.5c-4.4-0.7-9-1.2-13.4-1.7c-9-0.9-18.1-1.6-27-2.1
			c-10.2-0.6-18.7-0.9-26.8-1.1c-4-2.8-8.2-5.4-13.1-8.3c-4.4-2.6-9-5.1-13.9-7.6c-5.3-2.7-10.1-4.8-14.6-6.4
			c-2.6-1-5.1-1.7-7.6-2.4c-3-0.8-5.5-1.4-7.9-1.6c-10.8-1.2-21.6-1.4-31.7-1.4c-10.5,0.1-21.2,0.6-31.6,1.5
			c-5.3,0.4-10.6,1-15.7,1.8c-2.6,0.3-5.3,0.8-7.8,1.3l-3.9,0.8c-1.2,0.3-2.5,0.6-3.8,0.9c-5.3,1.4-10.4,2.8-15.2,4.2
			c-5.1,1.5-10.2,3.1-15.1,4.7c-4.9,1.6-10,3.2-15,4.9c-2.5,0.9-5,1.7-7.5,2.5c-2.4,0.8-5,1.6-7.5,2.2c-1.1,0.3-2.4,0.4-3.8,0.4
			l-2,0l-2-0.1c-2.7-0.1-5.2-0.3-7.9-0.6c-5.3-0.5-10.5-1.2-15.7-1.9l-0.1,1c5.1,0.8,10.4,1.6,15.6,2.2c2.7,0.3,5.3,0.5,7.9,0.7
			l2,0.1h2c1.3,0,2.8,0,4.1-0.3c2.6-0.5,5.2-1.3,7.7-2.1l22.5-7.2c4.1-1.3,8.2-2.5,12.3-3.8l2.8-0.8c5.4-1.6,10.4-3,15.2-4.1
			c1.2-0.3,2.5-0.6,3.8-0.9l3.8-0.8c2.5-0.5,5.1-0.9,7.7-1.3c5.2-0.8,10.4-1.4,15.6-1.8c9.6-0.8,19.9-1.3,31.4-1.4
			c12.4,0,22.3,0.4,31.3,1.4c2.5,0.3,5.1,0.8,7.5,1.5c2.6,0.7,5.1,1.5,7.4,2.4c4.2,1.5,8.6,3.5,14.4,6.3c4.7,2.3,9.3,4.8,13.8,7.5
			c5.2,3.1,9.4,5.8,13.3,8.4l0.3,0.2h0.3c9,0.2,18,0.5,27,0.9c8.8,0.5,18,1,27,1.9c4.2,0.5,8.8,1,13.4,1.6c4.5,0.6,9,1.4,13.8,2.5
			c5,1,9.3,2,13.2,3.1c2.2,0.6,4.4,1.2,6.5,1.9c2.1,0.7,4.2,1.4,6.3,2.3l0.4-0.9C373.7,64.1,371.6,63.3,369.1,62.4z"/>
		
			<linearGradient id="SVGID_00000078043219885777127430000013784135513520930444_" gradientUnits="userSpaceOnUse" x1="314.3301" y1="68.9885" x2="349.0996" y2="68.9885">
			<stop  offset="0" style="stop-color:#F2B338"/>
			<stop  offset="1" style="stop-color:#FF543E"/>
		</linearGradient>
		<path style="fill:url(#SVGID_00000078043219885777127430000013784135513520930444_);" d="M332,65.7c-2.8-0.4-5.9-0.1-9.2,0.8
			c-2.9,0.7-5.8,2-8.4,3.7l0.5,0.9c2.5-1.2,5.3-2.1,8.4-2.8c2.7-0.6,5.6-0.8,8.7-0.7c2.8,0.1,5.7,0.6,8.6,1.4c2.7,0.8,5.5,2,8.1,3.5
			l0.5-0.8c-2.6-2-5.4-3.4-8.1-4.3C338.1,66.4,335.1,65.8,332,65.7z"/>
		
			<linearGradient id="SVGID_00000127751148820122724710000003313456170691863468_" gradientUnits="userSpaceOnUse" x1="120.9224" y1="39.7525" x2="264.8359" y2="39.7525">
			<stop  offset="0" style="stop-color:#F2B338"/>
			<stop  offset="1" style="stop-color:#FF543E"/>
		</linearGradient>
		<path style="fill:url(#SVGID_00000127751148820122724710000003313456170691863468_);" d="M172.7,48.9c-1.5-0.1-2.9-0.1-4.4-0.1
			c-1.5,0-2.9,0-4.4-0.1c-0.3,0-0.7,0-1.1,0c-0.2,0-0.5,0-0.7,0L158.5,31l-1,0.2l2.6,17.3c-1.7-0.1-3.4-0.2-4.9-0.4
			c-2.6-0.4-5.1-1.1-7.7-1.7l-0.8-0.2c-2.7-0.6-5.5-1.4-8.5-2.2c-1.4-0.4-2.8-0.8-4.3-1.2c-1.4-0.4-2.8-0.8-4.2-1.2l-4.2-1.3
			l-2.1-0.7l-1-0.4l-0.2-0.1c-0.2-0.1-0.5-0.2-0.7-0.3c0,0,0,0,0,0l-0.3,0.4c0,0,0,0,0,0c0,0,0,0,0,0l-0.3,0.4c0,0,0,0,0,0
			c0.1,0,0.1,0.1,0.2,0.1c0.1,0.1,0.3,0.1,0.4,0.2c0.1,0.1,0.3,0.1,0.4,0.2l1.1,0.5l2.1,0.7c0.7,0.3,1.4,0.5,2.1,0.7
			c0.7,0.2,1.4,0.4,2.1,0.7c1.7,0.5,3.3,1,5,1.5c1.2,0.3,2.3,0.7,3.5,1.1c1.4,0.4,2.8,0.8,4.3,1.2c1.4,0.4,2.8,0.8,4.3,1.2
			c3.5,1,6.1,1.6,8.6,2c0.2,0.1,0.4,0.1,0.6,0.1c0.2,0,0.3,0,0.6,0.1l1.1,0.1c0.4,0.1,0.8,0.1,1.1,0.1c0.4,0,0.7,0,1.1,0.1l0.3,0
			c1.4,0.1,2.7,0.2,4.1,0.2c0,0,0,0,0,0l8.8,0.3c5.8,0.2,11.8,0.4,17.7,0.5l35.3,0.7c5.8,0.1,11.7,0.2,17.5,0.2
			c5.9,0.1,11.9,0.2,17.8,0.3h3.8l-3.3-1.9c-5.4-3.2-11.2-6.5-17.7-10c-2.7-1.4-5.6-2.9-9.1-4.6c-2.7-1.3-5.9-2.8-9.3-4.2
			c-2.9-1.2-6.3-2.5-9.8-3.1c-3-0.5-6.1-0.9-10.1-1.1c-6.5-0.5-13.3-0.6-20.4-0.4l0,1c7.6,0,14.3,0.3,20.3,0.8
			c3.8,0.3,6.9,0.7,9.9,1.3c3.3,0.7,6.4,1.9,9.5,3.2c3.3,1.4,6.4,2.8,9.2,4.2c3,1.5,6,3.1,9,4.7c4.9,2.6,9.7,5.4,14.2,8l-66.8-1.1
			L172.7,48.9z"/>
		
			<linearGradient id="SVGID_00000132051969732186268780000000361905565982161838_" gradientUnits="userSpaceOnUse" x1="220.4258" y1="44.0886" x2="247.8193" y2="44.0886">
			<stop  offset="0" style="stop-color:#F2B338"/>
			<stop  offset="1" style="stop-color:#FF543E"/>
		</linearGradient>
		<path style="fill:url(#SVGID_00000132051969732186268780000000361905565982161838_);" d="M230,41.8c0.9-0.1,1.7-0.2,2.5,0
			c1.3,0.3,2.7,0.8,4,1.2c0.5,0.2,0.9,0.3,1.3,0.5l10,3.7l-4.2-2.6c-0.6-0.4-1.3-0.7-1.9-1l-0.6-0.3c-0.4-0.2-0.9-0.4-1.3-0.6
			c-0.4-0.2-0.9-0.4-1.3-0.6c-0.9-0.4-1.8-0.8-2.6-1.1c-1-0.4-1.9-0.7-2.9-0.9c-0.9-0.2-2-0.2-3.1-0.1c-0.9,0.1-1.8,0.3-2.7,0.6
			l-0.4,0.1c-2.2,0.9-3.9,1.7-5.3,2.5l-1.1,0.7l1.1,0.8c1,0.9,2.3,1.5,3.9,2c1.3,0.4,2.6,0.8,4,1c1.2,0.2,2.7,0.4,4,0.5
			c1,0.1,2,0.1,2.9,0.1c0.4,0,0.8,0,1.2,0l0-1c-2.7-0.2-5.2-0.6-7.9-1.2c-1.3-0.2-2.6-0.5-3.9-1.1l0,0c-0.8-0.3-1.5-0.6-2-1
			c1.2-0.6,2.4-1.2,3.7-1.6C228.2,42.2,229.1,41.9,230,41.8z"/>
	</g>
	<g>
		<g>
			<g>
				<g>
					<path class="st9" d="M35.2,120.4c-3.2-1.5-5.6-3.7-7.3-6.4c-1.7-2.8-2.6-6-2.6-9.6c0-4.7,1.1-9,3.3-12.8s5.3-6.8,9.2-8.9
						c4-2.1,8.5-3.2,13.5-3.2c3.8,0,7.2,0.7,10.2,2c3,1.4,5.2,3.3,6.6,5.8L59.7,94c-2-3.2-5.1-4.9-9.1-4.9c-2.7,0-5,0.6-7,1.9
						c-2,1.2-3.6,3-4.7,5.2c-1.1,2.2-1.7,4.7-1.7,7.4c0,2.8,0.9,5.1,2.7,6.8c1.8,1.7,4.3,2.6,7.4,2.6c4,0,7.3-1.6,10.1-4.8l6.9,6.8
						c-2.3,2.7-4.9,4.7-7.9,5.9c-3,1.2-6.5,1.8-10.3,1.8C42,122.7,38.3,121.9,35.2,120.4z"/>
					<path class="st9" d="M96.5,113.7H78.8l-4.8,8.1H61.6l26.6-41.5h11.6l10,41.5H98.2L96.5,113.7z M94.7,105.1L92,91.6l-8,13.5
						H94.7z"/>
					<path class="st9" d="M153,103.3c-2,2.8-4.8,4.8-8.5,6l7.1,12.5h-12.3l-6.2-11h-5.9l-2.2,11h-11.8l8.3-41.5h17.7
						c5.3,0,9.4,1.2,12.3,3.5c2.9,2.3,4.4,5.6,4.4,9.7C156.1,97.3,155,100.6,153,103.3z M142.5,90.8c-1.1-0.9-2.8-1.3-4.8-1.3h-6.2
						l-2.5,12.2h7c2.6,0,4.6-0.6,6.1-1.8c1.4-1.2,2.1-3,2.1-5.2C144.2,92.9,143.6,91.7,142.5,90.8z"/>
					<path class="st9" d="M171.8,89.6H159l1.9-9.3h37.2l-1.9,9.3h-12.7l-6.5,32.2h-11.8L171.8,89.6z"/>
					<path class="st9" d="M234,103.3c-2,2.8-4.8,4.8-8.5,6l7.1,12.5h-12.3l-6.2-11h-5.9l-2.2,11h-11.8l8.3-41.5h17.7
						c5.3,0,9.4,1.2,12.3,3.5c2.9,2.3,4.4,5.6,4.4,9.7C237.1,97.3,236.1,100.6,234,103.3z M223.5,90.8c-1.1-0.9-2.8-1.3-4.8-1.3
						h-6.2l-2.5,12.2h7c2.6,0,4.6-0.6,6.1-1.8c1.4-1.2,2.1-3,2.1-5.2C225.2,92.9,224.6,91.7,223.5,90.8z"/>
					<path class="st9" d="M268.1,113.7h-17.7l-4.8,8.1h-12.4l26.6-41.5h11.6l10,41.5h-11.7L268.1,113.7z M266.3,105.1l-2.8-13.5
						l-8,13.5H266.3z"/>
					<path class="st9" d="M293.2,80.3h18c4.3,0,8,0.7,11.1,2.1s5.5,3.4,7.2,6.1c1.7,2.6,2.5,5.7,2.5,9.3c0,4.8-1.1,9.1-3.3,12.7
						c-2.2,3.6-5.3,6.4-9.2,8.4c-3.9,2-8.4,3-13.5,3h-21.2L293.2,80.3z M306.4,112.4c2.8,0,5.3-0.6,7.4-1.8c2.1-1.2,3.6-2.9,4.7-5
						s1.6-4.5,1.6-7.2c0-2.8-0.9-5-2.6-6.5s-4.3-2.3-7.7-2.3H303l-4.5,22.8C298.5,112.4,306.4,112.4,306.4,112.4z"/>
					<path class="st9" d="M351.9,89.4l-1.4,7H369l-1.7,8.8h-18.5l-1.5,7.6h21.8l-1.9,9.1h-33.3l8.3-41.5h32.5l-1.8,9.1L351.9,89.4
						L351.9,89.4z"/>
				</g>
			</g>
		</g>
	</g>
</g>
</svg>
