<?xml version="1.0" encoding="utf-8"?>
<!-- Generator: Adobe Illustrator 28.1.0, SVG Export Plug-In . SVG Version: 6.00 Build 0)  -->
<svg version="1.1" id="OBJECTS" xmlns="http://www.w3.org/2000/svg" xmlns:xlink="http://www.w3.org/1999/xlink" x="0px" y="0px"
	 viewBox="0 0 326 195.5" style="enable-background:new 0 0 326 195.5;" xml:space="preserve">
<style type="text/css">
	.st0{fill:#EAF0F4;}
	.st1{opacity:0.75;}
	.st2{fill:#27B1BE;}
	.st3{fill:#FFFFFF;}
	
		.st4{fill:none;stroke:#FFFFFF;stroke-width:2.0385;stroke-linecap:round;stroke-linejoin:round;stroke-miterlimit:10;stroke-dasharray:6.1156,6.1156;}
	
		.st5{fill:none;stroke:#27B1BE;stroke-width:2.0385;stroke-linecap:round;stroke-linejoin:round;stroke-miterlimit:10;stroke-dasharray:6.1156,6.1156;}
	.st6{enable-background:new    ;}
	.st7{fill:#FF9D00;}
	.st8{opacity:0.65;}
	.st9{opacity:0.3;fill:#27B1BE;enable-background:new    ;}
	.st10{fill:#B8E5EA;}
	.st11{fill:#00A371;}
	.st12{opacity:0.3;fill:#FFFFFF;enable-background:new    ;}
</style>
<g>
	<path class="st0" d="M15.1,64.7C7,79.3,3.1,95.9,5.4,112.8c3.4,24.5,17.5,47.7,38.8,60.6c17.3,10.5,37.7,15.6,57.9,15.6
		c21.8,0,38.4-7.8,60.4-6.3c3,0.2,10.9,2.9,13.9,3.3c37.1,4.3,38.9-26.7,58.4-27.3c22.5-0.6,41.5-7.9,53.6-16.4
		c39.6-27.7,36.1-66,22.4-83.8c-18.2-23.6-50.8-32.9-80-18.3c-16.5,8.3-34.9,10.2-52.5,4.1c-9.1-3.2-17.7-7.8-26.3-12.2
		c-23.7-12.2-48.6-21.5-75.5-15C51.4,23.4,28,41.5,15.1,64.7z"/>
	<g>
		<g>
			<g>
				<g class="st1">
					<path class="st2" d="M255.2,141.4c-0.5,0-1,0.1-1.5,0.2c-1.4-2.5-4-4.1-7-4.1c-2.5,0-4.7,1.1-6.1,2.9c-0.7-0.4-1.6-0.5-2.4-0.5
						c-3.1,0-5.7,2.5-5.7,5.7h6.3h5.1h6.4h4.5h5.5C259.7,143.2,257.6,141.4,255.2,141.4z"/>
				</g>
				<g>
					<path class="st3" d="M252.2,141.4c-0.5,0-1,0.1-1.5,0.2c-1.4-2.5-4-4.1-7-4.1c-2.5,0-4.7,1.1-6.1,2.9c-0.7-0.4-1.6-0.5-2.4-0.5
						c-3.1,0-5.7,2.5-5.7,5.7h6.3h5.1h6.4h4.5h5.5C256.8,143.2,254.7,141.4,252.2,141.4z"/>
				</g>
			</g>
			<g>
				<g class="st1">
					<path class="st2" d="M305.9,74.9c-0.8,0-1.6,0.1-2.3,0.3c-2.1-3.9-6.3-6.5-11-6.5c-3.9,0-7.3,1.8-9.6,4.5
						c-1.2-0.6-2.5-0.9-3.8-0.9c-4.9,0-8.9,4-8.9,8.9h9.8h8h10h7.1h8.6C313,77.7,309.8,74.9,305.9,74.9z"/>
				</g>
				<g>
					<path class="st3" d="M303,74.9c-0.8,0-1.6,0.1-2.3,0.3c-2.1-3.9-6.3-6.5-11-6.5c-3.9,0-7.3,1.8-9.6,4.5
						c-1.2-0.6-2.5-0.9-3.8-0.9c-4.9,0-8.9,4-8.9,8.9h9.8h8h10h7.1h8.6C310.1,77.7,306.9,74.9,303,74.9z"/>
				</g>
			</g>
			<g>
				<g>
					<path class="st4" d="M178.9,156c-44,18.9-104.2,34.5-142.5-4.8c-15.3-15.6-23.3-38.3-20.1-59.9c3.6-24.1,20.8-43.6,43.2-52.2
						c12.5-4.8,51.5-7.5,47.7,15.8c-1.6,9.8-18,11.3-22.7,1.6"/>
				</g>
				<g>
					<path class="st5" d="M180.3,157.4c-44,18.9-104.2,34.5-142.5-4.8C22.5,137,14.5,114.3,17.7,92.7c3.6-24,20.8-43.6,43.3-52.1
						c12.5-4.8,51.5-7.5,47.7,15.8c-1.6,9.8-18,11.3-22.7,1.6"/>
				</g>
			</g>
			<g>
				<g class="st1">
					<g class="st6">
						<path class="st3" d="M42.3,96.3c-0.8,0.4-1.6,0.5-2.3,0.5c-2.9,0-4.5-2.5-4.5-5.1c0-9,10-11,15.2-11c6.1,0,11.4,2.4,17.7-0.4
							c1.2,5-1.4,8.3-5.4,8.3c-1.8,0-4.2-1-6.6-2l-7.1,33.5c-0.6,2.6-2.7,3.5-4.7,3.5c-1.3,0-2.3-0.3-2.9-0.7l8.8-38.7
							c-0.3-0.1-0.6-0.1-0.8-0.1c-3.9,0-8.5,2.8-8.5,9C41.2,94,41.6,95.4,42.3,96.3z"/>
						<path class="st3" d="M68.4,101.4c2.2-4.5,4.6-6,7.1-6c2.6,0,4,2.1,4,4.3c0,2.5-1.5,5.2-4.4,5.2c-0.5,0-1.1-0.1-1.6-0.2
							c0.4-0.3,0.6-1,0.6-1.7c0-0.8-0.6-1.4-1.7-1.4c-1.8,0-4.4,2.5-7.2,15.2l-0.7,3.4c-0.6,2.5-2.6,3.5-4.6,3.5
							c-1,0-1.9-0.3-2.6-0.7l4.5-21.1c0.2-0.9-0.1-1.4-0.6-1.4c-0.3,0-0.6,0.2-1.1,0.7c-0.7-0.4-1.1-2.1,0-3
							c1.9-1.5,3.9-2.6,6.2-2.6c2,0,3.1,0.9,2.6,3L68.4,101.4z"/>
						<path class="st3" d="M99.7,114.3c-0.6,2.8,0.1,4,1.2,4c1,0,2.3-0.7,3.1-2.6c1,0,1.7,0.6,1.7,1.5c0,3.9-4.5,6.4-7.6,6.4
							c-2.6,0-5.2-1.2-5.1-5.6c-2.3,3.2-5.2,5.6-8.4,5.6c-5.7,0-6.9-5.7-6.9-9.2c0-9.6,6.2-19.2,13.9-19.2c2.5,0,4.3,0.6,5.7,1.8
							c0.9-1.1,2.4-1.6,3.7-1.6c1,0,1.9,0.3,2.6,0.7L99.7,114.3z M93.1,114.5l3.1-14.8c-0.9-0.3-1.8-0.4-2.6-0.4
							c-6.7,0-9,8.7-9,14.7c0,2.8,1.3,4,3,4C89.3,117.9,91.6,116.5,93.1,114.5z"/>
						<path class="st3" d="M109.7,100.4c-0.3,0-0.6,0.2-1.1,0.7c-0.7-0.4-1.1-2.1,0-3c1.9-1.5,3.9-2.6,6.2-2.6c2,0,3.1,0.9,2.6,3
							c-1.4,6.8-2.1,15,0.2,19.5c4.2-3.3,6.9-9.1,6.9-14.3c0-3.7-1.1-6.9-3.4-8c0.1-2.9,1.9-4.3,3.7-4.2c2.1,0.1,4.5,2.1,4.5,6.1
							c0,12.6-9,26.1-15,26.1c-5.8,0-6-16-4-22.4C110.5,100.8,110.2,100.4,109.7,100.4z"/>
						<path class="st3" d="M136.3,114.7c0.6,3,2.6,4.1,5.1,4.1c4,0,9-2.8,11.4-5.9c1.4-0.3,2,0.9,1.4,1.9
							c-3.8,5.6-10.2,8.9-15.5,8.9c-3.6,0-6.8-1.5-8.4-4.8c-0.2,0.1-0.4,0.2-0.7,0.3c-2.1,0.6-4.1-1-3.7-3.2
							c1.3,0.2,2.4-0.1,3.5-0.6c-0.1-0.5-0.1-1-0.1-1.5c0-7.2,4.7-18.6,13.8-18.6c5,0,6.3,2.8,6.3,5.3
							C149.4,105.1,146.9,108.8,136.3,114.7z M136.1,112.4c5.3-3.4,9-7.2,9-10.8c0-1.3-0.7-2.1-1.6-2.1
							C138,99.4,136.3,108.5,136.1,112.4z"/>
						<path class="st3" d="M165.7,83.9c2.6,0,4.4,1.6,4.4,4.5c0,4.3-3.6,13.2-10.7,24c-0.1,0.7-0.2,1.3-0.2,2c-0.3,2.9,0.1,4,1.2,4
							c1,0,2.3-0.7,3.1-2.6c1,0,1.7,0.6,1.7,1.5c0,3.9-4.5,6.4-7.6,6.4c-2.8,0-5.9-1.7-5.2-8.1C154.5,95.5,158.5,83.9,165.7,83.9z
							 M160.1,107.5c4.9-9,6.9-16.9,6.9-18.8c0-0.9-0.3-1.2-0.9-1.2C164.3,87.5,161.9,95.9,160.1,107.5z"/>
					</g>
				</g>
				<g>
					<g class="st6">
						<path class="st7" d="M43.8,97.7c-0.8,0.4-1.6,0.6-2.3,0.6c-2.9,0-4.5-2.5-4.5-5.1c0-9,10-11,15.2-11c6.1,0,11.4,2.4,17.7-0.4
							c1.2,5-1.4,8.3-5.4,8.3c-1.8,0-4.2-1-6.6-2l-7.1,33.5c-0.6,2.6-2.7,3.5-4.7,3.5c-1.3,0-2.3-0.3-2.9-0.7l8.8-38.7
							c-0.3-0.1-0.6-0.1-0.8-0.1c-3.9,0-8.5,2.8-8.5,9C42.7,95.5,43,96.9,43.8,97.7z"/>
						<path class="st7" d="M69.8,102.8c2.2-4.5,4.6-6,7.1-6c2.6,0,4,2.1,4,4.3c0,2.5-1.5,5.2-4.4,5.2c-0.5,0-1.1-0.1-1.6-0.2
							c0.4-0.3,0.6-1,0.6-1.7c0-0.8-0.6-1.4-1.7-1.4c-1.8,0-4.4,2.5-7.2,15.2l-0.7,3.4c-0.6,2.5-2.6,3.5-4.6,3.5
							c-1,0-1.9-0.3-2.6-0.7l4.5-21.1c0.2-0.9-0.1-1.4-0.6-1.4c-0.3,0-0.6,0.2-1.1,0.7c-0.7-0.4-1.1-2.1,0-3
							c1.9-1.5,3.9-2.6,6.2-2.6c2,0,3.1,0.9,2.6,3L69.8,102.8z"/>
						<path class="st7" d="M101.2,115.7c-0.6,2.8,0.1,4,1.2,4c1,0,2.3-0.7,3.1-2.6c1,0,1.7,0.6,1.7,1.5c0,3.9-4.5,6.4-7.6,6.4
							c-2.6,0-5.2-1.2-5.1-5.6c-2.3,3.2-5.2,5.6-8.4,5.6c-5.7,0-6.9-5.7-6.9-9.2c0-9.6,6.2-19.2,13.9-19.2c2.5,0,4.3,0.6,5.7,1.8
							c0.9-1.1,2.4-1.6,3.7-1.6c1,0,1.9,0.3,2.6,0.7L101.2,115.7z M94.5,115.9l3.1-14.8c-0.9-0.3-1.8-0.4-2.6-0.4
							c-6.7,0-9,8.7-9,14.7c0,2.8,1.3,4,3,4C90.7,119.4,93,117.9,94.5,115.9z"/>
						<path class="st7" d="M111.2,101.8c-0.3,0-0.6,0.2-1.1,0.7c-0.7-0.4-1.1-2.1,0-3c1.9-1.5,3.9-2.6,6.2-2.6c2,0,3.1,0.9,2.6,3
							c-1.4,6.8-2.1,15,0.2,19.5c4.2-3.3,6.9-9.1,6.9-14.3c0-3.7-1.1-6.9-3.4-8c0.1-2.9,1.9-4.3,3.7-4.2c2.1,0.1,4.5,2.1,4.5,6.1
							c0,12.6-9,26.1-15,26.1c-5.8,0-6-16-4-22.4C111.9,102.2,111.7,101.8,111.2,101.8z"/>
						<path class="st7" d="M137.7,116.2c0.6,3,2.6,4.1,5.1,4.1c4,0,9-2.8,11.4-5.9c1.4-0.3,2,0.9,1.4,1.9
							c-3.8,5.6-10.2,8.9-15.5,8.9c-3.6,0-6.8-1.5-8.4-4.8c-0.2,0.1-0.4,0.2-0.7,0.3c-2.1,0.6-4.1-1-3.7-3.2
							c1.3,0.2,2.4-0.1,3.5-0.6c-0.1-0.5-0.1-1-0.1-1.5c0-7.2,4.7-18.6,13.8-18.6c5,0,6.3,2.8,6.3,5.3
							C150.8,106.6,148.4,110.3,137.7,116.2z M137.6,113.8c5.3-3.4,9-7.2,9-10.8c0-1.3-0.7-2.1-1.6-2.1
							C139.5,100.9,137.7,110,137.6,113.8z"/>
						<path class="st7" d="M167.2,85.3c2.6,0,4.4,1.6,4.4,4.5c0,4.3-3.6,13.2-10.7,24c-0.1,0.7-0.2,1.3-0.2,2c-0.3,2.9,0.1,4,1.2,4
							c1,0,2.3-0.7,3.1-2.6c1,0,1.7,0.6,1.7,1.5c0,3.9-4.5,6.4-7.6,6.4c-2.8,0-5.9-1.7-5.2-8.1C156,96.9,160,85.3,167.2,85.3z
							 M161.6,108.9c4.9-9,6.9-16.9,6.9-18.8c0-0.9-0.3-1.2-0.9-1.2C165.7,88.9,163.4,97.3,161.6,108.9z"/>
					</g>
				</g>
			</g>
			<g>
				<g class="st1">
					<path class="st2" d="M152.7,68.5c-0.8,0-1.6,0.1-2.3,0.3c-2.1-3.8-6.2-6.4-10.9-6.4c-3.8,0-7.3,1.7-9.5,4.5
						c-1.1-0.5-2.4-0.9-3.8-0.9c-4.9,0-8.8,4-8.8,8.8h9.7h7.9h9.9h7.1h8.5C159.7,71.2,156.5,68.5,152.7,68.5z"/>
				</g>
				<g>
					<path class="st3" d="M149.8,68.5c-0.8,0-1.6,0.1-2.3,0.3c-2.1-3.8-6.2-6.4-10.9-6.4c-3.8,0-7.3,1.7-9.5,4.5
						c-1.1-0.5-2.4-0.9-3.8-0.9c-4.9,0-8.8,4-8.8,8.8h9.7h7.9h9.9h7.1h8.5C156.8,71.2,153.6,68.5,149.8,68.5z"/>
				</g>
			</g>
			<g>
				<g class="st8">
					<polygon class="st2" points="304.5,148.4 293.8,150.3 233.2,112.4 228.6,109.5 221.8,105.3 214.7,100.8 215.5,100.3 
						231.1,92.1 247.8,83.2 252.7,88.9 261.9,99.4 267,105.3 285.3,126.2 290.3,132.1 					"/>
					<path class="st2" d="M262.7,111.4l-6.1-4.3l7.7-10.9c1.2-1.7,3.5-2.1,5.2-0.9l0,0c1.7,1.2,2.1,3.5,0.9,5.2L262.7,111.4z"/>
					<path class="st2" d="M287.2,136.4l-6.1-4.3l7.7-10.9c1.2-1.7,3.5-2.1,5.2-0.9l0,0c1.7,1.2,2.1,3.5,0.9,5.2L287.2,136.4z"/>
					<polygon class="st2" points="228.5,110.5 221.8,105.3 215.5,100.3 211.3,97 155.1,52.9 153.3,42.1 173.4,49.9 180.6,52.7 
						206.5,62.8 213.7,65.6 226.8,70.6 233.8,73.4 231.1,92.1 228.6,109.5 					"/>
					<path class="st2" d="M202.3,68.9l6.1,4.3l7.7-10.9c1.2-1.7,0.8-4-0.9-5.2l0,0c-1.7-1.2-4-0.8-5.2,0.9L202.3,68.9z"/>
					<path class="st2" d="M170.4,54.3l6.1,4.3l7.7-10.9c1.2-1.7,0.8-4-0.9-5.2l0,0c-1.7-1.2-4-0.8-5.2,0.9L170.4,54.3z"/>
					<polygon class="st2" points="205.1,163.9 194.7,143.5 205.7,127.8 216.9,147 					"/>
					<polygon class="st2" points="172,140.6 194.7,143.5 205.7,127.8 183.9,123.7 					"/>
					<path class="st2" d="M233.2,112.4c6.9-8.1,13.8-16.4,19.6-23.5l-4.9-5.6l-16.7,8.9l2.7-18.7l-7-2.7
						c-4.7,7.8-10.2,17.1-15.5,26.4L233.2,112.4z"/>
					<path class="st2" d="M265.2,68.5c-4.6,6.5-69.1,87.2-75.6,82.6c-6.5-4.6,47.5-92.6,52.1-99.1s13.5-8.1,20-3.5
						C268.2,53,269.8,62,265.2,68.5z"/>
					<path class="st2" d="M258.4,53.2c4.5,3.2,5.9,9.1,3.4,13.9c0.3-0.4,0.7-0.7,1-1.2c3.4-4.9,2.3-11.7-2.6-15.1
						c-4.9-3.4-11.7-2.3-15.1,2.6c-0.3,0.4-0.5,0.8-0.8,1.3C247.9,50.8,253.9,50,258.4,53.2z"/>
					<path class="st2" d="M246.6,86c1.2,0.6,2.5,0.3,3-0.6c0.4-0.9-0.3-2-1.5-2.6s-2.5-0.3-3,0.6C244.7,84.3,245.4,85.5,246.6,86z"
						/>
					<path class="st2" d="M241.1,92.6c1.2,0.6,2.5,0.3,3-0.6c0.4-0.9-0.3-2-1.5-2.6s-2.5-0.3-3,0.6C239.2,90.9,239.9,92,241.1,92.6z
						"/>
					<path class="st2" d="M235.6,99.1c1.2,0.6,2.5,0.3,3-0.6s-0.3-2-1.5-2.6s-2.5-0.3-3,0.6C233.7,97.4,234.4,98.6,235.6,99.1z"/>
					<path class="st2" d="M230.1,105.7c1.2,0.6,2.5,0.3,3-0.6s-0.3-2-1.5-2.6s-2.5-0.3-3,0.6C228.2,104,228.9,105.1,230.1,105.7z"/>
					<path class="st2" d="M225.4,111.4c1.2,0.6,2.5,0.3,3-0.6c0.4-0.9-0.3-2-1.5-2.6s-2.5-0.3-3,0.6
						C223.5,109.6,224.2,110.8,225.4,111.4z"/>
					<path class="st2" d="M219.9,117.9c1.2,0.6,2.5,0.3,3-0.6c0.4-0.9-0.3-2-1.5-2.6s-2.5-0.3-3,0.6
						C218,116.2,218.7,117.3,219.9,117.9z"/>
					<path class="st2" d="M214.4,124.5c1.2,0.6,2.5,0.3,3-0.6c0.4-0.9-0.3-2-1.5-2.6s-2.5-0.3-3,0.6
						C212.6,122.7,213.2,123.9,214.4,124.5z"/>
					<path class="st9" d="M261.8,48.5c-0.1,0-0.1-0.1-18.8,25.9c0,0-53.4,76.7-53.3,76.7c6.5,4.6,71-76.1,75.6-82.6
						C269.8,62,268.2,53,261.8,48.5z"/>
				</g>
				<g>
					<g>
						<g>
							<polygon class="st10" points="301.6,148.4 290.8,150.3 230.3,112.4 225.7,109.5 218.9,105.3 211.8,100.8 212.6,100.3 
								228.2,92.1 244.9,83.2 249.8,88.9 259,99.4 264.1,105.3 282.3,126.2 287.4,132.1 							"/>
							<path class="st10" d="M259.8,111.4l-6.1-4.3l7.7-10.9c1.2-1.7,3.5-2.1,5.2-0.9l0,0c1.7,1.2,2.1,3.5,0.9,5.2L259.8,111.4z"/>
							<path class="st10" d="M284.3,136.4l-6.1-4.3l7.7-10.9c1.2-1.7,3.5-2.1,5.2-0.9l0,0c1.7,1.2,2.1,3.5,0.9,5.2L284.3,136.4z"/>
						</g>
						<g>
							<polygon class="st10" points="225.6,110.5 218.9,105.3 212.6,100.3 208.4,97 152.2,52.9 150.4,42.1 170.5,49.9 177.7,52.7 
								203.6,62.8 210.8,65.6 223.9,70.6 230.9,73.4 228.2,92.1 225.7,109.5 							"/>
							<path class="st10" d="M199.4,68.9l6.1,4.3l7.7-10.9c1.2-1.7,0.8-4-0.9-5.2l0,0c-1.7-1.2-4-0.8-5.2,0.9L199.4,68.9z"/>
							<path class="st10" d="M167.4,54.3l6.1,4.3l7.7-10.9c1.2-1.7,0.8-4-0.9-5.2l0,0c-1.7-1.2-4-0.8-5.2,0.9L167.4,54.3z"/>
						</g>
						<g>
							<polygon class="st10" points="202.2,163.9 191.8,143.5 202.8,127.8 214,147 							"/>
							<polygon class="st10" points="169.1,140.6 191.8,143.5 202.8,127.8 180.9,123.7 							"/>
						</g>
						<path class="st10" d="M230.3,112.4c6.9-8.1,13.8-16.4,19.6-23.5l-4.9-5.6l-16.7,8.9l2.7-18.7l-7-2.7
							c-4.7,7.8-10.2,17.1-15.5,26.4L230.3,112.4z"/>
						<path class="st10" d="M262.3,68.5c-4.6,6.5-69.1,87.2-75.6,82.6c-6.5-4.6,47.5-92.6,52.1-99.1s13.5-8.1,20-3.5
							C265.3,53,266.9,62,262.3,68.5z"/>
						<g>
							<path class="st11" d="M255.5,53.2c4.5,3.2,5.9,9.1,3.4,13.9c0.3-0.4,0.7-0.7,1-1.2c3.4-4.9,2.3-11.7-2.6-15.1
								c-4.9-3.4-11.7-2.3-15.1,2.6c-0.3,0.4-0.5,0.8-0.8,1.3C245,50.8,251,50,255.5,53.2z"/>
						</g>
						<g>
							<path class="st11" d="M243.7,86c1.2,0.6,2.5,0.3,3-0.6c0.4-0.9-0.3-2-1.5-2.6s-2.5-0.3-3,0.6C241.8,84.3,242.5,85.5,243.7,86
								z"/>
						</g>
						<g>
							<path class="st11" d="M238.2,92.6c1.2,0.6,2.5,0.3,3-0.6s-0.3-2-1.5-2.6s-2.5-0.3-3,0.6C236.3,90.9,237,92,238.2,92.6z"/>
						</g>
						<g>
							<path class="st11" d="M232.7,99.1c1.2,0.6,2.5,0.3,3-0.6c0.4-0.9-0.3-2-1.5-2.6s-2.5-0.3-3,0.6
								C230.8,97.4,231.5,98.6,232.7,99.1z"/>
						</g>
						<g>
							<path class="st11" d="M227.2,105.7c1.2,0.6,2.5,0.3,3-0.6c0.4-0.9-0.3-2-1.5-2.6s-2.5-0.3-3,0.6
								C225.3,104,226,105.1,227.2,105.7z"/>
						</g>
						<g>
							<path class="st11" d="M222.5,111.4c1.2,0.6,2.5,0.3,3-0.6c0.4-0.9-0.3-2-1.5-2.6s-2.5-0.3-3,0.6
								C220.6,109.6,221.3,110.8,222.5,111.4z"/>
						</g>
						<g>
							<path class="st11" d="M217,117.9c1.2,0.6,2.5,0.3,3-0.6c0.4-0.9-0.3-2-1.5-2.6s-2.5-0.3-3,0.6
								C215.1,116.2,215.8,117.3,217,117.9z"/>
						</g>
						<g>
							<path class="st11" d="M211.5,124.5c1.2,0.6,2.5,0.3,3-0.6c0.4-0.9-0.3-2-1.5-2.6s-2.5-0.3-3,0.6
								C209.6,122.7,210.3,123.9,211.5,124.5z"/>
						</g>
						<path class="st12" d="M258.8,48.5c-0.1,0-0.1-0.1-18.8,25.9c0,0-53.4,76.7-53.3,76.7c6.5,4.6,71-76.1,75.6-82.6
							C266.9,62,265.3,53,258.8,48.5z"/>
					</g>
				</g>
			</g>
		</g>
		<g>
			<g>
				<path class="st3" d="M79.3,2.5c-7.4,0-13.4,6-13.4,13.4s13.4,29.4,13.4,29.4s13.4-22,13.4-29.4C92.7,8.5,86.7,2.5,79.3,2.5z
					 M79.3,23.7c-4.3,0-7.8-3.5-7.8-7.8s3.5-7.8,7.8-7.8s7.8,3.5,7.8,7.8C87.1,20.2,83.6,23.7,79.3,23.7z"/>
			</g>
			<g>
				<g>
					<path class="st11" d="M80.7,3.9c-7.4,0-13.4,6-13.4,13.4s13.4,29.4,13.4,29.4s13.4-22,13.4-29.4S88.1,3.9,80.7,3.9z M80.7,25.2
						c-4.3,0-7.8-3.5-7.8-7.8s3.5-7.8,7.8-7.8s7.8,3.5,7.8,7.8S85,25.2,80.7,25.2z"/>
				</g>
			</g>
		</g>
		<g>
			<g>
				<path class="st3" d="M82.4,53.1c0,1.7-1.4,3.2-3.2,3.2c-1.7,0-3.2-1.4-3.2-3.2c0-1.7,1.4-3.2,3.2-3.2
					C81,49.9,82.4,51.3,82.4,53.1z"/>
			</g>
			<g>
				<path class="st11" d="M83.9,54.5c0,1.7-1.4,3.2-3.2,3.2c-1.7,0-3.2-1.4-3.2-3.2c0-1.7,1.4-3.2,3.2-3.2
					C82.5,51.4,83.9,52.8,83.9,54.5z"/>
			</g>
		</g>
	</g>
	<path class="st0" d="M230.8,166.8c1.7-0.8,6.3-2.8,12.3-2.2c0.9,0.1,5.3,0.5,5.4,1.6c0.1,1.4-7,0.3-14.3,6.2
		c-4.2,3.4-5.8,7-9.7,7.1c-2,0-4.7-0.9-5-2.7C219,173.7,226.4,168.9,230.8,166.8z"/>
</g>
</svg>
