<?xml version="1.0" encoding="utf-8"?>
<!-- Generator: Adobe Illustrator 28.1.0, SVG Export Plug-In . SVG Version: 6.00 Build 0)  -->
<svg version="1.1" id="Livello_1" xmlns="http://www.w3.org/2000/svg" xmlns:xlink="http://www.w3.org/1999/xlink" x="0px" y="0px"
	 viewBox="0 0 205 205" style="enable-background:new 0 0 205 205;" xml:space="preserve">
<style type="text/css">
	.st0{fill:#ADB5BD;}
	.st1{clip-path:url(#SVGID_00000069391681356056708770000007970219836221486756_);fill:#828282;}
	.st2{fill:#0DCAF0;}
</style>
<g>
	<circle class="st0" cx="102.5" cy="102.5" r="100"/>
	<g>
		<g>
			<defs>
				<circle id="SVGID_1_" cx="102.5" cy="102.5" r="93"/>
			</defs>
			<clipPath id="SVGID_00000154387280165887705480000002634640894382788277_">
				<use xlink:href="#SVGID_1_"  style="overflow:visible;"/>
			</clipPath>
			<path style="clip-path:url(#SVGID_00000154387280165887705480000002634640894382788277_);fill:#828282;" d="M105.1,202.5
				c-1.7,0-3.5,0-5.2,0c-0.5-0.1-0.9-0.1-1.4-0.2c-2.5-0.2-4.9-0.3-7.4-0.5c-8.8-1-17.4-3.1-25.7-6.4c-12.1-4.8-22.8-11.8-32.2-20.8
				c-8-7.7-14.6-16.5-19.7-26.4c-5.5-11-9.1-22.5-10.4-34.7c-0.3-2.4-0.4-4.7-0.6-7.1c0-2.7,0-5.4,0-8c0.2-2.5,0.4-5,0.7-7.6
				c1.2-10.4,4-20.3,8.4-29.8C16.8,49.5,24,39.4,33.1,30.6c8.7-8.4,18.6-15,29.7-19.9c10.1-4.4,20.6-7,31.5-7.9
				c1.6-0.1,3.2-0.3,4.7-0.4c2.3,0,4.6,0,7,0c0.5,0.1,0.9,0.1,1.4,0.2c2.3,0.2,4.6,0.3,6.8,0.5c11.6,1.4,22.7,4.7,33.2,9.9
				c9.5,4.8,17.9,10.9,25.5,18.3c9.7,9.6,17.2,20.7,22.3,33.4c3.8,9.3,6.2,18.9,7,29c0.1,1.6,0.3,3.2,0.4,4.7c0,2.6,0,5.2,0,7.8
				c-0.1,1.6-0.3,3.2-0.4,4.7c-0.6,7.7-2.1,15.3-4.6,22.7c-6,17.8-16.2,32.8-30.5,44.9c-10,8.5-21.3,14.8-33.9,18.9
				c-7.5,2.4-15.1,3.9-22.9,4.5C108.5,202.2,106.8,202.4,105.1,202.5z M166.4,170.1c27.7-26,37.6-67.6,21.5-104.8
				C172.7,30.4,135.2,4.8,91,10.1c-36.6,4.4-70.4,31.6-79.4,72.4c-4.2,18.8-2.6,37.3,4.8,55.2c5.1,12.4,12.5,23.1,22.2,32.3
				c2-1.5,3.8-3.1,5.8-4.5c7-4.9,14.7-8,22.8-10.4c3.6-1.1,7-2.5,9.9-5c2.7-2.3,4.2-5.2,4-8.9c-0.1-2.6-0.1-5.3,0-7.9
				c0.1-2.7-0.3-5.1-2.2-7.4c-3.1-3.9-4.9-8.7-6.6-13.4c-0.5-1.3-1.1-2.4-2.3-3.4c-3.3-2.6-4.9-6.2-5.3-10.3
				c-0.4-3.1-0.3-6.1,1.3-8.8c0.1-0.2,0.1-0.6,0.1-0.8c-1.1-6-1.6-12.1-1.6-18.2c0-7.4,1-14.6,3.9-21.4c4.2-9.8,11.7-16,22-18.7
				c6.7-1.8,13.5-1.9,20.4-1.3c4.4,0.4,8.2,1.9,10.7,5.8c0.1,0.1,0.1,0.3,0.3,0.3c0.5,0.3,1.1,0.6,1.7,0.8c1.9,0.4,3.9,0.5,5.7,1.1
				c5.9,2,9.4,6.4,11.4,12.1c2.7,7.4,2.8,15.2,2.1,22.9c-0.5,5.4-1.5,10.8-2.9,16.1c-0.1,0.3-0.1,0.7,0.1,0.9
				c1.7,2.5,1.7,5.3,1.5,8.2c-0.4,4.6-2,8.6-5.8,11.3c-1.8,1.3-2.8,2.8-3.2,4.7c-0.1,0.3-0.2,0.6-0.3,0.9c-1.7,4.8-3.6,9.5-6.9,13.6
				c-0.3,0.3-0.3,0.9-0.3,1.3c0,4.2,0,8.4,0,12.6c0,2,0.7,3.8,2,5.4c3.1,3.9,7.3,6.1,11.8,7.5C148.6,158.4,158.3,162.6,166.4,170.1z
				"/>
		</g>
	</g>
	<path class="st2" d="M102.5,2.5c-55.2,0-100,44.8-100,100s44.8,100,100,100s100-44.8,100-100S157.7,2.5,102.5,2.5z M102.5,195.5
		c-51.4,0-93-41.6-93-93s41.6-93,93-93s93,41.6,93,93S153.9,195.5,102.5,195.5z"/>
</g>
</svg>
