<?xml version="1.0" encoding="utf-8"?>
<!-- Generator: Adobe Illustrator 28.1.0, SVG Export Plug-In . SVG Version: 6.00 Build 0)  -->
<svg version="1.1" id="PRINT" xmlns="http://www.w3.org/2000/svg" xmlns:xlink="http://www.w3.org/1999/xlink" x="0px" y="0px"
	 viewBox="0 0 205 139" style="enable-background:new 0 0 205 139;" xml:space="preserve">
<style type="text/css">
	.st0{fill:#4A5DBA;}
	.st1{fill:#FFFFFF;}
	.st2{fill:#FFFFFF;stroke:#FFFFFF;stroke-width:0.25;stroke-miterlimit:10;}
	.st3{fill:#FF551A;}
	.st4{fill:#B7B1E5;}
	.st5{fill:#1B143A;}
</style>
<g>
	<g>
		<path id="CUSTOM-Background_00000031184353675384391880000003704147719533694606_" class="st0" d="M177.5,137h-150
			c-13.8,0-25-11.2-25-25V27c0-13.8,11.2-25,25-25h150c13.8,0,25,11.2,25,25v85C202.5,125.8,191.3,137,177.5,137z"/>
	</g>
	<g id="CUSTOM-group_00000082352409050589696510000015028041951257682305_">
		<g>
			<g>
				<path class="st1" d="M17.9,112v-2.3l4.7-1.1V79.8l-4.7-1.1v-2.3h14.7c8.3,0,12.5,2.9,12.5,8.7c0,1.9-0.6,3.5-1.7,4.9
					c-1.1,1.4-2.6,2.4-4.5,3V93c2.8,0.5,4.9,1.5,6.5,3.1c1.5,1.6,2.3,3.5,2.3,5.9c0,3.1-1.1,5.5-3.4,7.3c-2.3,1.8-5.4,2.7-9.2,2.7
					H17.9z M28.8,91.9h2.9c2,0,3.6-0.6,4.9-1.7c1.3-1.1,1.9-2.7,1.9-4.7c0-2-0.6-3.6-1.9-4.5c-1.3-1-3-1.5-5.2-1.5h-2.6V91.9z
					 M28.8,108.9h4.4c2.5,0,4.4-0.6,5.8-1.8c1.4-1.2,2-2.9,2-5.2c0-2.1-0.7-3.7-2.1-5c-1.4-1.3-3.4-1.9-5.9-1.9h-4.2V108.9z"/>
				<path class="st1" d="M65.4,85.7c3.7,0,6.8,1.3,9.3,3.8c2.5,2.5,3.7,5.8,3.7,9.7c0,3.9-1.2,7.2-3.7,9.8c-2.5,2.6-5.5,3.8-9.3,3.8
					c-3.7,0-6.9-1.3-9.3-3.8c-2.5-2.6-3.7-5.8-3.7-9.8c0-3.9,1.2-7.1,3.7-9.7C58.6,87,61.7,85.7,65.4,85.7z M65.4,88.6
					c-2.1,0-3.7,1-4.9,2.9c-1.1,1.9-1.7,4.5-1.7,7.8c0,3.2,0.6,5.8,1.7,7.8c1.1,2,2.8,3,4.9,3c2.1,0,3.7-1,4.9-3
					c1.1-2,1.7-4.6,1.7-7.8c0-3.2-0.6-5.8-1.7-7.8C69.2,89.5,67.6,88.6,65.4,88.6z"/>
				<path class="st1" d="M95.7,85.7c3.7,0,6.8,1.3,9.3,3.8c2.5,2.5,3.7,5.8,3.7,9.7c0,3.9-1.2,7.2-3.7,9.8c-2.5,2.6-5.5,3.8-9.3,3.8
					c-3.7,0-6.9-1.3-9.3-3.8c-2.5-2.6-3.7-5.8-3.7-9.8c0-3.9,1.2-7.1,3.7-9.7C88.9,87,92,85.7,95.7,85.7z M95.7,88.6
					c-2.1,0-3.7,1-4.9,2.9c-1.1,1.9-1.7,4.5-1.7,7.8c0,3.2,0.6,5.8,1.7,7.8c1.1,2,2.8,3,4.9,3c2.1,0,3.7-1,4.9-3
					c1.1-2,1.7-4.6,1.7-7.8c0-3.2-0.6-5.8-1.7-7.8C99.5,89.5,97.8,88.6,95.7,88.6z"/>
				<path class="st1" d="M111.7,112v-2.2l4.3-1V75.3h-4.3v-2.2l8.2-1.9h2.3v37.6l3.3,1v2.2H111.7z M123,99.7l9.3-10.2l-3.4-0.9v-2.2
					h11.5v2.2l-4.5,1l-7.1,7.8l8.4,11.4l4.2,1v2.2H132L123,99.7z"/>
				<path class="st1" d="M143.1,112v-2.2l4.3-1V75.3h-4.3v-2.2l8.2-1.9h2.3v37.6l4.3,1v2.2H143.1z"/>
				<path class="st1" d="M158.6,88.7v-2.2h13.9v2.2l-3.9,0.8l7.3,16.2l6.1-15.9l-4.1-1v-2.2h11.3v2.2l-4,1.1l-14.5,37.5
					c-1.5,0-2.7-0.2-3.4-0.7c-0.8-0.4-1.4-1-1.8-1.6l7.3-11.6l-10.7-23.7L158.6,88.7z"/>
			</g>
		</g>
		<g>
			<path class="st2" d="M25.8,119.6c0.6,0,1,0.2,1.3,0.5c0.3,0.3,0.5,0.8,0.5,1.3c0,0.3-0.1,0.6-0.2,0.8c-0.1,0.3-0.3,0.5-0.5,0.7
				c-0.2,0.2-0.5,0.3-0.8,0.3l-0.1-0.1c0.3,0,0.5,0,0.8,0.1c0.2,0.1,0.4,0.2,0.6,0.4c0.2,0.2,0.3,0.4,0.4,0.6
				c0.1,0.2,0.2,0.5,0.2,0.8c0,0.3-0.1,0.6-0.2,0.9c-0.1,0.2-0.3,0.5-0.5,0.6c-0.2,0.2-0.4,0.3-0.7,0.4c-0.3,0.1-0.5,0.1-0.8,0.1H23
				c-0.1,0-0.1,0-0.1-0.1s-0.1-0.1-0.1-0.1v-6.9c0-0.1,0-0.1,0.1-0.1c0,0,0.1-0.1,0.1-0.1H25.8z M25.7,120.1h-2.7l0.1-0.2v3.3
				l-0.1-0.2h2.6c0.4,0,0.8-0.1,1-0.4c0.3-0.3,0.4-0.7,0.4-1.2c0-0.4-0.1-0.7-0.4-1C26.6,120.2,26.2,120.1,25.7,120.1z M25.8,123.4
				h-2.7l0-0.1v3.3l-0.1-0.1h2.7c0.5,0,0.9-0.1,1.2-0.4c0.3-0.2,0.5-0.6,0.5-1.2c0-0.4-0.1-0.7-0.2-0.9c-0.2-0.2-0.4-0.4-0.6-0.5
				C26.4,123.5,26.1,123.4,25.8,123.4z"/>
			<path class="st2" d="M38.7,123.3c0,0.6-0.1,1.1-0.3,1.5c-0.2,0.5-0.4,0.9-0.7,1.2c-0.3,0.3-0.7,0.6-1.1,0.8
				c-0.4,0.2-0.9,0.3-1.4,0.3c-0.5,0-1-0.1-1.4-0.3c-0.4-0.2-0.8-0.4-1.1-0.8c-0.3-0.3-0.6-0.7-0.7-1.2c-0.2-0.5-0.3-1-0.3-1.5
				c0-0.6,0.1-1.1,0.3-1.5c0.2-0.5,0.4-0.9,0.7-1.2c0.3-0.3,0.7-0.6,1.1-0.8c0.4-0.2,0.9-0.3,1.4-0.3c0.5,0,1,0.1,1.4,0.3
				c0.4,0.2,0.8,0.4,1.1,0.8c0.3,0.3,0.6,0.7,0.7,1.2C38.6,122.2,38.7,122.7,38.7,123.3z M38.2,123.3c0-0.7-0.1-1.3-0.4-1.8
				c-0.3-0.5-0.6-0.9-1.1-1.2c-0.5-0.3-1-0.4-1.6-0.4c-0.6,0-1.1,0.1-1.6,0.4c-0.5,0.3-0.8,0.7-1.1,1.2c-0.3,0.5-0.4,1.1-0.4,1.8
				c0,0.7,0.1,1.3,0.4,1.8c0.3,0.5,0.6,0.9,1.1,1.2c0.5,0.3,1,0.4,1.6,0.4c0.6,0,1.1-0.1,1.6-0.4c0.5-0.3,0.8-0.7,1.1-1.2
				C38.1,124.6,38.2,124,38.2,123.3z"/>
			<path class="st2" d="M49.4,123.3c0,0.6-0.1,1.1-0.3,1.5c-0.2,0.5-0.4,0.9-0.7,1.2c-0.3,0.3-0.7,0.6-1.1,0.8
				c-0.4,0.2-0.9,0.3-1.4,0.3c-0.5,0-1-0.1-1.4-0.3c-0.4-0.2-0.8-0.4-1.1-0.8c-0.3-0.3-0.6-0.7-0.7-1.2c-0.2-0.5-0.3-1-0.3-1.5
				c0-0.6,0.1-1.1,0.3-1.5c0.2-0.5,0.4-0.9,0.7-1.2c0.3-0.3,0.7-0.6,1.1-0.8c0.4-0.2,0.9-0.3,1.4-0.3c0.5,0,1,0.1,1.4,0.3
				c0.4,0.2,0.8,0.4,1.1,0.8c0.3,0.3,0.6,0.7,0.7,1.2C49.3,122.2,49.4,122.7,49.4,123.3z M48.9,123.3c0-0.7-0.1-1.3-0.4-1.8
				c-0.3-0.5-0.6-0.9-1.1-1.2c-0.5-0.3-1-0.4-1.6-0.4c-0.6,0-1.1,0.1-1.6,0.4c-0.5,0.3-0.8,0.7-1.1,1.2c-0.3,0.5-0.4,1.1-0.4,1.8
				c0,0.7,0.1,1.3,0.4,1.8c0.3,0.5,0.6,0.9,1.1,1.2c0.5,0.3,1,0.4,1.6,0.4c0.6,0,1.1-0.1,1.6-0.4c0.5-0.3,0.8-0.7,1.1-1.2
				C48.8,124.6,48.9,124,48.9,123.3z"/>
			<path class="st2" d="M53.8,127c-0.1,0-0.1,0-0.2-0.1c0,0-0.1-0.1-0.1-0.2v-6.9c0-0.1,0-0.1,0.1-0.2c0,0,0.1-0.1,0.2-0.1
				c0.1,0,0.1,0,0.2,0.1c0,0,0.1,0.1,0.1,0.2v6.9c0,0.1,0,0.1-0.1,0.2C53.9,127,53.9,127,53.8,127z M58.7,119.7c0.1,0,0.1,0,0.1,0.1
				c0,0,0.1,0.1,0.1,0.1c0,0.1,0,0.1-0.1,0.1l-4.9,4.6l-0.1-0.5l4.7-4.4C58.6,119.7,58.6,119.7,58.7,119.7z M58.9,127
				c-0.1,0-0.1,0-0.1-0.1l-3.2-3.9l0.3-0.3l3.2,4c0,0,0.1,0.1,0.1,0.1c0,0.1,0,0.1-0.1,0.2C59,127,58.9,127,58.9,127z"/>
			<path class="st2" d="M65.3,127.1c-0.5,0-1-0.1-1.4-0.3c-0.4-0.2-0.8-0.5-1.1-0.8c0,0,0,0,0-0.1c0,0,0-0.1,0-0.1
				c0-0.1,0-0.1,0.1-0.2c0-0.1,0.1-0.1,0.2-0.1c0.1,0,0.1,0,0.2,0.1c0.3,0.3,0.6,0.6,1,0.7c0.4,0.2,0.8,0.3,1.2,0.3
				c0.4,0,0.7-0.1,1-0.2c0.3-0.1,0.5-0.3,0.7-0.5c0.2-0.2,0.2-0.5,0.2-0.8c0-0.4-0.1-0.6-0.3-0.9c-0.2-0.2-0.4-0.4-0.7-0.5
				c-0.3-0.1-0.6-0.3-0.9-0.4c-0.3-0.1-0.5-0.2-0.8-0.3c-0.3-0.1-0.5-0.2-0.7-0.4c-0.2-0.2-0.4-0.3-0.5-0.6
				c-0.1-0.2-0.2-0.5-0.2-0.8c0-0.3,0.1-0.7,0.3-0.9c0.2-0.3,0.5-0.5,0.8-0.7c0.3-0.2,0.8-0.2,1.2-0.2c0.4,0,0.8,0.1,1.2,0.2
				c0.4,0.1,0.7,0.4,0.9,0.6c0.1,0.1,0.1,0.2,0.1,0.2s0,0.1-0.1,0.1c-0.1,0-0.1,0.1-0.2,0.1c-0.1,0-0.1,0-0.1-0.1
				c-0.1-0.2-0.3-0.3-0.5-0.4c-0.2-0.1-0.4-0.2-0.6-0.3s-0.5-0.1-0.7-0.1c-0.3,0-0.7,0.1-0.9,0.2c-0.3,0.1-0.5,0.3-0.7,0.5
				c-0.2,0.2-0.3,0.5-0.3,0.8c0,0.3,0.1,0.6,0.3,0.8c0.2,0.2,0.4,0.4,0.7,0.5c0.3,0.1,0.6,0.3,0.9,0.4c0.3,0.1,0.5,0.2,0.8,0.3
				c0.3,0.1,0.5,0.2,0.7,0.4c0.2,0.2,0.4,0.4,0.5,0.6c0.1,0.2,0.2,0.6,0.2,0.9c0,0.3-0.1,0.6-0.3,0.9c-0.2,0.3-0.4,0.5-0.8,0.7
				C66.2,127,65.8,127.1,65.3,127.1z"/>
			<path class="st2" d="M71.3,120c-0.1,0-0.1,0-0.1-0.1c0,0-0.1-0.1-0.1-0.1s0-0.1,0.1-0.1c0,0,0.1-0.1,0.1-0.1h5.1
				c0.1,0,0.1,0,0.1,0.1c0,0,0.1,0.1,0.1,0.1c0,0.1,0,0.1-0.1,0.1c0,0-0.1,0.1-0.1,0.1H71.3z M73.8,127c-0.1,0-0.1,0-0.2-0.1
				c0,0-0.1-0.1-0.1-0.1v-6.9h0.4v6.9c0,0.1,0,0.1-0.1,0.1S73.9,127,73.8,127z"/>
			<path class="st2" d="M87.1,123.3c0,0.6-0.1,1.1-0.3,1.5c-0.2,0.5-0.4,0.9-0.7,1.2c-0.3,0.3-0.7,0.6-1.1,0.8
				c-0.4,0.2-0.9,0.3-1.4,0.3c-0.5,0-1-0.1-1.4-0.3c-0.4-0.2-0.8-0.4-1.1-0.8c-0.3-0.3-0.6-0.7-0.7-1.2c-0.2-0.5-0.3-1-0.3-1.5
				c0-0.6,0.1-1.1,0.3-1.5c0.2-0.5,0.4-0.9,0.7-1.2c0.3-0.3,0.7-0.6,1.1-0.8c0.4-0.2,0.9-0.3,1.4-0.3c0.5,0,1,0.1,1.4,0.3
				c0.4,0.2,0.8,0.4,1.1,0.8c0.3,0.3,0.6,0.7,0.7,1.2C87.1,122.2,87.1,122.7,87.1,123.3z M86.7,123.3c0-0.7-0.1-1.3-0.4-1.8
				c-0.3-0.5-0.6-0.9-1.1-1.2c-0.5-0.3-1-0.4-1.6-0.4c-0.6,0-1.1,0.1-1.6,0.4c-0.5,0.3-0.8,0.7-1.1,1.2c-0.3,0.5-0.4,1.1-0.4,1.8
				c0,0.7,0.1,1.3,0.4,1.8c0.3,0.5,0.6,0.9,1.1,1.2c0.5,0.3,1,0.4,1.6,0.4c0.6,0,1.1-0.1,1.6-0.4c0.5-0.3,0.8-0.7,1.1-1.2
				C86.6,124.6,86.7,124,86.7,123.3z"/>
			<path class="st2" d="M91.6,127c-0.1,0-0.1,0-0.2-0.1c0,0-0.1-0.1-0.1-0.1v-6.9c0-0.1,0-0.1,0.1-0.1c0,0,0.1-0.1,0.1-0.1h2.8
				c0.4,0,0.8,0.1,1.1,0.2c0.3,0.2,0.6,0.4,0.7,0.7c0.2,0.3,0.3,0.6,0.3,1c0,0.3-0.1,0.6-0.2,0.9c-0.1,0.3-0.3,0.5-0.5,0.6
				c-0.2,0.2-0.4,0.3-0.7,0.4l-0.5-0.1c0.3,0,0.5,0.1,0.8,0.2c0.3,0.1,0.5,0.4,0.6,0.6c0.2,0.3,0.2,0.6,0.2,1c0,0.3,0,0.6,0,0.8
				c0,0.2,0.1,0.3,0.1,0.4c0.1,0.1,0.1,0.2,0.2,0.2c0,0,0.1,0.1,0.1,0.1s0,0.1,0,0.1c0,0,0,0.1-0.1,0.1c0,0-0.1,0-0.1,0
				c0,0-0.1,0-0.1,0c-0.1-0.1-0.2-0.1-0.3-0.3c-0.1-0.1-0.2-0.3-0.2-0.5c-0.1-0.2-0.1-0.6-0.1-1c0-0.3-0.1-0.6-0.2-0.8
				c-0.1-0.2-0.2-0.3-0.4-0.5c-0.2-0.1-0.3-0.2-0.5-0.2c-0.2,0-0.3-0.1-0.5-0.1h-2.6l0.1-0.1v3.2c0,0.1,0,0.1-0.1,0.1
				S91.6,127,91.6,127z M91.7,123.3h2.7c0.3,0,0.5-0.1,0.8-0.3c0.2-0.1,0.4-0.3,0.6-0.6c0.2-0.3,0.2-0.5,0.2-0.9
				c0-0.4-0.2-0.8-0.5-1.1c-0.3-0.3-0.7-0.4-1.2-0.4h-2.5l0.1-0.1v3.4L91.7,123.3z"/>
			<path class="st2" d="M101.2,119.6h4c0.1,0,0.1,0,0.1,0.1c0,0,0.1,0.1,0.1,0.1c0,0.1,0,0.1-0.1,0.2c0,0-0.1,0.1-0.1,0.1h-3.8
				l0.1-0.2v3.3l-0.1-0.1h3.4c0.1,0,0.1,0,0.1,0.1c0,0,0.1,0.1,0.1,0.1c0,0.1,0,0.1-0.1,0.2c0,0-0.1,0.1-0.1,0.1h-3.4l0.1-0.1v3.3
				l0-0.1h3.8c0.1,0,0.1,0,0.1,0.1c0,0,0.1,0.1,0.1,0.1c0,0.1,0,0.1-0.1,0.2c0,0-0.1,0.1-0.1,0.1h-4c-0.1,0-0.1,0-0.1-0.1
				c0,0-0.1-0.1-0.1-0.1v-6.9c0-0.1,0-0.1,0.1-0.1C101,119.7,101.1,119.6,101.2,119.6z"/>
		</g>
		<g id="CUSTOM-group_00000075870498319331679050000000204276394294115236_">
			<g>
				<path class="st3" d="M155.4,49l-1.7-1.7l-22.2,22.2c0,0-2.9-1.6-6.7-8.6c-2.5-4.7-6.6-6.1-8.9-6.5c-0.5-0.1-1.2-0.1-1.6-0.5l0,0
					l0,0c-0.4-0.4-0.4-1.1-0.5-1.6c-0.4-2.4-1.8-6.4-6.5-8.9c-7-3.8-8.6-6.7-8.6-6.7l22.2-22.2l-1.7-1.7c-0.5-0.5-1.2-0.5-1.6,0
					L94.4,36c-0.5,0.5-0.5,1.2,0,1.6l14.8,14.8c0.4,0.4,0.6,1.1,0.4,1.7c-0.4,1.3-0.2,2.7,0.8,3.7c1,1,2.5,1.3,3.7,0.8
					c0.6-0.2,1.2,0,1.7,0.4l14.8,14.8c0.5,0.5,1.2,0.5,1.6,0l23.2-23.2C155.9,50.2,155.9,49.5,155.4,49L155.4,49z"/>
				<path class="st1" d="M155,45c-1.2-1-3.5-3.4-6.1-8.2c-3.8-7-10.8-6.7-10.8-6.7l-1.4,0.2l-22.2,22.2l-0.2,1.4l0,0l0,0
					c0.4,0.4,0.8,0.6,1.3,0.7c2.4,0.4,6.4,1.8,8.9,6.5c3.8,7,6.9,8.8,6.9,8.8l23.5-23.5C155.5,46,155.4,45.4,155,45L155,45z"/>
				<path class="st1" d="M123.2,13.2c1,1.2,3.4,3.5,8.2,6.1c7,3.8,6.7,10.8,6.7,10.8l-23.8,23.8l0,0c-0.4-0.4-0.6-0.8-0.7-1.3
					c-0.4-2.4-1.8-6.4-6.5-8.9c-7-3.8-8.8-6.9-8.8-6.9l23.5-23.5C122.2,12.8,122.8,12.8,123.2,13.2L123.2,13.2z"/>
			</g>
			<g>
				<path class="st4" d="M149.8,46.5c-1.4-1.6-2.8-3.7-4.1-6.1c-1.6-2.9-3.9-5-6.8-6.2c-0.4-0.2-0.9,0-1,0.5c-0.2,0.4,0,0.9,0.5,1
					c2.6,1,4.6,2.9,6,5.4c1.4,2.5,2.8,4.7,4.3,6.4c0,0,0,0,0,0c0.3,0.3,0.8,0.3,1.1,0C150,47.4,150.1,46.9,149.8,46.5L149.8,46.5z"
					/>
				<path class="st4" d="M147.3,49c-1.4-1.6-2.8-3.7-4.1-6.1c-1.6-2.9-3.9-5-6.8-6.2c-0.4-0.2-0.9,0-1,0.5c-0.2,0.4,0,0.9,0.5,1
					c2.6,1,4.6,2.9,6,5.4c1.4,2.5,2.8,4.7,4.3,6.4c0,0,0,0,0,0c0.3,0.3,0.8,0.3,1.1,0C147.6,49.8,147.6,49.3,147.3,49L147.3,49z"/>
				<path class="st4" d="M135.2,61.1c-1.4-1.6-2.8-3.7-4.1-6.1c-1.6-2.9-3.9-5-6.8-6.2c-0.4-0.2-0.9,0-1,0.5c-0.2,0.4,0,0.9,0.5,1
					c2.6,1,4.6,2.9,6,5.4c1.4,2.5,2.8,4.7,4.3,6.4c0,0,0,0,0,0c0.3,0.3,0.8,0.3,1.1,0C135.4,62,135.5,61.5,135.2,61.1L135.2,61.1z"
					/>
				<path class="st4" d="M132.8,63.5c-1.4-1.6-2.8-3.7-4.1-6.1c-1.6-2.9-3.9-5-6.8-6.2c-0.4-0.2-0.9,0-1,0.5c-0.2,0.4,0,0.9,0.5,1
					c2.6,1,4.6,2.9,6,5.4c1.4,2.5,2.8,4.7,4.3,6.4c0,0,0,0,0,0c0.3,0.3,0.8,0.3,1.1,0C133,64.4,133.1,63.9,132.8,63.5L132.8,63.5z"
					/>
				<path class="st4" d="M144.9,51.4c-1.4-1.6-2.8-3.7-4.1-6.1c-1.6-2.9-3.9-5-6.8-6.2c-0.4-0.2-0.9,0-1,0.5c-0.2,0.4,0,0.9,0.5,1
					c2.6,1,4.6,2.9,6,5.4c1.4,2.5,2.8,4.7,4.3,6.4c0,0,0,0,0,0c0.3,0.3,0.8,0.3,1.1,0C145.2,52.3,145.2,51.7,144.9,51.4L144.9,51.4z
					"/>
				<path class="st4" d="M140,56.3c-1.4-1.6-2.8-3.7-4.1-6.1c-1.6-2.9-3.9-5-6.8-6.2c-0.4-0.2-0.9,0-1,0.5c-0.2,0.4,0,0.9,0.5,1
					c2.6,1,4.6,2.9,6,5.4c1.4,2.5,2.8,4.7,4.3,6.4c0,0,0,0,0,0c0.3,0.3,0.8,0.3,1.1,0C140.3,57.1,140.3,56.6,140,56.3L140,56.3z"/>
				<path class="st4" d="M142.5,53.8c-1.4-1.6-2.8-3.7-4.1-6.1c-1.6-2.9-3.9-5-6.8-6.2c-0.4-0.2-0.9,0-1,0.5c-0.2,0.4,0,0.9,0.5,1
					c2.6,1,4.6,2.9,6,5.4c1.4,2.5,2.8,4.7,4.3,6.4c0,0,0,0,0,0c0.3,0.3,0.8,0.3,1.1,0C142.7,54.7,142.8,54.2,142.5,53.8L142.5,53.8z
					"/>
				<path class="st4" d="M137.6,58.7c-1.4-1.6-2.8-3.7-4.1-6.1c-1.6-2.9-3.9-5-6.8-6.2c-0.4-0.2-0.9,0-1,0.5c-0.2,0.4,0,0.9,0.5,1
					c2.6,1,4.6,2.9,6,5.4c1.4,2.5,2.8,4.7,4.3,6.4c0,0,0,0,0,0c0.3,0.3,0.8,0.3,1.1,0C137.9,59.5,137.9,59,137.6,58.7L137.6,58.7z"
					/>
				<path class="st4" d="M120.6,19.7C120.6,19.7,120.6,19.7,120.6,19.7c1.8,1.5,3.9,3,6.5,4.3c2.6,1.4,4.4,3.4,5.4,6
					c0.2,0.4,0.6,0.6,1,0.5c0.4-0.2,0.6-0.6,0.5-1c-1.2-2.9-3.2-5.2-6.2-6.8c-2.4-1.3-4.5-2.7-6.1-4.1c-0.3-0.3-0.8-0.3-1.1,0.1
					C120.3,18.9,120.3,19.4,120.6,19.7L120.6,19.7z"/>
				<path class="st4" d="M118.2,22.1C118.2,22.1,118.2,22.1,118.2,22.1c1.8,1.5,3.9,3,6.5,4.3c2.6,1.4,4.4,3.4,5.4,6
					c0.2,0.4,0.6,0.6,1,0.5c0.4-0.2,0.6-0.6,0.5-1c-1.2-2.9-3.2-5.2-6.2-6.8c-2.4-1.3-4.5-2.7-6.1-4.1c-0.3-0.3-0.8-0.3-1.1,0.1
					C117.9,21.3,117.9,21.8,118.2,22.1z"/>
				<path class="st4" d="M106,34.3C106.1,34.3,106.1,34.3,106,34.3c1.8,1.5,3.9,3,6.5,4.3c2.6,1.4,4.4,3.4,5.4,6
					c0.2,0.4,0.6,0.6,1,0.5c0.4-0.2,0.6-0.6,0.5-1c-1.2-2.9-3.2-5.2-6.2-6.8c-2.4-1.3-4.5-2.7-6.1-4.1c-0.3-0.3-0.8-0.3-1.1,0.1
					C105.7,33.5,105.8,34,106,34.3z"/>
				<path class="st4" d="M103.6,36.7C103.6,36.7,103.6,36.7,103.6,36.7c1.8,1.5,3.9,3,6.5,4.3c2.6,1.4,4.4,3.4,5.4,6
					c0.2,0.4,0.6,0.6,1,0.5c0.4-0.2,0.6-0.6,0.5-1c-1.2-2.9-3.2-5.2-6.2-6.8c-2.4-1.3-4.5-2.7-6.1-4.1c-0.3-0.3-0.8-0.3-1.1,0.1
					C103.3,35.9,103.3,36.4,103.6,36.7z"/>
				<path class="st4" d="M115.8,24.5C115.8,24.6,115.8,24.6,115.8,24.5c1.8,1.5,3.9,3,6.5,4.3c2.6,1.4,4.4,3.4,5.4,6
					c0.2,0.4,0.6,0.6,1,0.5c0.4-0.2,0.6-0.6,0.5-1c-1.2-2.9-3.2-5.2-6.2-6.8c-2.4-1.3-4.5-2.7-6.1-4.1c-0.3-0.3-0.8-0.3-1.1,0.1
					C115.4,23.8,115.5,24.2,115.8,24.5L115.8,24.5z"/>
				<path class="st4" d="M110.9,29.4C110.9,29.4,110.9,29.4,110.9,29.4c1.8,1.5,3.9,3,6.5,4.3c2.6,1.4,4.4,3.4,5.4,6
					c0.2,0.4,0.6,0.6,1,0.5c0.4-0.2,0.6-0.6,0.5-1c-1.2-2.9-3.2-5.2-6.2-6.8c-2.4-1.3-4.5-2.7-6.1-4.1c-0.3-0.3-0.8-0.3-1.1,0.1
					C110.6,28.6,110.6,29.1,110.9,29.4z"/>
				<path class="st4" d="M113.3,27C113.3,27,113.4,27,113.3,27c1.8,1.5,3.9,3,6.5,4.3c2.6,1.4,4.4,3.4,5.4,6c0.2,0.4,0.6,0.6,1,0.5
					c0.4-0.2,0.6-0.6,0.5-1c-1.2-2.9-3.2-5.2-6.2-6.8c-2.4-1.3-4.5-2.7-6.1-4.1c-0.3-0.3-0.8-0.3-1.1,0.1
					C113,26.2,113,26.7,113.3,27z"/>
				<path class="st4" d="M108.5,31.8C108.5,31.8,108.5,31.9,108.5,31.8c1.8,1.5,3.9,3,6.5,4.3c2.6,1.4,4.4,3.4,5.4,6
					c0.2,0.4,0.6,0.6,1,0.5c0.4-0.2,0.6-0.6,0.5-1c-1.2-2.9-3.2-5.2-6.2-6.8c-2.4-1.3-4.5-2.7-6.1-4.1c-0.3-0.3-0.8-0.3-1.1,0.1
					C108.2,31,108.2,31.5,108.5,31.8z"/>
				<path class="st5" d="M156,48.5l-0.9-0.9l0.5-0.5c0.7-0.7,0.7-1.9-0.1-2.6c-0.9-0.8-2.8-2.6-4.9-6.2c-0.2-0.4-0.7-0.5-1.1-0.3
					c-0.4,0.2-0.5,0.7-0.3,1.1c2.2,3.6,4.1,5.6,5.3,6.6c0.1,0.1,0.1,0.2,0,0.2L131.4,69c-2.4-1.9-4.7-5.4-6.1-8.2
					c-3.3-6.1-8.7-6.7-9.7-7L138.4,31c1.2,0,5.7,0.5,8.8,4.8c0.3,0.4,0.8,0.4,1.1,0.2c0.4-0.3,0.4-0.8,0.2-1.1
					c-3.3-4.5-7.8-5.3-9.7-5.4c-0.3-4.2-2.7-8.4-7.1-10.7c-4.7-2.5-7-4.8-8-5.9c-0.7-0.8-1.9-0.8-2.6-0.1l-0.5,0.5l-0.9-0.9
					c-0.8-0.8-2-0.8-2.8,0L93.8,35.4c-0.8,0.8-0.8,2,0,2.8L108.6,53c0.2,0.2,0.3,0.5,0.2,0.8c-1.2,3.5,2.1,6.8,5.6,5.6
					c0.3-0.1,0.6,0,0.8,0.2L130,74.4c0.8,0.8,2,0.8,2.8,0l10.8-10.8c0.3-0.3,0.3-0.8,0-1.1c-0.3-0.3-0.8-0.3-1.1,0l-10.8,10.8
					c-0.1,0.1-0.4,0.1-0.5,0l-14.8-14.8c-0.7-0.7-1.6-0.9-2.5-0.6c-2.2,0.8-4.3-1.3-3.5-3.5c0.3-0.9,0.1-1.9-0.6-2.5L95,37.1
					c-0.1-0.1-0.1-0.4,0-0.5l23.2-23.2c0.1-0.1,0.4-0.1,0.5,0l0.9,0.9L97.7,36.2c-0.3,0.3-0.3,0.7-0.1,1c0.1,0.1,2,3.4,9.2,7.2
					c3.4,1.8,5.5,4.9,6.1,8.4c0.2,1.3,1.3,2.5,2.7,2.7c2.1,0.4,5.9,1.6,8.4,6.1c3.8,7.1,7.1,9.1,7.2,9.2c0.3,0.2,0.7,0.1,1-0.1
					L154,48.7l0.9,0.9c0.1,0.1,0.1,0.4,0,0.5l-9.7,9.7c-0.3,0.3-0.3,0.8,0,1.1c0.3,0.3,0.8,0.3,1.1,0l9.7-9.7
					C156.8,50.5,156.8,49.2,156,48.5z M122.3,13.8c0.1-0.1,0.2-0.1,0.2,0c1,1.2,3.5,3.6,8.4,6.3c4,2.2,6.1,6,6.3,9.8l-22.8,22.8
					c-0.2-0.5-0.7-6.3-7-9.7c-0.4-0.2-0.8-0.5-1.2-0.7c0,0,0,0,0,0c-2.3-1.3-5.2-3.3-6.9-5.4C100.9,35.2,121.9,14.2,122.3,13.8
					L122.3,13.8z"/>
			</g>
		</g>
		<g id="CUSTOM-group">
			<g>
				<path class="st5" d="M16.8,61c-0.2,0-0.4-0.1-0.5-0.2c-0.4-0.3-0.5-0.9-0.2-1.3c0,0,0.5-0.6,1.3-1.5c0.4-0.4,0.9-0.4,1.3,0
					c0.4,0.4,0.4,0.9,0,1.3c-0.7,0.8-1.1,1.3-1.1,1.3C17.3,60.8,17,61,16.8,61z"/>
			</g>
			<g>
				<path class="st5" d="M83.7,70.7c-0.9,0-1.7,0-2.6-0.1c-0.5-0.1-0.9-0.5-0.8-1c0.1-0.5,0.5-0.9,1-0.8c1.2,0.1,2.4,0.2,3.6,0.1
					c0.5,0,1,0.4,1,0.9c0,0.5-0.4,1-0.9,1C84.6,70.7,84.1,70.7,83.7,70.7z M88.6,70.3c-0.4,0-0.8-0.3-0.9-0.8
					c-0.1-0.5,0.2-1,0.8-1.1c1.1-0.2,2.3-0.5,3.5-0.9c0.5-0.1,1,0.1,1.2,0.6c0.1,0.5-0.1,1-0.6,1.2c-1.3,0.4-2.5,0.7-3.7,0.9
					C88.7,70.3,88.7,70.3,88.6,70.3z M77.6,70c-0.1,0-0.2,0-0.2,0c-1.2-0.3-2.4-0.7-3.7-1.2c-0.5-0.2-0.7-0.7-0.5-1.2
					c0.2-0.5,0.7-0.7,1.2-0.5c1.1,0.5,2.3,0.8,3.4,1.1c0.5,0.1,0.8,0.6,0.7,1.1C78.4,69.7,78,70,77.6,70z M95.8,68.1
					c-0.4,0-0.7-0.2-0.9-0.6c-0.2-0.5,0-1,0.5-1.2c1.1-0.4,2.2-0.9,3.3-1.5c0.5-0.2,1,0,1.3,0.4c0.2,0.5,0,1-0.4,1.3
					c-1.2,0.6-2.3,1.1-3.5,1.6C96,68.1,95.9,68.1,95.8,68.1z M70.7,67.2c-0.2,0-0.3,0-0.4-0.1c-1.1-0.6-2.1-1.2-3.3-2
					c-0.4-0.3-0.6-0.9-0.3-1.3c0.3-0.4,0.9-0.6,1.3-0.3c1.1,0.7,2.1,1.3,3.1,1.9c0.5,0.2,0.6,0.8,0.4,1.3C71.3,67,71,67.2,70.7,67.2
					z M102.4,64.8c-0.3,0-0.6-0.2-0.8-0.5c-0.3-0.4-0.1-1,0.3-1.3c1-0.6,2.1-1.2,3.1-1.9c0.4-0.3,1-0.2,1.3,0.3
					c0.3,0.4,0.2,1-0.3,1.3c-1.1,0.7-2.2,1.4-3.2,2C102.7,64.8,102.6,64.8,102.4,64.8z M64.4,63.2c-0.2,0-0.4-0.1-0.5-0.2
					c-1-0.7-2-1.5-3-2.2c-0.4-0.3-0.5-0.9-0.2-1.3c0.3-0.4,0.9-0.5,1.3-0.2c1.1,0.8,2,1.5,3,2.2c0.4,0.3,0.5,0.9,0.2,1.3
					C65,63,64.7,63.2,64.4,63.2z M58.4,58.7c-0.2,0-0.4-0.1-0.5-0.2c-1.1-0.8-2.1-1.5-3-2.1c-0.4-0.3-0.5-0.9-0.3-1.3
					c0.3-0.4,0.9-0.5,1.3-0.3c0.9,0.6,1.9,1.3,3.1,2.2c0.4,0.3,0.5,0.9,0.2,1.3C59,58.6,58.7,58.7,58.4,58.7z M20.7,57
					c-0.3,0-0.5-0.1-0.7-0.3c-0.3-0.4-0.3-1,0.1-1.3c1-0.8,2.1-1.6,3.1-2.2c0.4-0.3,1-0.1,1.3,0.3c0.3,0.4,0.1,1-0.3,1.3
					c-1,0.6-2,1.3-2.9,2.1C21.1,56.9,20.9,57,20.7,57z M52.2,54.7c-0.2,0-0.3,0-0.4-0.1c-1.1-0.6-2.2-1.1-3.3-1.6
					c-0.5-0.2-0.7-0.7-0.5-1.2c0.2-0.5,0.7-0.7,1.2-0.5c1.1,0.5,2.3,1,3.5,1.7c0.5,0.2,0.6,0.8,0.4,1.3
					C52.8,54.5,52.5,54.7,52.2,54.7z M27,53.1c-0.4,0-0.7-0.2-0.9-0.6c-0.2-0.5,0-1,0.5-1.2c1.2-0.5,2.4-0.9,3.6-1.3
					c0.5-0.1,1,0.2,1.2,0.7c0.1,0.5-0.2,1-0.7,1.2c-1.1,0.3-2.3,0.7-3.4,1.2C27.3,53.1,27.2,53.1,27,53.1z M45.3,51.9
					c-0.1,0-0.2,0-0.2,0c-1.2-0.3-2.4-0.5-3.6-0.7c-0.5-0.1-0.9-0.5-0.8-1.1c0.1-0.5,0.5-0.9,1.1-0.8c1.2,0.2,2.5,0.4,3.8,0.7
					c0.5,0.1,0.8,0.6,0.7,1.1C46.1,51.6,45.7,51.9,45.3,51.9z M34.2,51.2c-0.5,0-0.9-0.3-0.9-0.8c-0.1-0.5,0.3-1,0.8-1
					c1.2-0.2,2.4-0.2,3.6-0.2c0,0,0,0,0,0l0.2,0c0.5,0,0.9,0.4,0.9,0.9c0,0.5-0.4,0.9-0.9,0.9l-0.2,0c0,0,0,0,0,0
					c-1.1,0-2.3,0.1-3.4,0.2C34.3,51.2,34.2,51.2,34.2,51.2z"/>
			</g>
			<g>
				<path class="st5" d="M108.7,60.8c-0.3,0-0.6-0.1-0.8-0.4c-0.3-0.4-0.2-1,0.2-1.3c0.5-0.4,1-0.7,1.5-1.1c0.4-0.3,1-0.2,1.3,0.2
					c0.3,0.4,0.2,1-0.2,1.3c-0.5,0.4-1,0.8-1.5,1.1C109.1,60.7,108.9,60.8,108.7,60.8z"/>
			</g>
		</g>
	</g>
</g>
</svg>
