<?xml version="1.0" encoding="UTF-8"?>
<svg id="Capa_1" data-name="Capa 1" xmlns="http://www.w3.org/2000/svg" version="1.1" viewBox="0 0 508.2 403.9">
  <defs>
    <style>
      .cls-1 {
        stroke-width: 5.2px;
      }

      .cls-1, .cls-2, .cls-3, .cls-4, .cls-5, .cls-6, .cls-7, .cls-8, .cls-9, .cls-10, .cls-11, .cls-12, .cls-13, .cls-14, .cls-15, .cls-16, .cls-17, .cls-18, .cls-19, .cls-20, .cls-21, .cls-22, .cls-23, .cls-24, .cls-25, .cls-26, .cls-27, .cls-28, .cls-29, .cls-30, .cls-31, .cls-32, .cls-33, .cls-34, .cls-35, .cls-36, .cls-37, .cls-38, .cls-39, .cls-40, .cls-41, .cls-42, .cls-43, .cls-44, .cls-45, .cls-46, .cls-47, .cls-48, .cls-49, .cls-50, .cls-51, .cls-52, .cls-53, .cls-54, .cls-55, .cls-56, .cls-57, .cls-58, .cls-59, .cls-60, .cls-61, .cls-62, .cls-63, .cls-64, .cls-65, .cls-66, .cls-67, .cls-68, .cls-69, .cls-70, .cls-71, .cls-72, .cls-73, .cls-74, .cls-75, .cls-76, .cls-77, .cls-78, .cls-79, .cls-80, .cls-81, .cls-82, .cls-83, .cls-84, .cls-85, .cls-86, .cls-87, .cls-88, .cls-89, .cls-90, .cls-91, .cls-92, .cls-93, .cls-94, .cls-95, .cls-96 {
        fill: none;
        stroke-linecap: round;
        stroke-linejoin: round;
      }

      .cls-1, .cls-15, .cls-38, .cls-43, .cls-66, .cls-95 {
        stroke: #bdbcbc;
      }

      .cls-2, .cls-5 {
        stroke-width: 3.3px;
      }

      .cls-2, .cls-27, .cls-51, .cls-81, .cls-85, .cls-94 {
        stroke: #dadada;
      }

      .cls-3 {
        stroke-width: 4.7px;
      }

      .cls-3, .cls-19, .cls-31, .cls-52, .cls-61, .cls-75 {
        stroke: #a8a8a7;
      }

      .cls-4, .cls-32, .cls-42, .cls-73, .cls-79, .cls-86 {
        stroke: #b2b2b2;
      }

      .cls-4, .cls-93 {
        stroke-width: 7.2px;
      }

      .cls-5 {
        stroke: #f08288;
      }

      .cls-6 {
        stroke: #e13440;
      }

      .cls-6, .cls-43 {
        stroke-width: 4.8px;
      }

      .cls-7 {
        stroke: #a1daf8;
      }

      .cls-7, .cls-28 {
        stroke-width: 3.9px;
      }

      .cls-8, .cls-25, .cls-29, .cls-33, .cls-76, .cls-77 {
        stroke: #c6c6c6;
      }

      .cls-8, .cls-46 {
        stroke-width: 2.8px;
      }

      .cls-9 {
        stroke: #0bbbef;
      }

      .cls-9, .cls-29 {
        stroke-width: 5.9px;
      }

      .cls-10 {
        stroke: #009fe3;
      }

      .cls-10, .cls-31 {
        stroke-width: 7.8px;
      }

      .cls-11 {
        stroke-width: 2.2px;
      }

      .cls-11, .cls-82 {
        stroke: #ffed00;
      }

      .cls-12, .cls-14 {
        stroke: #fff9c7;
      }

      .cls-12, .cls-47 {
        stroke-width: 1.9px;
      }

      .cls-13, .cls-72 {
        stroke: #fff042;
      }

      .cls-13, .cls-73 {
        stroke-width: 3.4px;
      }

      .cls-14 {
        stroke-width: 1.1px;
      }

      .cls-15 {
        stroke-width: 3.6px;
      }

      .cls-16, .cls-67 {
        stroke: #fffdee;
      }

      .cls-16, .cls-89 {
        stroke-width: 1.3px;
      }

      .cls-17 {
        stroke: #5bc5f2;
      }

      .cls-17, .cls-64 {
        stroke-width: 5.2px;
      }

      .cls-18 {
        stroke-width: 1.5px;
      }

      .cls-18, .cls-37 {
        stroke: #fff59b;
      }

      .cls-19, .cls-82 {
        stroke-width: 3.8px;
      }

      .cls-20 {
        stroke-width: 2.1px;
      }

      .cls-20, .cls-40, .cls-44, .cls-56, .cls-88, .cls-89 {
        stroke: #f6f6f6;
      }

      .cls-21 {
        stroke: #f298a3;
      }

      .cls-21, .cls-91 {
        stroke-width: 2.9px;
      }

      .cls-22 {
        stroke-width: 2.4px;
      }

      .cls-22, .cls-28, .cls-47, .cls-59, .cls-91, .cls-96 {
        stroke: #e3e3e3;
      }

      .cls-23 {
        stroke-width: 1.6px;
      }

      .cls-23, .cls-26, .cls-34, .cls-36, .cls-55, .cls-58 {
        stroke: #eaf6fe;
      }

      .cls-24 {
        stroke: #d4edfc;
      }

      .cls-24, .cls-56 {
        stroke-width: 2.6px;
      }

      .cls-25 {
        stroke-width: 3.2px;
      }

      .cls-26 {
        stroke-width: 1.4px;
      }

      .cls-27 {
        stroke-width: 2.8px;
      }

      .cls-30 {
        stroke: #f5aeb3;
      }

      .cls-30, .cls-71 {
        stroke-width: 2.4px;
      }

      .cls-32 {
        stroke-width: 5.7px;
      }

      .cls-33 {
        stroke-width: 3.5px;
      }

      .cls-34 {
        stroke-width: .9px;
      }

      .cls-35, .cls-69 {
        stroke: #fffbdc;
      }

      .cls-35, .cls-70 {
        stroke-width: 1.6px;
      }

      .cls-36 {
        stroke-width: 1.2px;
      }

      .cls-37, .cls-62 {
        stroke-width: 2.5px;
      }

      .cls-38 {
        stroke-width: 3.9px;
      }

      .cls-39 {
        stroke: #bce4fa;
      }

      .cls-39, .cls-84 {
        stroke-width: 3.3px;
      }

      .cls-40 {
        stroke-width: 1.4px;
      }

      .cls-41 {
        stroke: #be1622;
      }

      .cls-41, .cls-75 {
        stroke-width: 5.7px;
      }

      .cls-42 {
        stroke-width: 4px;
      }

      .cls-44 {
        stroke-width: 1.6px;
      }

      .cls-45 {
        stroke: #e94550;
      }

      .cls-45, .cls-76 {
        stroke-width: 4.3px;
      }

      .cls-46, .cls-78 {
        stroke: #fff482;
      }

      .cls-48 {
        stroke-width: 4.1px;
      }

      .cls-48, .cls-49, .cls-62, .cls-64, .cls-68, .cls-83 {
        stroke: #d0d0d0;
      }

      .cls-49 {
        stroke-width: 3.2px;
      }

      .cls-50 {
        stroke: #83d0f5;
      }

      .cls-50, .cls-85 {
        stroke-width: 4.6px;
      }

      .cls-51 {
        stroke-width: 3.6px;
      }

      .cls-52 {
        stroke-width: 6.2px;
      }

      .cls-53 {
        stroke: #00b1eb;
      }

      .cls-53, .cls-95 {
        stroke-width: 6.5px;
      }

      .cls-54 {
        stroke-width: 1.8px;
      }

      .cls-54, .cls-90 {
        stroke: #fff265;
      }

      .cls-55 {
        stroke-width: 2px;
      }

      .cls-57 {
        stroke-width: 1.8px;
      }

      .cls-57, .cls-65, .cls-70, .cls-71, .cls-74, .cls-84 {
        stroke: #ededed;
      }

      .cls-58 {
        stroke-width: 1.1px;
      }

      .cls-59 {
        stroke-width: 3.1px;
      }

      .cls-60 {
        stroke: #f8c4bf;
      }

      .cls-60, .cls-88 {
        stroke-width: 1.9px;
      }

      .cls-61 {
        stroke-width: 4.3px;
      }

      .cls-63 {
        stroke: #ed696a;
      }

      .cls-63, .cls-83 {
        stroke-width: 3.8px;
      }

      .cls-65 {
        stroke-width: 2.6px;
      }

      .cls-66, .cls-90 {
        stroke-width: 3.1px;
      }

      .cls-67 {
        stroke-width: .7px;
      }

      .cls-68 {
        stroke-width: 2.9px;
      }

      .cls-69 {
        stroke-width: .9px;
      }

      .cls-72 {
        stroke-width: 2px;
      }

      .cls-74 {
        stroke-width: 2px;
      }

      .cls-77 {
        stroke-width: 4.7px;
      }

      .cls-78 {
        stroke-width: 1.6px;
      }

      .cls-79, .cls-80 {
        stroke-width: 5.2px;
      }

      .cls-80 {
        stroke: #cc1f34;
      }

      .cls-81 {
        stroke-width: 2.5px;
      }

      .cls-86 {
        stroke-width: 4.3px;
      }

      .cls-87, .cls-92 {
        stroke: #fff7b2;
      }

      .cls-87, .cls-94 {
        stroke-width: 2.2px;
      }

      .cls-92 {
        stroke-width: 1.3px;
      }

      .cls-93 {
        stroke: #00a7e7;
      }

      .cls-96 {
        stroke-width: 2.2px;
      }
    </style>
  </defs>
  <g>
    <g>
      <g>
        <g>
          <path class="cls-61" d="M337.2,314.9c-1.7,5.6-7.7,10.1-13.2,10.1h0c-5.6,0-8.7-4.5-7.1-10.1l2.5-8.6c1.6-5.6,7.6-10.1,13.3-10.1h0c5.7,0,9,4.8,7.3,10.3l-2.8,8.3Z"/>
          <path class="cls-61" d="M343.6,295.4l-6.6,20-1.5,4.5s-1.9,5,3.9,5h0c2.9,0,6.1-2.4,7-5.3"/>
        </g>
        <g>
          <path class="cls-61" d="M266.3,316.4c-2.7,6.9-7.3,8.8-12.9,8.8h0c-5.7,0-8.9-4.6-7.2-10.2l2.6-8.7c1.7-5.7,7.7-10.2,13.6-10.2h0c5.8,0,9.1,3.9,7.8,8.7-1.3,4.8-4.7,5.5-10.5,5.5h-12.1"/>
          <path class="cls-61" d="M237.5,325.2h0c3,0,6.2-2.4,7.2-5.4l1.5-4.6"/>
        </g>
        <g>
          <g>
            <path class="cls-61" d="M200.4,314.3c-1.9,6-8.3,10.9-14.3,10.9h0c-6,0-9.5-4.9-7.7-10.9l2.7-9.3c1.8-6,8.2-10.9,14.4-10.9h0c6.2,0,9.7,4.9,7.8,10.9"/>
            <path class="cls-61" d="M165.1,319.4c-.9,3.2.9,5.8,4.1,5.8h0c3.2,0,6.4-2.5,7.6-5.8l1.5-4.9"/>
          </g>
          <line class="cls-61" x1="177.3" y1="318" x2="177.9" y2="316.1"/>
        </g>
        <g>
          <path class="cls-61" d="M218,315.5c.3-1.2,2.6-8.2,2.6-8.2,1.6-5.6,7.6-10.1,13.3-10.1s9,4.5,7.2,10.1c0,0-5.8,17.3-6.1,18.2"/>
          <path class="cls-61" d="M224.6,294.5l-8.1,25.9.2-.7c-.9,3-3.9,5.4-6.8,5.4h0"/>
        </g>
        <g>
          <path class="cls-61" d="M271.6,314.2c.3-1.2,2.5-8.4,2.5-8.4,1.6-5.6,7.6-10.1,13.3-10.1s9,4.5,7.2,10.1c0,0-6.2,18.3-6.5,19.2"/>
          <line class="cls-61" x1="278.2" y1="292.9" x2="268.1" y2="325.3"/>
          <path class="cls-61" d="M291.7,314.2c.3-1.2,3-8.8,3-8.8,1.6-5.6,7.3-9.7,13.1-9.7s9,4.5,7.2,10.1c0,0-3.4,9.9-3.7,10.7,0,0-3.2,7.9,3.8,7.9"/>
        </g>
        <g>
          <path class="cls-61" d="M205.8,319c-1.1,3.4-4.5,6.3-7.9,6.3h0"/>
          <line class="cls-61" x1="211.6" y1="299.8" x2="205.8" y2="318.9"/>
          <line class="cls-61" x1="213.6" y1="293.8" x2="212.8" y2="296.3"/>
          <path class="cls-61" d="M205.8,318.9c-1,3.4,1,6.2,4.4,6.2h0"/>
        </g>
      </g>
      <g>
        <g>
          <path class="cls-42" d="M337.2,314.9c-1.7,5.6-7.7,10.1-13.2,10.1h0c-5.6,0-8.7-4.5-7.1-10.1l2.5-8.6c1.6-5.6,7.6-10.1,13.3-10.1h0c5.7,0,9,4.8,7.3,10.3l-2.8,8.3Z"/>
          <path class="cls-42" d="M343.6,295.4l-6.6,20-1.5,4.5s-1.9,5,3.9,5h0c2.9,0,6.1-2.4,7-5.3"/>
        </g>
        <g>
          <path class="cls-42" d="M266.3,316.4c-2.7,6.9-7.3,8.8-12.9,8.8h0c-5.7,0-8.9-4.6-7.2-10.2l2.6-8.7c1.7-5.7,7.7-10.2,13.6-10.2h0c5.8,0,9.1,3.9,7.8,8.7-1.3,4.8-4.7,5.5-10.5,5.5h-12.1"/>
          <path class="cls-42" d="M237.5,325.2h0c3,0,6.2-2.4,7.2-5.4l1.5-4.6"/>
        </g>
        <g>
          <g>
            <path class="cls-42" d="M200.4,314.3c-1.9,6-8.3,10.9-14.3,10.9h0c-6,0-9.5-4.9-7.7-10.9l2.7-9.3c1.8-6,8.2-10.9,14.4-10.9h0c6.2,0,9.7,4.9,7.8,10.9"/>
            <path class="cls-42" d="M165.1,319.4c-.9,3.2.9,5.8,4.1,5.8h0c3.2,0,6.4-2.5,7.6-5.8l1.5-4.9"/>
          </g>
          <line class="cls-42" x1="177.3" y1="318" x2="177.9" y2="316.1"/>
        </g>
        <g>
          <path class="cls-42" d="M218,315.5c.3-1.2,2.6-8.2,2.6-8.2,1.6-5.6,7.6-10.1,13.3-10.1s9,4.5,7.2,10.1c0,0-5.8,17.3-6.1,18.2"/>
          <path class="cls-42" d="M224.6,294.5l-8.1,25.9.2-.7c-.9,3-3.9,5.4-6.8,5.4h0"/>
        </g>
        <g>
          <path class="cls-42" d="M271.6,314.2c.3-1.2,2.5-8.4,2.5-8.4,1.6-5.6,7.6-10.1,13.3-10.1s9,4.5,7.2,10.1c0,0-6.2,18.3-6.5,19.2"/>
          <line class="cls-42" x1="278.2" y1="292.9" x2="268.1" y2="325.3"/>
          <path class="cls-42" d="M291.7,314.2c.3-1.2,3-8.8,3-8.8,1.6-5.6,7.3-9.7,13.1-9.7s9,4.5,7.2,10.1c0,0-3.4,9.9-3.7,10.7,0,0-3.2,7.9,3.8,7.9"/>
        </g>
        <g>
          <path class="cls-42" d="M205.8,319c-1.1,3.4-4.5,6.3-7.9,6.3h0"/>
          <line class="cls-42" x1="211.6" y1="299.8" x2="205.8" y2="318.9"/>
          <line class="cls-42" x1="213.6" y1="293.8" x2="212.8" y2="296.3"/>
          <path class="cls-42" d="M205.8,318.9c-1,3.4,1,6.2,4.4,6.2h0"/>
        </g>
      </g>
      <g>
        <g>
          <path class="cls-15" d="M337.2,314.9c-1.7,5.6-7.7,10.1-13.2,10.1h0c-5.6,0-8.7-4.5-7.1-10.1l2.5-8.6c1.6-5.6,7.6-10.1,13.3-10.1h0c5.7,0,9,4.8,7.3,10.3l-2.8,8.3Z"/>
          <path class="cls-15" d="M343.6,295.4l-6.6,20-1.5,4.5s-1.9,5,3.9,5h0c2.9,0,6.1-2.4,7-5.3"/>
        </g>
        <g>
          <path class="cls-15" d="M266.3,316.4c-2.7,6.9-7.3,8.8-12.9,8.8h0c-5.7,0-8.9-4.6-7.2-10.2l2.6-8.7c1.7-5.7,7.7-10.2,13.6-10.2h0c5.8,0,9.1,3.9,7.8,8.7-1.3,4.8-4.7,5.5-10.5,5.5h-12.1"/>
          <path class="cls-15" d="M237.5,325.2h0c3,0,6.2-2.4,7.2-5.4l1.5-4.6"/>
        </g>
        <g>
          <g>
            <path class="cls-15" d="M200.4,314.3c-1.9,6-8.3,10.9-14.3,10.9h0c-6,0-9.5-4.9-7.7-10.9l2.7-9.3c1.8-6,8.2-10.9,14.4-10.9h0c6.2,0,9.7,4.9,7.8,10.9"/>
            <path class="cls-15" d="M165.1,319.4c-.9,3.2.9,5.8,4.1,5.8h0c3.2,0,6.4-2.5,7.6-5.8l1.5-4.9"/>
          </g>
          <line class="cls-15" x1="177.3" y1="318" x2="177.9" y2="316.1"/>
        </g>
        <g>
          <path class="cls-15" d="M218,315.5c.3-1.2,2.6-8.2,2.6-8.2,1.6-5.6,7.6-10.1,13.3-10.1s9,4.5,7.2,10.1c0,0-5.8,17.3-6.1,18.2"/>
          <path class="cls-15" d="M224.6,294.5l-8.1,25.9.2-.7c-.9,3-3.9,5.4-6.8,5.4h0"/>
        </g>
        <g>
          <path class="cls-15" d="M271.6,314.2c.3-1.2,2.5-8.4,2.5-8.4,1.6-5.6,7.6-10.1,13.3-10.1s9,4.5,7.2,10.1c0,0-6.2,18.3-6.5,19.2"/>
          <line class="cls-15" x1="278.2" y1="292.9" x2="268.1" y2="325.3"/>
          <path class="cls-15" d="M291.7,314.2c.3-1.2,3-8.8,3-8.8,1.6-5.6,7.3-9.7,13.1-9.7s9,4.5,7.2,10.1c0,0-3.4,9.9-3.7,10.7,0,0-3.2,7.9,3.8,7.9"/>
        </g>
        <g>
          <path class="cls-15" d="M205.8,319c-1.1,3.4-4.5,6.3-7.9,6.3h0"/>
          <line class="cls-15" x1="211.6" y1="299.8" x2="205.8" y2="318.9"/>
          <line class="cls-15" x1="213.6" y1="293.8" x2="212.8" y2="296.3"/>
          <path class="cls-15" d="M205.8,318.9c-1,3.4,1,6.2,4.4,6.2h0"/>
        </g>
      </g>
      <g>
        <g>
          <path class="cls-25" d="M337.2,314.9c-1.7,5.6-7.7,10.1-13.2,10.1h0c-5.6,0-8.7-4.5-7.1-10.1l2.5-8.6c1.6-5.6,7.6-10.1,13.3-10.1h0c5.7,0,9,4.8,7.3,10.3l-2.8,8.3Z"/>
          <path class="cls-25" d="M343.6,295.4l-6.6,20-1.5,4.5s-1.9,5,3.9,5h0c2.9,0,6.1-2.4,7-5.3"/>
        </g>
        <g>
          <path class="cls-25" d="M266.3,316.4c-2.7,6.9-7.3,8.8-12.9,8.8h0c-5.7,0-8.9-4.6-7.2-10.2l2.6-8.7c1.7-5.7,7.7-10.2,13.6-10.2h0c5.8,0,9.1,3.9,7.8,8.7-1.3,4.8-4.7,5.5-10.5,5.5h-12.1"/>
          <path class="cls-25" d="M237.5,325.2h0c3,0,6.2-2.4,7.2-5.4l1.5-4.6"/>
        </g>
        <g>
          <g>
            <path class="cls-25" d="M200.4,314.3c-1.9,6-8.3,10.9-14.3,10.9h0c-6,0-9.5-4.9-7.7-10.9l2.7-9.3c1.8-6,8.2-10.9,14.4-10.9h0c6.2,0,9.7,4.9,7.8,10.9"/>
            <path class="cls-25" d="M165.1,319.4c-.9,3.2.9,5.8,4.1,5.8h0c3.2,0,6.4-2.5,7.6-5.8l1.5-4.9"/>
          </g>
          <line class="cls-25" x1="177.3" y1="318" x2="177.9" y2="316.1"/>
        </g>
        <g>
          <path class="cls-25" d="M218,315.5c.3-1.2,2.6-8.2,2.6-8.2,1.6-5.6,7.6-10.1,13.3-10.1s9,4.5,7.2,10.1c0,0-5.8,17.3-6.1,18.2"/>
          <path class="cls-25" d="M224.6,294.5l-8.1,25.9.2-.7c-.9,3-3.9,5.4-6.8,5.4h0"/>
        </g>
        <g>
          <path class="cls-25" d="M271.6,314.2c.3-1.2,2.5-8.4,2.5-8.4,1.6-5.6,7.6-10.1,13.3-10.1s9,4.5,7.2,10.1c0,0-6.2,18.3-6.5,19.2"/>
          <line class="cls-25" x1="278.2" y1="292.9" x2="268.1" y2="325.3"/>
          <path class="cls-25" d="M291.7,314.2c.3-1.2,3-8.8,3-8.8,1.6-5.6,7.3-9.7,13.1-9.7s9,4.5,7.2,10.1c0,0-3.4,9.9-3.7,10.7,0,0-3.2,7.9,3.8,7.9"/>
        </g>
        <g>
          <path class="cls-25" d="M205.8,319c-1.1,3.4-4.5,6.3-7.9,6.3h0"/>
          <line class="cls-25" x1="211.6" y1="299.8" x2="205.8" y2="318.9"/>
          <line class="cls-25" x1="213.6" y1="293.8" x2="212.8" y2="296.3"/>
          <path class="cls-25" d="M205.8,318.9c-1,3.4,1,6.2,4.4,6.2h0"/>
        </g>
      </g>
      <g>
        <g>
          <path class="cls-68" d="M337.2,314.9c-1.7,5.6-7.7,10.1-13.2,10.1h0c-5.6,0-8.7-4.5-7.1-10.1l2.5-8.6c1.6-5.6,7.6-10.1,13.3-10.1h0c5.7,0,9,4.8,7.3,10.3l-2.8,8.3Z"/>
          <path class="cls-68" d="M343.6,295.4l-6.6,20-1.5,4.5s-1.9,5,3.9,5h0c2.9,0,6.1-2.4,7-5.3"/>
        </g>
        <g>
          <path class="cls-68" d="M266.3,316.4c-2.7,6.9-7.3,8.8-12.9,8.8h0c-5.7,0-8.9-4.6-7.2-10.2l2.6-8.7c1.7-5.7,7.7-10.2,13.6-10.2h0c5.8,0,9.1,3.9,7.8,8.7-1.3,4.8-4.7,5.5-10.5,5.5h-12.1"/>
          <path class="cls-68" d="M237.5,325.2h0c3,0,6.2-2.4,7.2-5.4l1.5-4.6"/>
        </g>
        <g>
          <g>
            <path class="cls-68" d="M200.4,314.3c-1.9,6-8.3,10.9-14.3,10.9h0c-6,0-9.5-4.9-7.7-10.9l2.7-9.3c1.8-6,8.2-10.9,14.4-10.9h0c6.2,0,9.7,4.9,7.8,10.9"/>
            <path class="cls-68" d="M165.1,319.4c-.9,3.2.9,5.8,4.1,5.8h0c3.2,0,6.4-2.5,7.6-5.8l1.5-4.9"/>
          </g>
          <line class="cls-68" x1="177.3" y1="318" x2="177.9" y2="316.1"/>
        </g>
        <g>
          <path class="cls-68" d="M218,315.5c.3-1.2,2.6-8.2,2.6-8.2,1.6-5.6,7.6-10.1,13.3-10.1s9,4.5,7.2,10.1c0,0-5.8,17.3-6.1,18.2"/>
          <path class="cls-68" d="M224.6,294.5l-8.1,25.9.2-.7c-.9,3-3.9,5.4-6.8,5.4h0"/>
        </g>
        <g>
          <path class="cls-68" d="M271.6,314.2c.3-1.2,2.5-8.4,2.5-8.4,1.6-5.6,7.6-10.1,13.3-10.1s9,4.5,7.2,10.1c0,0-6.2,18.3-6.5,19.2"/>
          <line class="cls-68" x1="278.2" y1="292.9" x2="268.1" y2="325.3"/>
          <path class="cls-68" d="M291.7,314.2c.3-1.2,3-8.8,3-8.8,1.6-5.6,7.3-9.7,13.1-9.7s9,4.5,7.2,10.1c0,0-3.4,9.9-3.7,10.7,0,0-3.2,7.9,3.8,7.9"/>
        </g>
        <g>
          <path class="cls-68" d="M205.8,319c-1.1,3.4-4.5,6.3-7.9,6.3h0"/>
          <line class="cls-68" x1="211.6" y1="299.8" x2="205.8" y2="318.9"/>
          <line class="cls-68" x1="213.6" y1="293.8" x2="212.8" y2="296.3"/>
          <path class="cls-68" d="M205.8,318.9c-1,3.4,1,6.2,4.4,6.2h0"/>
        </g>
      </g>
      <g>
        <g>
          <path class="cls-81" d="M337.2,314.9c-1.7,5.6-7.7,10.1-13.2,10.1h0c-5.6,0-8.7-4.5-7.1-10.1l2.5-8.6c1.6-5.6,7.6-10.1,13.3-10.1h0c5.7,0,9,4.8,7.3,10.3l-2.8,8.3Z"/>
          <path class="cls-81" d="M343.6,295.4l-6.6,20-1.5,4.5s-1.9,5,3.9,5h0c2.9,0,6.1-2.4,7-5.3"/>
        </g>
        <g>
          <path class="cls-81" d="M266.3,316.4c-2.7,6.9-7.3,8.8-12.9,8.8h0c-5.7,0-8.9-4.6-7.2-10.2l2.6-8.7c1.7-5.7,7.7-10.2,13.6-10.2h0c5.8,0,9.1,3.9,7.8,8.7-1.3,4.8-4.7,5.5-10.5,5.5h-12.1"/>
          <path class="cls-81" d="M237.5,325.2h0c3,0,6.2-2.4,7.2-5.4l1.5-4.6"/>
        </g>
        <g>
          <g>
            <path class="cls-81" d="M200.4,314.3c-1.9,6-8.3,10.9-14.3,10.9h0c-6,0-9.5-4.9-7.7-10.9l2.7-9.3c1.8-6,8.2-10.9,14.4-10.9h0c6.2,0,9.7,4.9,7.8,10.9"/>
            <path class="cls-81" d="M165.1,319.4c-.9,3.2.9,5.8,4.1,5.8h0c3.2,0,6.4-2.5,7.6-5.8l1.5-4.9"/>
          </g>
          <line class="cls-81" x1="177.3" y1="318" x2="177.9" y2="316.1"/>
        </g>
        <g>
          <path class="cls-81" d="M218,315.5c.3-1.2,2.6-8.2,2.6-8.2,1.6-5.6,7.6-10.1,13.3-10.1s9,4.5,7.2,10.1c0,0-5.8,17.3-6.1,18.2"/>
          <path class="cls-81" d="M224.6,294.5l-8.1,25.9.2-.7c-.9,3-3.9,5.4-6.8,5.4h0"/>
        </g>
        <g>
          <path class="cls-81" d="M271.6,314.2c.3-1.2,2.5-8.4,2.5-8.4,1.6-5.6,7.6-10.1,13.3-10.1s9,4.5,7.2,10.1c0,0-6.2,18.3-6.5,19.2"/>
          <line class="cls-81" x1="278.2" y1="292.9" x2="268.1" y2="325.3"/>
          <path class="cls-81" d="M291.7,314.2c.3-1.2,3-8.8,3-8.8,1.6-5.6,7.3-9.7,13.1-9.7s9,4.5,7.2,10.1c0,0-3.4,9.9-3.7,10.7,0,0-3.2,7.9,3.8,7.9"/>
        </g>
        <g>
          <path class="cls-81" d="M205.8,319c-1.1,3.4-4.5,6.3-7.9,6.3h0"/>
          <line class="cls-81" x1="211.6" y1="299.8" x2="205.8" y2="318.9"/>
          <line class="cls-81" x1="213.6" y1="293.8" x2="212.8" y2="296.3"/>
          <path class="cls-81" d="M205.8,318.9c-1,3.4,1,6.2,4.4,6.2h0"/>
        </g>
      </g>
      <g>
        <g>
          <path class="cls-96" d="M337.2,314.9c-1.7,5.6-7.7,10.1-13.2,10.1h0c-5.6,0-8.7-4.5-7.1-10.1l2.5-8.6c1.6-5.6,7.6-10.1,13.3-10.1h0c5.7,0,9,4.8,7.3,10.3l-2.8,8.3Z"/>
          <path class="cls-96" d="M343.6,295.4l-6.6,20-1.5,4.5s-1.9,5,3.9,5h0c2.9,0,6.1-2.4,7-5.3"/>
        </g>
        <g>
          <path class="cls-96" d="M266.3,316.4c-2.7,6.9-7.3,8.8-12.9,8.8h0c-5.7,0-8.9-4.6-7.2-10.2l2.6-8.7c1.7-5.7,7.7-10.2,13.6-10.2h0c5.8,0,9.1,3.9,7.8,8.7-1.3,4.8-4.7,5.5-10.5,5.5h-12.1"/>
          <path class="cls-96" d="M237.5,325.2h0c3,0,6.2-2.4,7.2-5.4l1.5-4.6"/>
        </g>
        <g>
          <g>
            <path class="cls-96" d="M200.4,314.3c-1.9,6-8.3,10.9-14.3,10.9h0c-6,0-9.5-4.9-7.7-10.9l2.7-9.3c1.8-6,8.2-10.9,14.4-10.9h0c6.2,0,9.7,4.9,7.8,10.9"/>
            <path class="cls-96" d="M165.1,319.4c-.9,3.2.9,5.8,4.1,5.8h0c3.2,0,6.4-2.5,7.6-5.8l1.5-4.9"/>
          </g>
          <line class="cls-96" x1="177.3" y1="318" x2="177.9" y2="316.1"/>
        </g>
        <g>
          <path class="cls-96" d="M218,315.5c.3-1.2,2.6-8.2,2.6-8.2,1.6-5.6,7.6-10.1,13.3-10.1s9,4.5,7.2,10.1c0,0-5.8,17.3-6.1,18.2"/>
          <path class="cls-96" d="M224.6,294.5l-8.1,25.9.2-.7c-.9,3-3.9,5.4-6.8,5.4h0"/>
        </g>
        <g>
          <path class="cls-96" d="M271.6,314.2c.3-1.2,2.5-8.4,2.5-8.4,1.6-5.6,7.6-10.1,13.3-10.1s9,4.5,7.2,10.1c0,0-6.2,18.3-6.5,19.2"/>
          <line class="cls-96" x1="278.2" y1="292.9" x2="268.1" y2="325.3"/>
          <path class="cls-96" d="M291.7,314.2c.3-1.2,3-8.8,3-8.8,1.6-5.6,7.3-9.7,13.1-9.7s9,4.5,7.2,10.1c0,0-3.4,9.9-3.7,10.7,0,0-3.2,7.9,3.8,7.9"/>
        </g>
        <g>
          <path class="cls-96" d="M205.8,319c-1.1,3.4-4.5,6.3-7.9,6.3h0"/>
          <line class="cls-96" x1="211.6" y1="299.8" x2="205.8" y2="318.9"/>
          <line class="cls-96" x1="213.6" y1="293.8" x2="212.8" y2="296.3"/>
          <path class="cls-96" d="M205.8,318.9c-1,3.4,1,6.2,4.4,6.2h0"/>
        </g>
      </g>
      <g>
        <g>
          <path class="cls-57" d="M337.2,314.9c-1.7,5.6-7.7,10.1-13.2,10.1h0c-5.6,0-8.7-4.5-7.1-10.1l2.5-8.6c1.6-5.6,7.6-10.1,13.3-10.1h0c5.7,0,9,4.8,7.3,10.3l-2.8,8.3Z"/>
          <path class="cls-57" d="M343.6,295.4l-6.6,20-1.5,4.5s-1.9,5,3.9,5h0c2.9,0,6.1-2.4,7-5.3"/>
        </g>
        <g>
          <path class="cls-57" d="M266.3,316.4c-2.7,6.9-7.3,8.8-12.9,8.8h0c-5.7,0-8.9-4.6-7.2-10.2l2.6-8.7c1.7-5.7,7.7-10.2,13.6-10.2h0c5.8,0,9.1,3.9,7.8,8.7-1.3,4.8-4.7,5.5-10.5,5.5h-12.1"/>
          <path class="cls-57" d="M237.5,325.2h0c3,0,6.2-2.4,7.2-5.4l1.5-4.6"/>
        </g>
        <g>
          <g>
            <path class="cls-57" d="M200.4,314.3c-1.9,6-8.3,10.9-14.3,10.9h0c-6,0-9.5-4.9-7.7-10.9l2.7-9.3c1.8-6,8.2-10.9,14.4-10.9h0c6.2,0,9.7,4.9,7.8,10.9"/>
            <path class="cls-57" d="M165.1,319.4c-.9,3.2.9,5.8,4.1,5.8h0c3.2,0,6.4-2.5,7.6-5.8l1.5-4.9"/>
          </g>
          <line class="cls-57" x1="177.3" y1="318" x2="177.9" y2="316.1"/>
        </g>
        <g>
          <path class="cls-57" d="M218,315.5c.3-1.2,2.6-8.2,2.6-8.2,1.6-5.6,7.6-10.1,13.3-10.1s9,4.5,7.2,10.1c0,0-5.8,17.3-6.1,18.2"/>
          <path class="cls-57" d="M224.6,294.5l-8.1,25.9.2-.7c-.9,3-3.9,5.4-6.8,5.4h0"/>
        </g>
        <g>
          <path class="cls-57" d="M271.6,314.2c.3-1.2,2.5-8.4,2.5-8.4,1.6-5.6,7.6-10.1,13.3-10.1s9,4.5,7.2,10.1c0,0-6.2,18.3-6.5,19.2"/>
          <line class="cls-57" x1="278.2" y1="292.9" x2="268.1" y2="325.3"/>
          <path class="cls-57" d="M291.7,314.2c.3-1.2,3-8.8,3-8.8,1.6-5.6,7.3-9.7,13.1-9.7s9,4.5,7.2,10.1c0,0-3.4,9.9-3.7,10.7,0,0-3.2,7.9,3.8,7.9"/>
        </g>
        <g>
          <path class="cls-57" d="M205.8,319c-1.1,3.4-4.5,6.3-7.9,6.3h0"/>
          <line class="cls-57" x1="211.6" y1="299.8" x2="205.8" y2="318.9"/>
          <line class="cls-57" x1="213.6" y1="293.8" x2="212.8" y2="296.3"/>
          <path class="cls-57" d="M205.8,318.9c-1,3.4,1,6.2,4.4,6.2h0"/>
        </g>
      </g>
      <g>
        <g>
          <path class="cls-40" d="M337.2,314.9c-1.7,5.6-7.7,10.1-13.2,10.1h0c-5.6,0-8.7-4.5-7.1-10.1l2.5-8.6c1.6-5.6,7.6-10.1,13.3-10.1h0c5.7,0,9,4.8,7.3,10.3l-2.8,8.3Z"/>
          <path class="cls-40" d="M343.6,295.4l-6.6,20-1.5,4.5s-1.9,5,3.9,5h0c2.9,0,6.1-2.4,7-5.3"/>
        </g>
        <g>
          <path class="cls-40" d="M266.3,316.4c-2.7,6.9-7.3,8.8-12.9,8.8h0c-5.7,0-8.9-4.6-7.2-10.2l2.6-8.7c1.7-5.7,7.7-10.2,13.6-10.2h0c5.8,0,9.1,3.9,7.8,8.7-1.3,4.8-4.7,5.5-10.5,5.5h-12.1"/>
          <path class="cls-40" d="M237.5,325.2h0c3,0,6.2-2.4,7.2-5.4l1.5-4.6"/>
        </g>
        <g>
          <g>
            <path class="cls-40" d="M200.4,314.3c-1.9,6-8.3,10.9-14.3,10.9h0c-6,0-9.5-4.9-7.7-10.9l2.7-9.3c1.8-6,8.2-10.9,14.4-10.9h0c6.2,0,9.7,4.9,7.8,10.9"/>
            <path class="cls-40" d="M165.1,319.4c-.9,3.2.9,5.8,4.1,5.8h0c3.2,0,6.4-2.5,7.6-5.8l1.5-4.9"/>
          </g>
          <line class="cls-40" x1="177.3" y1="318" x2="177.9" y2="316.1"/>
        </g>
        <g>
          <path class="cls-40" d="M218,315.5c.3-1.2,2.6-8.2,2.6-8.2,1.6-5.6,7.6-10.1,13.3-10.1s9,4.5,7.2,10.1c0,0-5.8,17.3-6.1,18.2"/>
          <path class="cls-40" d="M224.6,294.5l-8.1,25.9.2-.7c-.9,3-3.9,5.4-6.8,5.4h0"/>
        </g>
        <g>
          <path class="cls-40" d="M271.6,314.2c.3-1.2,2.5-8.4,2.5-8.4,1.6-5.6,7.6-10.1,13.3-10.1s9,4.5,7.2,10.1c0,0-6.2,18.3-6.5,19.2"/>
          <line class="cls-40" x1="278.2" y1="292.9" x2="268.1" y2="325.3"/>
          <path class="cls-40" d="M291.7,314.2c.3-1.2,3-8.8,3-8.8,1.6-5.6,7.3-9.7,13.1-9.7s9,4.5,7.2,10.1c0,0-3.4,9.9-3.7,10.7,0,0-3.2,7.9,3.8,7.9"/>
        </g>
        <g>
          <path class="cls-40" d="M205.8,319c-1.1,3.4-4.5,6.3-7.9,6.3h0"/>
          <line class="cls-40" x1="211.6" y1="299.8" x2="205.8" y2="318.9"/>
          <line class="cls-40" x1="213.6" y1="293.8" x2="212.8" y2="296.3"/>
          <path class="cls-40" d="M205.8,318.9c-1,3.4,1,6.2,4.4,6.2h0"/>
        </g>
      </g>
      <g>
        <g>
          <path class="cls-58" d="M337.2,314.9c-1.7,5.6-7.7,10.1-13.2,10.1h0c-5.6,0-8.7-4.5-7.1-10.1l2.5-8.6c1.6-5.6,7.6-10.1,13.3-10.1h0c5.7,0,9,4.8,7.3,10.3l-2.8,8.3Z"/>
          <path class="cls-58" d="M343.6,295.4l-6.6,20-1.5,4.5s-1.9,5,3.9,5h0c2.9,0,6.1-2.4,7-5.3"/>
        </g>
        <g>
          <path class="cls-58" d="M266.3,316.4c-2.7,6.9-7.3,8.8-12.9,8.8h0c-5.7,0-8.9-4.6-7.2-10.2l2.6-8.7c1.7-5.7,7.7-10.2,13.6-10.2h0c5.8,0,9.1,3.9,7.8,8.7-1.3,4.8-4.7,5.5-10.5,5.5h-12.1"/>
          <path class="cls-58" d="M237.5,325.2h0c3,0,6.2-2.4,7.2-5.4l1.5-4.6"/>
        </g>
        <g>
          <g>
            <path class="cls-58" d="M200.4,314.3c-1.9,6-8.3,10.9-14.3,10.9h0c-6,0-9.5-4.9-7.7-10.9l2.7-9.3c1.8-6,8.2-10.9,14.4-10.9h0c6.2,0,9.7,4.9,7.8,10.9"/>
            <path class="cls-58" d="M165.1,319.4c-.9,3.2.9,5.8,4.1,5.8h0c3.2,0,6.4-2.5,7.6-5.8l1.5-4.9"/>
          </g>
          <line class="cls-58" x1="177.3" y1="318" x2="177.9" y2="316.1"/>
        </g>
        <g>
          <path class="cls-58" d="M218,315.5c.3-1.2,2.6-8.2,2.6-8.2,1.6-5.6,7.6-10.1,13.3-10.1s9,4.5,7.2,10.1c0,0-5.8,17.3-6.1,18.2"/>
          <path class="cls-58" d="M224.6,294.5l-8.1,25.9.2-.7c-.9,3-3.9,5.4-6.8,5.4h0"/>
        </g>
        <g>
          <path class="cls-58" d="M271.6,314.2c.3-1.2,2.5-8.4,2.5-8.4,1.6-5.6,7.6-10.1,13.3-10.1s9,4.5,7.2,10.1c0,0-6.2,18.3-6.5,19.2"/>
          <line class="cls-58" x1="278.2" y1="292.9" x2="268.1" y2="325.3"/>
          <path class="cls-58" d="M291.7,314.2c.3-1.2,3-8.8,3-8.8,1.6-5.6,7.3-9.7,13.1-9.7s9,4.5,7.2,10.1c0,0-3.4,9.9-3.7,10.7,0,0-3.2,7.9,3.8,7.9"/>
        </g>
        <g>
          <path class="cls-58" d="M205.8,319c-1.1,3.4-4.5,6.3-7.9,6.3h0"/>
          <line class="cls-58" x1="211.6" y1="299.8" x2="205.8" y2="318.9"/>
          <line class="cls-58" x1="213.6" y1="293.8" x2="212.8" y2="296.3"/>
          <path class="cls-58" d="M205.8,318.9c-1,3.4,1,6.2,4.4,6.2h0"/>
        </g>
      </g>
    </g>
    <g>
      <g>
        <polygon class="cls-11" points="210.9 337.9 216.9 339.7 221.7 335.7 221.9 341.9 227.2 345.3 221.3 347.4 219.7 353.5 215.9 348.5 209.7 348.9 213.1 343.7 210.9 337.9"/>
        <polygon class="cls-72" points="210.9 337.9 216.9 339.7 221.7 335.7 221.9 341.9 227.2 345.3 221.3 347.4 219.7 353.5 215.9 348.5 209.7 348.9 213.1 343.7 210.9 337.9"/>
        <polygon class="cls-54" points="210.9 337.9 216.9 339.7 221.7 335.7 221.9 341.9 227.2 345.3 221.3 347.4 219.7 353.5 215.9 348.5 209.7 348.9 213.1 343.7 210.9 337.9"/>
        <polygon class="cls-78" points="210.9 337.9 216.9 339.7 221.7 335.7 221.9 341.9 227.2 345.3 221.3 347.4 219.7 353.5 215.9 348.5 209.7 348.9 213.1 343.7 210.9 337.9"/>
        <polygon class="cls-18" points="210.9 337.9 216.9 339.7 221.7 335.7 221.9 341.9 227.2 345.3 221.3 347.4 219.7 353.5 215.9 348.5 209.7 348.9 213.1 343.7 210.9 337.9"/>
        <polygon class="cls-92" points="210.9 337.9 216.9 339.7 221.7 335.7 221.9 341.9 227.2 345.3 221.3 347.4 219.7 353.5 215.9 348.5 209.7 348.9 213.1 343.7 210.9 337.9"/>
        <polygon class="cls-14" points="210.9 337.9 216.9 339.7 221.7 335.7 221.9 341.9 227.2 345.3 221.3 347.4 219.7 353.5 215.9 348.5 209.7 348.9 213.1 343.7 210.9 337.9"/>
        <polygon class="cls-69" points="210.9 337.9 216.9 339.7 221.7 335.7 221.9 341.9 227.2 345.3 221.3 347.4 219.7 353.5 215.9 348.5 209.7 348.9 213.1 343.7 210.9 337.9"/>
        <polygon class="cls-67" points="210.9 337.9 216.9 339.7 221.7 335.7 221.9 341.9 227.2 345.3 221.3 347.4 219.7 353.5 215.9 348.5 209.7 348.9 213.1 343.7 210.9 337.9"/>
      </g>
      <g>
        <polygon class="cls-11" points="249.9 337.9 255.9 339.7 260.7 335.7 260.9 341.9 266.2 345.3 260.3 347.4 258.8 353.5 254.9 348.5 248.7 348.9 252.2 343.7 249.9 337.9"/>
        <polygon class="cls-72" points="249.9 337.9 255.9 339.7 260.7 335.7 260.9 341.9 266.2 345.3 260.3 347.4 258.8 353.5 254.9 348.5 248.7 348.9 252.2 343.7 249.9 337.9"/>
        <polygon class="cls-54" points="249.9 337.9 255.9 339.7 260.7 335.7 260.9 341.9 266.2 345.3 260.3 347.4 258.8 353.5 254.9 348.5 248.7 348.9 252.2 343.7 249.9 337.9"/>
        <polygon class="cls-78" points="249.9 337.9 255.9 339.7 260.7 335.7 260.9 341.9 266.2 345.3 260.3 347.4 258.8 353.5 254.9 348.5 248.7 348.9 252.2 343.7 249.9 337.9"/>
        <polygon class="cls-18" points="249.9 337.9 255.9 339.7 260.7 335.7 260.9 341.9 266.2 345.3 260.3 347.4 258.8 353.5 254.9 348.5 248.7 348.9 252.2 343.7 249.9 337.9"/>
        <polygon class="cls-92" points="249.9 337.9 255.9 339.7 260.7 335.7 260.9 341.9 266.2 345.3 260.3 347.4 258.8 353.5 254.9 348.5 248.7 348.9 252.2 343.7 249.9 337.9"/>
        <polygon class="cls-14" points="249.9 337.9 255.9 339.7 260.7 335.7 260.9 341.9 266.2 345.3 260.3 347.4 258.8 353.5 254.9 348.5 248.7 348.9 252.2 343.7 249.9 337.9"/>
        <polygon class="cls-69" points="249.9 337.9 255.9 339.7 260.7 335.7 260.9 341.9 266.2 345.3 260.3 347.4 258.8 353.5 254.9 348.5 248.7 348.9 252.2 343.7 249.9 337.9"/>
        <polygon class="cls-67" points="249.9 337.9 255.9 339.7 260.7 335.7 260.9 341.9 266.2 345.3 260.3 347.4 258.8 353.5 254.9 348.5 248.7 348.9 252.2 343.7 249.9 337.9"/>
      </g>
      <g>
        <polygon class="cls-11" points="289 337.9 295 339.7 299.8 335.7 300 341.9 305.3 345.3 299.4 347.4 297.8 353.5 294 348.5 287.8 348.9 291.2 343.7 289 337.9"/>
        <polygon class="cls-72" points="289 337.9 295 339.7 299.8 335.7 300 341.9 305.3 345.3 299.4 347.4 297.8 353.5 294 348.5 287.8 348.9 291.2 343.7 289 337.9"/>
        <polygon class="cls-54" points="289 337.9 295 339.7 299.8 335.7 300 341.9 305.3 345.3 299.4 347.4 297.8 353.5 294 348.5 287.8 348.9 291.2 343.7 289 337.9"/>
        <polygon class="cls-78" points="289 337.9 295 339.7 299.8 335.7 300 341.9 305.3 345.3 299.4 347.4 297.8 353.5 294 348.5 287.8 348.9 291.2 343.7 289 337.9"/>
        <polygon class="cls-18" points="289 337.9 295 339.7 299.8 335.7 300 341.9 305.3 345.3 299.4 347.4 297.8 353.5 294 348.5 287.8 348.9 291.2 343.7 289 337.9"/>
        <polygon class="cls-92" points="289 337.9 295 339.7 299.8 335.7 300 341.9 305.3 345.3 299.4 347.4 297.8 353.5 294 348.5 287.8 348.9 291.2 343.7 289 337.9"/>
        <polygon class="cls-14" points="289 337.9 295 339.7 299.8 335.7 300 341.9 305.3 345.3 299.4 347.4 297.8 353.5 294 348.5 287.8 348.9 291.2 343.7 289 337.9"/>
        <polygon class="cls-69" points="289 337.9 295 339.7 299.8 335.7 300 341.9 305.3 345.3 299.4 347.4 297.8 353.5 294 348.5 287.8 348.9 291.2 343.7 289 337.9"/>
        <polygon class="cls-67" points="289 337.9 295 339.7 299.8 335.7 300 341.9 305.3 345.3 299.4 347.4 297.8 353.5 294 348.5 287.8 348.9 291.2 343.7 289 337.9"/>
      </g>
    </g>
  </g>
  <g>
    <g>
      <g>
        <path class="cls-10" d="M199,175.1h158.6"/>
        <path class="cls-93" d="M199,175.1h158.6"/>
        <path class="cls-53" d="M199,175.1h158.6"/>
        <path class="cls-9" d="M199,175.1h158.6"/>
        <path class="cls-17" d="M199,175.1h158.6"/>
        <path class="cls-50" d="M199,175.1h158.6"/>
        <path class="cls-7" d="M199,175.1h158.6"/>
        <path class="cls-39" d="M199,175.1h158.6"/>
        <path class="cls-24" d="M199,175.1h158.6"/>
        <path class="cls-55" d="M199,175.1h158.6"/>
      </g>
      <g>
        <path class="cls-10" d="M359,258.6v10.6h-145"/>
        <path class="cls-93" d="M359,258.6v10.6h-145"/>
        <path class="cls-53" d="M359,258.6v10.6h-145"/>
        <path class="cls-9" d="M359,258.6v10.6h-145"/>
        <path class="cls-17" d="M359,258.6v10.6h-145"/>
        <path class="cls-50" d="M359,258.6v10.6h-145"/>
        <path class="cls-7" d="M359,258.6v10.6h-145"/>
        <path class="cls-39" d="M359,258.6v10.6h-145"/>
        <path class="cls-24" d="M359,258.6v10.6h-145"/>
        <path class="cls-55" d="M359,258.6v10.6h-145"/>
      </g>
      <g>
        <g>
          <g>
            <polygon class="cls-31" points="226.3 174.9 205.9 174.9 218.2 152.4 238.6 152.4 226.3 174.9"/>
            <polygon class="cls-31" points="264.2 174.9 243.7 174.9 256 152.4 276.5 152.4 264.2 174.9"/>
            <polygon class="cls-31" points="302 174.9 281.6 174.9 293.9 152.4 314.3 152.4 302 174.9"/>
            <polygon class="cls-31" points="339.9 174.9 319.4 174.9 331.7 152.4 352.2 152.4 339.9 174.9"/>
          </g>
          <g>
            <path class="cls-31" d="M198.2,175.1h160.8v-22.9h-138.2"/>
            <rect class="cls-31" x="195.1" y="115.2" width="160.3" height="22.9" transform="translate(-18.2 51.2) rotate(-10.3)"/>
          </g>
          <g>
            <polygon class="cls-31" points="226 147 205.9 150.6 213.9 126.3 234 122.7 226 147"/>
            <polygon class="cls-31" points="263.1 140.2 243 143.9 251.1 119.6 271.2 115.9 263.1 140.2"/>
            <polygon class="cls-31" points="300.3 133.5 280.2 137.1 288.2 112.8 308.3 109.2 300.3 133.5"/>
            <polygon class="cls-31" points="337.4 126.7 317.3 130.4 325.4 106.1 345.5 102.4 337.4 126.7"/>
          </g>
        </g>
        <g>
          <g>
            <polygon class="cls-4" points="226.3 174.9 205.9 174.9 218.2 152.4 238.6 152.4 226.3 174.9"/>
            <polygon class="cls-4" points="264.2 174.9 243.7 174.9 256 152.4 276.5 152.4 264.2 174.9"/>
            <polygon class="cls-4" points="302 174.9 281.6 174.9 293.9 152.4 314.3 152.4 302 174.9"/>
            <polygon class="cls-4" points="339.9 174.9 319.4 174.9 331.7 152.4 352.2 152.4 339.9 174.9"/>
          </g>
          <g>
            <path class="cls-4" d="M198.2,175.1h160.8v-22.9h-138.2"/>
            <rect class="cls-4" x="195.1" y="115.2" width="160.3" height="22.9" transform="translate(-18.2 51.2) rotate(-10.3)"/>
          </g>
          <g>
            <polygon class="cls-4" points="226 147 205.9 150.6 213.9 126.3 234 122.7 226 147"/>
            <polygon class="cls-4" points="263.1 140.2 243 143.9 251.1 119.6 271.2 115.9 263.1 140.2"/>
            <polygon class="cls-4" points="300.3 133.5 280.2 137.1 288.2 112.8 308.3 109.2 300.3 133.5"/>
            <polygon class="cls-4" points="337.4 126.7 317.3 130.4 325.4 106.1 345.5 102.4 337.4 126.7"/>
          </g>
        </g>
        <g>
          <g>
            <polygon class="cls-95" points="226.3 174.9 205.9 174.9 218.2 152.4 238.6 152.4 226.3 174.9"/>
            <polygon class="cls-95" points="264.2 174.9 243.7 174.9 256 152.4 276.5 152.4 264.2 174.9"/>
            <polygon class="cls-95" points="302 174.9 281.6 174.9 293.9 152.4 314.3 152.4 302 174.9"/>
            <polygon class="cls-95" points="339.9 174.9 319.4 174.9 331.7 152.4 352.2 152.4 339.9 174.9"/>
          </g>
          <g>
            <path class="cls-95" d="M198.2,175.1h160.8v-22.9h-138.2"/>
            <rect class="cls-95" x="195.1" y="115.2" width="160.3" height="22.9" transform="translate(-18.2 51.2) rotate(-10.3)"/>
          </g>
          <g>
            <polygon class="cls-95" points="226 147 205.9 150.6 213.9 126.3 234 122.7 226 147"/>
            <polygon class="cls-95" points="263.1 140.2 243 143.9 251.1 119.6 271.2 115.9 263.1 140.2"/>
            <polygon class="cls-95" points="300.3 133.5 280.2 137.1 288.2 112.8 308.3 109.2 300.3 133.5"/>
            <polygon class="cls-95" points="337.4 126.7 317.3 130.4 325.4 106.1 345.5 102.4 337.4 126.7"/>
          </g>
        </g>
        <g>
          <g>
            <polygon class="cls-29" points="226.3 174.9 205.9 174.9 218.2 152.4 238.6 152.4 226.3 174.9"/>
            <polygon class="cls-29" points="264.2 174.9 243.7 174.9 256 152.4 276.5 152.4 264.2 174.9"/>
            <polygon class="cls-29" points="302 174.9 281.6 174.9 293.9 152.4 314.3 152.4 302 174.9"/>
            <polygon class="cls-29" points="339.9 174.9 319.4 174.9 331.7 152.4 352.2 152.4 339.9 174.9"/>
          </g>
          <g>
            <path class="cls-29" d="M198.2,175.1h160.8v-22.9h-138.2"/>
            <rect class="cls-29" x="195.1" y="115.2" width="160.3" height="22.9" transform="translate(-18.2 51.2) rotate(-10.3)"/>
          </g>
          <g>
            <polygon class="cls-29" points="226 147 205.9 150.6 213.9 126.3 234 122.7 226 147"/>
            <polygon class="cls-29" points="263.1 140.2 243 143.9 251.1 119.6 271.2 115.9 263.1 140.2"/>
            <polygon class="cls-29" points="300.3 133.5 280.2 137.1 288.2 112.8 308.3 109.2 300.3 133.5"/>
            <polygon class="cls-29" points="337.4 126.7 317.3 130.4 325.4 106.1 345.5 102.4 337.4 126.7"/>
          </g>
        </g>
        <g>
          <g>
            <polygon class="cls-64" points="226.3 174.9 205.9 174.9 218.2 152.4 238.6 152.4 226.3 174.9"/>
            <polygon class="cls-64" points="264.2 174.9 243.7 174.9 256 152.4 276.5 152.4 264.2 174.9"/>
            <polygon class="cls-64" points="302 174.9 281.6 174.9 293.9 152.4 314.3 152.4 302 174.9"/>
            <polygon class="cls-64" points="339.9 174.9 319.4 174.9 331.7 152.4 352.2 152.4 339.9 174.9"/>
          </g>
          <g>
            <path class="cls-64" d="M198.2,175.1h160.8v-22.9h-138.2"/>
            <rect class="cls-64" x="195.1" y="115.2" width="160.3" height="22.9" transform="translate(-18.2 51.2) rotate(-10.3)"/>
          </g>
          <g>
            <polygon class="cls-64" points="226 147 205.9 150.6 213.9 126.3 234 122.7 226 147"/>
            <polygon class="cls-64" points="263.1 140.2 243 143.9 251.1 119.6 271.2 115.9 263.1 140.2"/>
            <polygon class="cls-64" points="300.3 133.5 280.2 137.1 288.2 112.8 308.3 109.2 300.3 133.5"/>
            <polygon class="cls-64" points="337.4 126.7 317.3 130.4 325.4 106.1 345.5 102.4 337.4 126.7"/>
          </g>
        </g>
        <g>
          <g>
            <polygon class="cls-85" points="226.3 174.9 205.9 174.9 218.2 152.4 238.6 152.4 226.3 174.9"/>
            <polygon class="cls-85" points="264.2 174.9 243.7 174.9 256 152.4 276.5 152.4 264.2 174.9"/>
            <polygon class="cls-85" points="302 174.9 281.6 174.9 293.9 152.4 314.3 152.4 302 174.9"/>
            <polygon class="cls-85" points="339.9 174.9 319.4 174.9 331.7 152.4 352.2 152.4 339.9 174.9"/>
          </g>
          <g>
            <path class="cls-85" d="M198.2,175.1h160.8v-22.9h-138.2"/>
            <rect class="cls-85" x="195.1" y="115.2" width="160.3" height="22.9" transform="translate(-18.2 51.2) rotate(-10.3)"/>
          </g>
          <g>
            <polygon class="cls-85" points="226 147 205.9 150.6 213.9 126.3 234 122.7 226 147"/>
            <polygon class="cls-85" points="263.1 140.2 243 143.9 251.1 119.6 271.2 115.9 263.1 140.2"/>
            <polygon class="cls-85" points="300.3 133.5 280.2 137.1 288.2 112.8 308.3 109.2 300.3 133.5"/>
            <polygon class="cls-85" points="337.4 126.7 317.3 130.4 325.4 106.1 345.5 102.4 337.4 126.7"/>
          </g>
        </g>
        <g>
          <g>
            <polygon class="cls-28" points="226.3 174.9 205.9 174.9 218.2 152.4 238.6 152.4 226.3 174.9"/>
            <polygon class="cls-28" points="264.2 174.9 243.7 174.9 256 152.4 276.5 152.4 264.2 174.9"/>
            <polygon class="cls-28" points="302 174.9 281.6 174.9 293.9 152.4 314.3 152.4 302 174.9"/>
            <polygon class="cls-28" points="339.9 174.9 319.4 174.9 331.7 152.4 352.2 152.4 339.9 174.9"/>
          </g>
          <g>
            <path class="cls-28" d="M198.2,175.1h160.8v-22.9h-138.2"/>
            <rect class="cls-28" x="195.1" y="115.2" width="160.3" height="22.9" transform="translate(-18.2 51.2) rotate(-10.3)"/>
          </g>
          <g>
            <polygon class="cls-28" points="226 147 205.9 150.6 213.9 126.3 234 122.7 226 147"/>
            <polygon class="cls-28" points="263.1 140.2 243 143.9 251.1 119.6 271.2 115.9 263.1 140.2"/>
            <polygon class="cls-28" points="300.3 133.5 280.2 137.1 288.2 112.8 308.3 109.2 300.3 133.5"/>
            <polygon class="cls-28" points="337.4 126.7 317.3 130.4 325.4 106.1 345.5 102.4 337.4 126.7"/>
          </g>
        </g>
        <g>
          <g>
            <polygon class="cls-84" points="226.3 174.9 205.9 174.9 218.2 152.4 238.6 152.4 226.3 174.9"/>
            <polygon class="cls-84" points="264.2 174.9 243.7 174.9 256 152.4 276.5 152.4 264.2 174.9"/>
            <polygon class="cls-84" points="302 174.9 281.6 174.9 293.9 152.4 314.3 152.4 302 174.9"/>
            <polygon class="cls-84" points="339.9 174.9 319.4 174.9 331.7 152.4 352.2 152.4 339.9 174.9"/>
          </g>
          <g>
            <path class="cls-84" d="M198.2,175.1h160.8v-22.9h-138.2"/>
            <rect class="cls-84" x="195.1" y="115.2" width="160.3" height="22.9" transform="translate(-18.2 51.2) rotate(-10.3)"/>
          </g>
          <g>
            <polygon class="cls-84" points="226 147 205.9 150.6 213.9 126.3 234 122.7 226 147"/>
            <polygon class="cls-84" points="263.1 140.2 243 143.9 251.1 119.6 271.2 115.9 263.1 140.2"/>
            <polygon class="cls-84" points="300.3 133.5 280.2 137.1 288.2 112.8 308.3 109.2 300.3 133.5"/>
            <polygon class="cls-84" points="337.4 126.7 317.3 130.4 325.4 106.1 345.5 102.4 337.4 126.7"/>
          </g>
        </g>
        <g>
          <g>
            <polygon class="cls-56" points="226.3 174.9 205.9 174.9 218.2 152.4 238.6 152.4 226.3 174.9"/>
            <polygon class="cls-56" points="264.2 174.9 243.7 174.9 256 152.4 276.5 152.4 264.2 174.9"/>
            <polygon class="cls-56" points="302 174.9 281.6 174.9 293.9 152.4 314.3 152.4 302 174.9"/>
            <polygon class="cls-56" points="339.9 174.9 319.4 174.9 331.7 152.4 352.2 152.4 339.9 174.9"/>
          </g>
          <g>
            <path class="cls-56" d="M198.2,175.1h160.8v-22.9h-138.2"/>
            <rect class="cls-56" x="195.1" y="115.2" width="160.3" height="22.9" transform="translate(-18.2 51.2) rotate(-10.3)"/>
          </g>
          <g>
            <polygon class="cls-56" points="226 147 205.9 150.6 213.9 126.3 234 122.7 226 147"/>
            <polygon class="cls-56" points="263.1 140.2 243 143.9 251.1 119.6 271.2 115.9 263.1 140.2"/>
            <polygon class="cls-56" points="300.3 133.5 280.2 137.1 288.2 112.8 308.3 109.2 300.3 133.5"/>
            <polygon class="cls-56" points="337.4 126.7 317.3 130.4 325.4 106.1 345.5 102.4 337.4 126.7"/>
          </g>
        </g>
        <g>
          <g>
            <polygon class="cls-55" points="226.3 174.9 205.9 174.9 218.2 152.4 238.6 152.4 226.3 174.9"/>
            <polygon class="cls-55" points="264.2 174.9 243.7 174.9 256 152.4 276.5 152.4 264.2 174.9"/>
            <polygon class="cls-55" points="302 174.9 281.6 174.9 293.9 152.4 314.3 152.4 302 174.9"/>
            <polygon class="cls-55" points="339.9 174.9 319.4 174.9 331.7 152.4 352.2 152.4 339.9 174.9"/>
          </g>
          <g>
            <path class="cls-55" d="M198.2,175.1h160.8v-22.9h-138.2"/>
            <rect class="cls-55" x="195.1" y="115.2" width="160.3" height="22.9" transform="translate(-18.2 51.2) rotate(-10.3)"/>
          </g>
          <g>
            <polygon class="cls-55" points="226 147 205.9 150.6 213.9 126.3 234 122.7 226 147"/>
            <polygon class="cls-55" points="263.1 140.2 243 143.9 251.1 119.6 271.2 115.9 263.1 140.2"/>
            <polygon class="cls-55" points="300.3 133.5 280.2 137.1 288.2 112.8 308.3 109.2 300.3 133.5"/>
            <polygon class="cls-55" points="337.4 126.7 317.3 130.4 325.4 106.1 345.5 102.4 337.4 126.7"/>
          </g>
        </g>
      </g>
      <g>
        <rect class="cls-10" x="230.2" y="194" width="96.1" height="60"/>
        <rect class="cls-93" x="230.2" y="194" width="96.1" height="60"/>
        <rect class="cls-53" x="230.2" y="194" width="96.1" height="60"/>
        <rect class="cls-9" x="230.2" y="194" width="96.1" height="60"/>
        <rect class="cls-17" x="230.2" y="194" width="96.1" height="60"/>
        <rect class="cls-50" x="230.2" y="194" width="96.1" height="60"/>
        <rect class="cls-7" x="230.2" y="194" width="96.1" height="60"/>
        <rect class="cls-39" x="230.2" y="194" width="96.1" height="60"/>
        <rect class="cls-24" x="230.2" y="194" width="96.1" height="60"/>
        <rect class="cls-55" x="230.2" y="194" width="96.1" height="60"/>
      </g>
    </g>
    <g>
      <g>
        <g>
          <path class="cls-52" d="M392.7,163.8c-28.6,0-51.8,23.2-51.8,51.8s23.2,51.8,51.8,51.8,51.8-23.2,51.8-51.8-23.2-51.8-51.8-51.8Z"/>
          <g>
            <path class="cls-52" d="M382.9,250.1c0-5.4,4.4-9.8,9.8-9.8s9.8,4.4,9.8,9.8-4.4,9.8-9.8,9.8-9.8-4.4-9.8-9.8Z"/>
            <path class="cls-52" d="M392.7,190.8c-5.4,0-9.8-4.4-9.8-9.8s4.4-9.8,9.8-9.8,9.8,4.4,9.8,9.8-4.4,9.8-9.8,9.8Z"/>
          </g>
          <g>
            <path class="cls-52" d="M418.9,240.1c-4.8-2.5-6.7-8.4-4.2-13.2,2.5-4.8,8.4-6.7,13.2-4.2,4.8,2.5,6.7,8.4,4.2,13.2-2.5,4.8-8.4,6.7-13.2,4.2Z"/>
            <path class="cls-52" d="M370.6,204.2c-2.5,4.8-8.4,6.7-13.2,4.2-4.8-2.5-6.7-8.4-4.2-13.2,2.5-4.8,8.4-6.7,13.2-4.2,4.8,2.5,6.7,8.4,4.2,13.2Z"/>
          </g>
          <g>
            <path class="cls-52" d="M357.7,223.9c4.7-2.6,10.7-1,13.3,3.8,2.6,4.7,1,10.7-3.8,13.3-4.7,2.6-10.7,1-13.3-3.8-2.6-4.7-1-10.7,3.8-13.3Z"/>
            <path class="cls-52" d="M414.3,203.4c-2.6-4.7-1-10.7,3.8-13.3,4.7-2.6,10.7-1,13.3,3.8,2.6,4.7,1,10.7-3.8,13.3-4.7,2.6-10.7,1-13.3-3.8Z"/>
          </g>
        </g>
        <path class="cls-52" d="M399.8,215.6c0,4-3.2,7.2-7.2,7.2s-7.2-3.2-7.2-7.2,3.2-7.2,7.2-7.2,7.2,3.2,7.2,7.2Z"/>
      </g>
      <g>
        <g>
          <path class="cls-32" d="M392.7,163.8c-28.6,0-51.8,23.2-51.8,51.8s23.2,51.8,51.8,51.8,51.8-23.2,51.8-51.8-23.2-51.8-51.8-51.8Z"/>
          <g>
            <path class="cls-32" d="M382.9,250.1c0-5.4,4.4-9.8,9.8-9.8s9.8,4.4,9.8,9.8-4.4,9.8-9.8,9.8-9.8-4.4-9.8-9.8Z"/>
            <path class="cls-32" d="M392.7,190.8c-5.4,0-9.8-4.4-9.8-9.8s4.4-9.8,9.8-9.8,9.8,4.4,9.8,9.8-4.4,9.8-9.8,9.8Z"/>
          </g>
          <g>
            <path class="cls-32" d="M418.9,240.1c-4.8-2.5-6.7-8.4-4.2-13.2,2.5-4.8,8.4-6.7,13.2-4.2,4.8,2.5,6.7,8.4,4.2,13.2-2.5,4.8-8.4,6.7-13.2,4.2Z"/>
            <path class="cls-32" d="M370.6,204.2c-2.5,4.8-8.4,6.7-13.2,4.2-4.8-2.5-6.7-8.4-4.2-13.2,2.5-4.8,8.4-6.7,13.2-4.2,4.8,2.5,6.7,8.4,4.2,13.2Z"/>
          </g>
          <g>
            <path class="cls-32" d="M357.7,223.9c4.7-2.6,10.7-1,13.3,3.8,2.6,4.7,1,10.7-3.8,13.3-4.7,2.6-10.7,1-13.3-3.8-2.6-4.7-1-10.7,3.8-13.3Z"/>
            <path class="cls-32" d="M414.3,203.4c-2.6-4.7-1-10.7,3.8-13.3,4.7-2.6,10.7-1,13.3,3.8,2.6,4.7,1,10.7-3.8,13.3-4.7,2.6-10.7,1-13.3-3.8Z"/>
          </g>
        </g>
        <path class="cls-32" d="M399.8,215.6c0,4-3.2,7.2-7.2,7.2s-7.2-3.2-7.2-7.2,3.2-7.2,7.2-7.2,7.2,3.2,7.2,7.2Z"/>
      </g>
      <g>
        <g>
          <path class="cls-1" d="M392.7,163.8c-28.6,0-51.8,23.2-51.8,51.8s23.2,51.8,51.8,51.8,51.8-23.2,51.8-51.8-23.2-51.8-51.8-51.8Z"/>
          <g>
            <path class="cls-1" d="M382.9,250.1c0-5.4,4.4-9.8,9.8-9.8s9.8,4.4,9.8,9.8-4.4,9.8-9.8,9.8-9.8-4.4-9.8-9.8Z"/>
            <path class="cls-1" d="M392.7,190.8c-5.4,0-9.8-4.4-9.8-9.8s4.4-9.8,9.8-9.8,9.8,4.4,9.8,9.8-4.4,9.8-9.8,9.8Z"/>
          </g>
          <g>
            <path class="cls-1" d="M418.9,240.1c-4.8-2.5-6.7-8.4-4.2-13.2,2.5-4.8,8.4-6.7,13.2-4.2,4.8,2.5,6.7,8.4,4.2,13.2-2.5,4.8-8.4,6.7-13.2,4.2Z"/>
            <path class="cls-1" d="M370.6,204.2c-2.5,4.8-8.4,6.7-13.2,4.2-4.8-2.5-6.7-8.4-4.2-13.2,2.5-4.8,8.4-6.7,13.2-4.2,4.8,2.5,6.7,8.4,4.2,13.2Z"/>
          </g>
          <g>
            <path class="cls-1" d="M357.7,223.9c4.7-2.6,10.7-1,13.3,3.8,2.6,4.7,1,10.7-3.8,13.3-4.7,2.6-10.7,1-13.3-3.8-2.6-4.7-1-10.7,3.8-13.3Z"/>
            <path class="cls-1" d="M414.3,203.4c-2.6-4.7-1-10.7,3.8-13.3,4.7-2.6,10.7-1,13.3,3.8,2.6,4.7,1,10.7-3.8,13.3-4.7,2.6-10.7,1-13.3-3.8Z"/>
          </g>
        </g>
        <path class="cls-1" d="M399.8,215.6c0,4-3.2,7.2-7.2,7.2s-7.2-3.2-7.2-7.2,3.2-7.2,7.2-7.2,7.2,3.2,7.2,7.2Z"/>
      </g>
      <g>
        <g>
          <path class="cls-77" d="M392.7,163.8c-28.6,0-51.8,23.2-51.8,51.8s23.2,51.8,51.8,51.8,51.8-23.2,51.8-51.8-23.2-51.8-51.8-51.8Z"/>
          <g>
            <path class="cls-77" d="M382.9,250.1c0-5.4,4.4-9.8,9.8-9.8s9.8,4.4,9.8,9.8-4.4,9.8-9.8,9.8-9.8-4.4-9.8-9.8Z"/>
            <path class="cls-77" d="M392.7,190.8c-5.4,0-9.8-4.4-9.8-9.8s4.4-9.8,9.8-9.8,9.8,4.4,9.8,9.8-4.4,9.8-9.8,9.8Z"/>
          </g>
          <g>
            <path class="cls-77" d="M418.9,240.1c-4.8-2.5-6.7-8.4-4.2-13.2,2.5-4.8,8.4-6.7,13.2-4.2,4.8,2.5,6.7,8.4,4.2,13.2-2.5,4.8-8.4,6.7-13.2,4.2Z"/>
            <path class="cls-77" d="M370.6,204.2c-2.5,4.8-8.4,6.7-13.2,4.2-4.8-2.5-6.7-8.4-4.2-13.2,2.5-4.8,8.4-6.7,13.2-4.2,4.8,2.5,6.7,8.4,4.2,13.2Z"/>
          </g>
          <g>
            <path class="cls-77" d="M357.7,223.9c4.7-2.6,10.7-1,13.3,3.8,2.6,4.7,1,10.7-3.8,13.3-4.7,2.6-10.7,1-13.3-3.8-2.6-4.7-1-10.7,3.8-13.3Z"/>
            <path class="cls-77" d="M414.3,203.4c-2.6-4.7-1-10.7,3.8-13.3,4.7-2.6,10.7-1,13.3,3.8,2.6,4.7,1,10.7-3.8,13.3-4.7,2.6-10.7,1-13.3-3.8Z"/>
          </g>
        </g>
        <path class="cls-77" d="M399.8,215.6c0,4-3.2,7.2-7.2,7.2s-7.2-3.2-7.2-7.2,3.2-7.2,7.2-7.2,7.2,3.2,7.2,7.2Z"/>
      </g>
      <g>
        <g>
          <path class="cls-48" d="M392.7,163.8c-28.6,0-51.8,23.2-51.8,51.8s23.2,51.8,51.8,51.8,51.8-23.2,51.8-51.8-23.2-51.8-51.8-51.8Z"/>
          <g>
            <path class="cls-48" d="M382.9,250.1c0-5.4,4.4-9.8,9.8-9.8s9.8,4.4,9.8,9.8-4.4,9.8-9.8,9.8-9.8-4.4-9.8-9.8Z"/>
            <path class="cls-48" d="M392.7,190.8c-5.4,0-9.8-4.4-9.8-9.8s4.4-9.8,9.8-9.8,9.8,4.4,9.8,9.8-4.4,9.8-9.8,9.8Z"/>
          </g>
          <g>
            <path class="cls-48" d="M418.9,240.1c-4.8-2.5-6.7-8.4-4.2-13.2,2.5-4.8,8.4-6.7,13.2-4.2,4.8,2.5,6.7,8.4,4.2,13.2-2.5,4.8-8.4,6.7-13.2,4.2Z"/>
            <path class="cls-48" d="M370.6,204.2c-2.5,4.8-8.4,6.7-13.2,4.2-4.8-2.5-6.7-8.4-4.2-13.2,2.5-4.8,8.4-6.7,13.2-4.2,4.8,2.5,6.7,8.4,4.2,13.2Z"/>
          </g>
          <g>
            <path class="cls-48" d="M357.7,223.9c4.7-2.6,10.7-1,13.3,3.8,2.6,4.7,1,10.7-3.8,13.3-4.7,2.6-10.7,1-13.3-3.8-2.6-4.7-1-10.7,3.8-13.3Z"/>
            <path class="cls-48" d="M414.3,203.4c-2.6-4.7-1-10.7,3.8-13.3,4.7-2.6,10.7-1,13.3,3.8,2.6,4.7,1,10.7-3.8,13.3-4.7,2.6-10.7,1-13.3-3.8Z"/>
          </g>
        </g>
        <path class="cls-48" d="M399.8,215.6c0,4-3.2,7.2-7.2,7.2s-7.2-3.2-7.2-7.2,3.2-7.2,7.2-7.2,7.2,3.2,7.2,7.2Z"/>
      </g>
      <g>
        <g>
          <path class="cls-51" d="M392.7,163.8c-28.6,0-51.8,23.2-51.8,51.8s23.2,51.8,51.8,51.8,51.8-23.2,51.8-51.8-23.2-51.8-51.8-51.8Z"/>
          <g>
            <path class="cls-51" d="M382.9,250.1c0-5.4,4.4-9.8,9.8-9.8s9.8,4.4,9.8,9.8-4.4,9.8-9.8,9.8-9.8-4.4-9.8-9.8Z"/>
            <path class="cls-51" d="M392.7,190.8c-5.4,0-9.8-4.4-9.8-9.8s4.4-9.8,9.8-9.8,9.8,4.4,9.8,9.8-4.4,9.8-9.8,9.8Z"/>
          </g>
          <g>
            <path class="cls-51" d="M418.9,240.1c-4.8-2.5-6.7-8.4-4.2-13.2,2.5-4.8,8.4-6.7,13.2-4.2,4.8,2.5,6.7,8.4,4.2,13.2-2.5,4.8-8.4,6.7-13.2,4.2Z"/>
            <path class="cls-51" d="M370.6,204.2c-2.5,4.8-8.4,6.7-13.2,4.2-4.8-2.5-6.7-8.4-4.2-13.2,2.5-4.8,8.4-6.7,13.2-4.2,4.8,2.5,6.7,8.4,4.2,13.2Z"/>
          </g>
          <g>
            <path class="cls-51" d="M357.7,223.9c4.7-2.6,10.7-1,13.3,3.8,2.6,4.7,1,10.7-3.8,13.3-4.7,2.6-10.7,1-13.3-3.8-2.6-4.7-1-10.7,3.8-13.3Z"/>
            <path class="cls-51" d="M414.3,203.4c-2.6-4.7-1-10.7,3.8-13.3,4.7-2.6,10.7-1,13.3,3.8,2.6,4.7,1,10.7-3.8,13.3-4.7,2.6-10.7,1-13.3-3.8Z"/>
          </g>
        </g>
        <path class="cls-51" d="M399.8,215.6c0,4-3.2,7.2-7.2,7.2s-7.2-3.2-7.2-7.2,3.2-7.2,7.2-7.2,7.2,3.2,7.2,7.2Z"/>
      </g>
      <g>
        <g>
          <path class="cls-59" d="M392.7,163.8c-28.6,0-51.8,23.2-51.8,51.8s23.2,51.8,51.8,51.8,51.8-23.2,51.8-51.8-23.2-51.8-51.8-51.8Z"/>
          <g>
            <path class="cls-59" d="M382.9,250.1c0-5.4,4.4-9.8,9.8-9.8s9.8,4.4,9.8,9.8-4.4,9.8-9.8,9.8-9.8-4.4-9.8-9.8Z"/>
            <path class="cls-59" d="M392.7,190.8c-5.4,0-9.8-4.4-9.8-9.8s4.4-9.8,9.8-9.8,9.8,4.4,9.8,9.8-4.4,9.8-9.8,9.8Z"/>
          </g>
          <g>
            <path class="cls-59" d="M418.9,240.1c-4.8-2.5-6.7-8.4-4.2-13.2,2.5-4.8,8.4-6.7,13.2-4.2,4.8,2.5,6.7,8.4,4.2,13.2-2.5,4.8-8.4,6.7-13.2,4.2Z"/>
            <path class="cls-59" d="M370.6,204.2c-2.5,4.8-8.4,6.7-13.2,4.2-4.8-2.5-6.7-8.4-4.2-13.2,2.5-4.8,8.4-6.7,13.2-4.2,4.8,2.5,6.7,8.4,4.2,13.2Z"/>
          </g>
          <g>
            <path class="cls-59" d="M357.7,223.9c4.7-2.6,10.7-1,13.3,3.8,2.6,4.7,1,10.7-3.8,13.3-4.7,2.6-10.7,1-13.3-3.8-2.6-4.7-1-10.7,3.8-13.3Z"/>
            <path class="cls-59" d="M414.3,203.4c-2.6-4.7-1-10.7,3.8-13.3,4.7-2.6,10.7-1,13.3,3.8,2.6,4.7,1,10.7-3.8,13.3-4.7,2.6-10.7,1-13.3-3.8Z"/>
          </g>
        </g>
        <path class="cls-59" d="M399.8,215.6c0,4-3.2,7.2-7.2,7.2s-7.2-3.2-7.2-7.2,3.2-7.2,7.2-7.2,7.2,3.2,7.2,7.2Z"/>
      </g>
      <g>
        <g>
          <path class="cls-65" d="M392.7,163.8c-28.6,0-51.8,23.2-51.8,51.8s23.2,51.8,51.8,51.8,51.8-23.2,51.8-51.8-23.2-51.8-51.8-51.8Z"/>
          <g>
            <path class="cls-65" d="M382.9,250.1c0-5.4,4.4-9.8,9.8-9.8s9.8,4.4,9.8,9.8-4.4,9.8-9.8,9.8-9.8-4.4-9.8-9.8Z"/>
            <path class="cls-65" d="M392.7,190.8c-5.4,0-9.8-4.4-9.8-9.8s4.4-9.8,9.8-9.8,9.8,4.4,9.8,9.8-4.4,9.8-9.8,9.8Z"/>
          </g>
          <g>
            <path class="cls-65" d="M418.9,240.1c-4.8-2.5-6.7-8.4-4.2-13.2,2.5-4.8,8.4-6.7,13.2-4.2,4.8,2.5,6.7,8.4,4.2,13.2-2.5,4.8-8.4,6.7-13.2,4.2Z"/>
            <path class="cls-65" d="M370.6,204.2c-2.5,4.8-8.4,6.7-13.2,4.2-4.8-2.5-6.7-8.4-4.2-13.2,2.5-4.8,8.4-6.7,13.2-4.2,4.8,2.5,6.7,8.4,4.2,13.2Z"/>
          </g>
          <g>
            <path class="cls-65" d="M357.7,223.9c4.7-2.6,10.7-1,13.3,3.8,2.6,4.7,1,10.7-3.8,13.3-4.7,2.6-10.7,1-13.3-3.8-2.6-4.7-1-10.7,3.8-13.3Z"/>
            <path class="cls-65" d="M414.3,203.4c-2.6-4.7-1-10.7,3.8-13.3,4.7-2.6,10.7-1,13.3,3.8,2.6,4.7,1,10.7-3.8,13.3-4.7,2.6-10.7,1-13.3-3.8Z"/>
          </g>
        </g>
        <path class="cls-65" d="M399.8,215.6c0,4-3.2,7.2-7.2,7.2s-7.2-3.2-7.2-7.2,3.2-7.2,7.2-7.2,7.2,3.2,7.2,7.2Z"/>
      </g>
      <g>
        <g>
          <path class="cls-20" d="M392.7,163.8c-28.6,0-51.8,23.2-51.8,51.8s23.2,51.8,51.8,51.8,51.8-23.2,51.8-51.8-23.2-51.8-51.8-51.8Z"/>
          <g>
            <path class="cls-20" d="M382.9,250.1c0-5.4,4.4-9.8,9.8-9.8s9.8,4.4,9.8,9.8-4.4,9.8-9.8,9.8-9.8-4.4-9.8-9.8Z"/>
            <path class="cls-20" d="M392.7,190.8c-5.4,0-9.8-4.4-9.8-9.8s4.4-9.8,9.8-9.8,9.8,4.4,9.8,9.8-4.4,9.8-9.8,9.8Z"/>
          </g>
          <g>
            <path class="cls-20" d="M418.9,240.1c-4.8-2.5-6.7-8.4-4.2-13.2,2.5-4.8,8.4-6.7,13.2-4.2,4.8,2.5,6.7,8.4,4.2,13.2-2.5,4.8-8.4,6.7-13.2,4.2Z"/>
            <path class="cls-20" d="M370.6,204.2c-2.5,4.8-8.4,6.7-13.2,4.2-4.8-2.5-6.7-8.4-4.2-13.2,2.5-4.8,8.4-6.7,13.2-4.2,4.8,2.5,6.7,8.4,4.2,13.2Z"/>
          </g>
          <g>
            <path class="cls-20" d="M357.7,223.9c4.7-2.6,10.7-1,13.3,3.8,2.6,4.7,1,10.7-3.8,13.3-4.7,2.6-10.7,1-13.3-3.8-2.6-4.7-1-10.7,3.8-13.3Z"/>
            <path class="cls-20" d="M414.3,203.4c-2.6-4.7-1-10.7,3.8-13.3,4.7-2.6,10.7-1,13.3,3.8,2.6,4.7,1,10.7-3.8,13.3-4.7,2.6-10.7,1-13.3-3.8Z"/>
          </g>
        </g>
        <path class="cls-20" d="M399.8,215.6c0,4-3.2,7.2-7.2,7.2s-7.2-3.2-7.2-7.2,3.2-7.2,7.2-7.2,7.2,3.2,7.2,7.2Z"/>
      </g>
      <g>
        <g>
          <path class="cls-23" d="M392.7,163.8c-28.6,0-51.8,23.2-51.8,51.8s23.2,51.8,51.8,51.8,51.8-23.2,51.8-51.8-23.2-51.8-51.8-51.8Z"/>
          <g>
            <path class="cls-23" d="M382.9,250.1c0-5.4,4.4-9.8,9.8-9.8s9.8,4.4,9.8,9.8-4.4,9.8-9.8,9.8-9.8-4.4-9.8-9.8Z"/>
            <path class="cls-23" d="M392.7,190.8c-5.4,0-9.8-4.4-9.8-9.8s4.4-9.8,9.8-9.8,9.8,4.4,9.8,9.8-4.4,9.8-9.8,9.8Z"/>
          </g>
          <g>
            <path class="cls-23" d="M418.9,240.1c-4.8-2.5-6.7-8.4-4.2-13.2,2.5-4.8,8.4-6.7,13.2-4.2,4.8,2.5,6.7,8.4,4.2,13.2-2.5,4.8-8.4,6.7-13.2,4.2Z"/>
            <path class="cls-23" d="M370.6,204.2c-2.5,4.8-8.4,6.7-13.2,4.2-4.8-2.5-6.7-8.4-4.2-13.2,2.5-4.8,8.4-6.7,13.2-4.2,4.8,2.5,6.7,8.4,4.2,13.2Z"/>
          </g>
          <g>
            <path class="cls-23" d="M357.7,223.9c4.7-2.6,10.7-1,13.3,3.8,2.6,4.7,1,10.7-3.8,13.3-4.7,2.6-10.7,1-13.3-3.8-2.6-4.7-1-10.7,3.8-13.3Z"/>
            <path class="cls-23" d="M414.3,203.4c-2.6-4.7-1-10.7,3.8-13.3,4.7-2.6,10.7-1,13.3,3.8,2.6,4.7,1,10.7-3.8,13.3-4.7,2.6-10.7,1-13.3-3.8Z"/>
          </g>
        </g>
        <path class="cls-23" d="M399.8,215.6c0,4-3.2,7.2-7.2,7.2s-7.2-3.2-7.2-7.2,3.2-7.2,7.2-7.2,7.2,3.2,7.2,7.2Z"/>
      </g>
    </g>
    <g>
      <g>
        <path class="cls-75" d="M193.6,191.3c1.4-9.4,4.4-29.2,4.4-29.2l22.4-6.5"/>
        <path class="cls-79" d="M193.6,191.3c1.4-9.4,4.4-29.2,4.4-29.2l22.4-6.5"/>
        <path class="cls-43" d="M193.6,191.3c1.4-9.4,4.4-29.2,4.4-29.2l22.4-6.5"/>
        <path class="cls-76" d="M193.6,191.3c1.4-9.4,4.4-29.2,4.4-29.2l22.4-6.5"/>
        <path class="cls-83" d="M193.6,191.3c1.4-9.4,4.4-29.2,4.4-29.2l22.4-6.5"/>
        <path class="cls-2" d="M193.6,191.3c1.4-9.4,4.4-29.2,4.4-29.2l22.4-6.5"/>
        <path class="cls-91" d="M193.6,191.3c1.4-9.4,4.4-29.2,4.4-29.2l22.4-6.5"/>
        <path class="cls-71" d="M193.6,191.3c1.4-9.4,4.4-29.2,4.4-29.2l22.4-6.5"/>
        <path class="cls-88" d="M193.6,191.3c1.4-9.4,4.4-29.2,4.4-29.2l22.4-6.5"/>
        <path class="cls-26" d="M193.6,191.3c1.4-9.4,4.4-29.2,4.4-29.2l22.4-6.5"/>
      </g>
      <g>
        <path class="cls-19" d="M179,184.9c0-.2,0-1.8,0-2,0-2.7-1.8-4.9-4.2-5.7.1-.5.2-1,.2-1.5,0-3.3-2.7-6-6-6s-.6,0-.9,0c-.9-2.1-3.1-3.5-5.5-3.5s-1.7.2-2.4.5c-1.1-1.4-2.8-2.4-4.8-2.4s-2.9.5-3.9,1.4c-1.1-1.3-2.7-2.1-4.6-2.1s-3.9,1-5,2.6c-1.1-1.4-2.8-2.2-4.7-2.2s-3.3.7-4.4,1.9c-1.1-1.1-2.6-1.7-4.2-1.7-2.6,0-4.8,1.6-5.6,3.9-1-.7-2.2-1.1-3.5-1.1-2.8,0-5.2,1.9-5.8,4.5-.5-.2-1.1-.3-1.7-.3-3.1,0-5.7,2.3-6,5.3-3,.1-5.6,2.5-5.5,8.1"/>
        <path class="cls-73" d="M179,184.9c0-.2,0-1.8,0-2,0-2.7-1.8-4.9-4.2-5.7.1-.5.2-1,.2-1.5,0-3.3-2.7-6-6-6s-.6,0-.9,0c-.9-2.1-3.1-3.5-5.5-3.5s-1.7.2-2.4.5c-1.1-1.4-2.8-2.4-4.8-2.4s-2.9.5-3.9,1.4c-1.1-1.3-2.7-2.1-4.6-2.1s-3.9,1-5,2.6c-1.1-1.4-2.8-2.2-4.7-2.2s-3.3.7-4.4,1.9c-1.1-1.1-2.6-1.7-4.2-1.7-2.6,0-4.8,1.6-5.6,3.9-1-.7-2.2-1.1-3.5-1.1-2.8,0-5.2,1.9-5.8,4.5-.5-.2-1.1-.3-1.7-.3-3.1,0-5.7,2.3-6,5.3-3,.1-5.6,2.5-5.5,8.1"/>
        <path class="cls-66" d="M179,184.9c0-.2,0-1.8,0-2,0-2.7-1.8-4.9-4.2-5.7.1-.5.2-1,.2-1.5,0-3.3-2.7-6-6-6s-.6,0-.9,0c-.9-2.1-3.1-3.5-5.5-3.5s-1.7.2-2.4.5c-1.1-1.4-2.8-2.4-4.8-2.4s-2.9.5-3.9,1.4c-1.1-1.3-2.7-2.1-4.6-2.1s-3.9,1-5,2.6c-1.1-1.4-2.8-2.2-4.7-2.2s-3.3.7-4.4,1.9c-1.1-1.1-2.6-1.7-4.2-1.7-2.6,0-4.8,1.6-5.6,3.9-1-.7-2.2-1.1-3.5-1.1-2.8,0-5.2,1.9-5.8,4.5-.5-.2-1.1-.3-1.7-.3-3.1,0-5.7,2.3-6,5.3-3,.1-5.6,2.5-5.5,8.1"/>
        <path class="cls-8" d="M179,184.9c0-.2,0-1.8,0-2,0-2.7-1.8-4.9-4.2-5.7.1-.5.2-1,.2-1.5,0-3.3-2.7-6-6-6s-.6,0-.9,0c-.9-2.1-3.1-3.5-5.5-3.5s-1.7.2-2.4.5c-1.1-1.4-2.8-2.4-4.8-2.4s-2.9.5-3.9,1.4c-1.1-1.3-2.7-2.1-4.6-2.1s-3.9,1-5,2.6c-1.1-1.4-2.8-2.2-4.7-2.2s-3.3.7-4.4,1.9c-1.1-1.1-2.6-1.7-4.2-1.7-2.6,0-4.8,1.6-5.6,3.9-1-.7-2.2-1.1-3.5-1.1-2.8,0-5.2,1.9-5.8,4.5-.5-.2-1.1-.3-1.7-.3-3.1,0-5.7,2.3-6,5.3-3,.1-5.6,2.5-5.5,8.1"/>
        <path class="cls-62" d="M179,184.9c0-.2,0-1.8,0-2,0-2.7-1.8-4.9-4.2-5.7.1-.5.2-1,.2-1.5,0-3.3-2.7-6-6-6s-.6,0-.9,0c-.9-2.1-3.1-3.5-5.5-3.5s-1.7.2-2.4.5c-1.1-1.4-2.8-2.4-4.8-2.4s-2.9.5-3.9,1.4c-1.1-1.3-2.7-2.1-4.6-2.1s-3.9,1-5,2.6c-1.1-1.4-2.8-2.2-4.7-2.2s-3.3.7-4.4,1.9c-1.1-1.1-2.6-1.7-4.2-1.7-2.6,0-4.8,1.6-5.6,3.9-1-.7-2.2-1.1-3.5-1.1-2.8,0-5.2,1.9-5.8,4.5-.5-.2-1.1-.3-1.7-.3-3.1,0-5.7,2.3-6,5.3-3,.1-5.6,2.5-5.5,8.1"/>
        <path class="cls-94" d="M179,184.9c0-.2,0-1.8,0-2,0-2.7-1.8-4.9-4.2-5.7.1-.5.2-1,.2-1.5,0-3.3-2.7-6-6-6s-.6,0-.9,0c-.9-2.1-3.1-3.5-5.5-3.5s-1.7.2-2.4.5c-1.1-1.4-2.8-2.4-4.8-2.4s-2.9.5-3.9,1.4c-1.1-1.3-2.7-2.1-4.6-2.1s-3.9,1-5,2.6c-1.1-1.4-2.8-2.2-4.7-2.2s-3.3.7-4.4,1.9c-1.1-1.1-2.6-1.7-4.2-1.7-2.6,0-4.8,1.6-5.6,3.9-1-.7-2.2-1.1-3.5-1.1-2.8,0-5.2,1.9-5.8,4.5-.5-.2-1.1-.3-1.7-.3-3.1,0-5.7,2.3-6,5.3-3,.1-5.6,2.5-5.5,8.1"/>
        <path class="cls-47" d="M179,184.9c0-.2,0-1.8,0-2,0-2.7-1.8-4.9-4.2-5.7.1-.5.2-1,.2-1.5,0-3.3-2.7-6-6-6s-.6,0-.9,0c-.9-2.1-3.1-3.5-5.5-3.5s-1.7.2-2.4.5c-1.1-1.4-2.8-2.4-4.8-2.4s-2.9.5-3.9,1.4c-1.1-1.3-2.7-2.1-4.6-2.1s-3.9,1-5,2.6c-1.1-1.4-2.8-2.2-4.7-2.2s-3.3.7-4.4,1.9c-1.1-1.1-2.6-1.7-4.2-1.7-2.6,0-4.8,1.6-5.6,3.9-1-.7-2.2-1.1-3.5-1.1-2.8,0-5.2,1.9-5.8,4.5-.5-.2-1.1-.3-1.7-.3-3.1,0-5.7,2.3-6,5.3-3,.1-5.6,2.5-5.5,8.1"/>
        <path class="cls-70" d="M179,184.9c0-.2,0-1.8,0-2,0-2.7-1.8-4.9-4.2-5.7.1-.5.2-1,.2-1.5,0-3.3-2.7-6-6-6s-.6,0-.9,0c-.9-2.1-3.1-3.5-5.5-3.5s-1.7.2-2.4.5c-1.1-1.4-2.8-2.4-4.8-2.4s-2.9.5-3.9,1.4c-1.1-1.3-2.7-2.1-4.6-2.1s-3.9,1-5,2.6c-1.1-1.4-2.8-2.2-4.7-2.2s-3.3.7-4.4,1.9c-1.1-1.1-2.6-1.7-4.2-1.7-2.6,0-4.8,1.6-5.6,3.9-1-.7-2.2-1.1-3.5-1.1-2.8,0-5.2,1.9-5.8,4.5-.5-.2-1.1-.3-1.7-.3-3.1,0-5.7,2.3-6,5.3-3,.1-5.6,2.5-5.5,8.1"/>
        <path class="cls-89" d="M179,184.9c0-.2,0-1.8,0-2,0-2.7-1.8-4.9-4.2-5.7.1-.5.2-1,.2-1.5,0-3.3-2.7-6-6-6s-.6,0-.9,0c-.9-2.1-3.1-3.5-5.5-3.5s-1.7.2-2.4.5c-1.1-1.4-2.8-2.4-4.8-2.4s-2.9.5-3.9,1.4c-1.1-1.3-2.7-2.1-4.6-2.1s-3.9,1-5,2.6c-1.1-1.4-2.8-2.2-4.7-2.2s-3.3.7-4.4,1.9c-1.1-1.1-2.6-1.7-4.2-1.7-2.6,0-4.8,1.6-5.6,3.9-1-.7-2.2-1.1-3.5-1.1-2.8,0-5.2,1.9-5.8,4.5-.5-.2-1.1-.3-1.7-.3-3.1,0-5.7,2.3-6,5.3-3,.1-5.6,2.5-5.5,8.1"/>
        <path class="cls-34" d="M179,184.9c0-.2,0-1.8,0-2,0-2.7-1.8-4.9-4.2-5.7.1-.5.2-1,.2-1.5,0-3.3-2.7-6-6-6s-.6,0-.9,0c-.9-2.1-3.1-3.5-5.5-3.5s-1.7.2-2.4.5c-1.1-1.4-2.8-2.4-4.8-2.4s-2.9.5-3.9,1.4c-1.1-1.3-2.7-2.1-4.6-2.1s-3.9,1-5,2.6c-1.1-1.4-2.8-2.2-4.7-2.2s-3.3.7-4.4,1.9c-1.1-1.1-2.6-1.7-4.2-1.7-2.6,0-4.8,1.6-5.6,3.9-1-.7-2.2-1.1-3.5-1.1-2.8,0-5.2,1.9-5.8,4.5-.5-.2-1.1-.3-1.7-.3-3.1,0-5.7,2.3-6,5.3-3,.1-5.6,2.5-5.5,8.1"/>
      </g>
      <g>
        <g>
          <path class="cls-41" d="M172.4,238.9c-2.2,16.2-4,29.8-4,29.8,0,0-12.7,0-27.6,0"/>
          <path class="cls-41" d="M102.5,217.1c-1.9-17.7-3.6-31.8-3.6-31.8h80.8s-.3,2-.7,5.5"/>
        </g>
        <g>
          <path class="cls-80" d="M172.4,238.9c-2.2,16.2-4,29.8-4,29.8,0,0-12.7,0-27.6,0"/>
          <path class="cls-80" d="M102.5,217.1c-1.9-17.7-3.6-31.8-3.6-31.8h80.8s-.3,2-.7,5.5"/>
        </g>
        <g>
          <path class="cls-6" d="M172.4,238.9c-2.2,16.2-4,29.8-4,29.8,0,0-12.7,0-27.6,0"/>
          <path class="cls-6" d="M102.5,217.1c-1.9-17.7-3.6-31.8-3.6-31.8h80.8s-.3,2-.7,5.5"/>
        </g>
        <g>
          <path class="cls-45" d="M172.4,238.9c-2.2,16.2-4,29.8-4,29.8,0,0-12.7,0-27.6,0"/>
          <path class="cls-45" d="M102.5,217.1c-1.9-17.7-3.6-31.8-3.6-31.8h80.8s-.3,2-.7,5.5"/>
        </g>
        <g>
          <path class="cls-63" d="M172.4,238.9c-2.2,16.2-4,29.8-4,29.8,0,0-12.7,0-27.6,0"/>
          <path class="cls-63" d="M102.5,217.1c-1.9-17.7-3.6-31.8-3.6-31.8h80.8s-.3,2-.7,5.5"/>
        </g>
        <g>
          <path class="cls-5" d="M172.4,238.9c-2.2,16.2-4,29.8-4,29.8,0,0-12.7,0-27.6,0"/>
          <path class="cls-5" d="M102.5,217.1c-1.9-17.7-3.6-31.8-3.6-31.8h80.8s-.3,2-.7,5.5"/>
        </g>
        <g>
          <path class="cls-21" d="M172.4,238.9c-2.2,16.2-4,29.8-4,29.8,0,0-12.7,0-27.6,0"/>
          <path class="cls-21" d="M102.5,217.1c-1.9-17.7-3.6-31.8-3.6-31.8h80.8s-.3,2-.7,5.5"/>
        </g>
        <g>
          <path class="cls-30" d="M172.4,238.9c-2.2,16.2-4,29.8-4,29.8,0,0-12.7,0-27.6,0"/>
          <path class="cls-30" d="M102.5,217.1c-1.9-17.7-3.6-31.8-3.6-31.8h80.8s-.3,2-.7,5.5"/>
        </g>
        <g>
          <path class="cls-60" d="M172.4,238.9c-2.2,16.2-4,29.8-4,29.8,0,0-12.7,0-27.6,0"/>
          <path class="cls-60" d="M102.5,217.1c-1.9-17.7-3.6-31.8-3.6-31.8h80.8s-.3,2-.7,5.5"/>
        </g>
        <g>
          <path class="cls-26" d="M172.4,238.9c-2.2,16.2-4,29.8-4,29.8,0,0-12.7,0-27.6,0"/>
          <path class="cls-26" d="M102.5,217.1c-1.9-17.7-3.6-31.8-3.6-31.8h80.8s-.3,2-.7,5.5"/>
        </g>
      </g>
      <g>
        <polygon class="cls-41" points="212.7 269.1 174.7 269.1 169.1 197.2 219.8 197.2 212.7 269.1"/>
        <polygon class="cls-80" points="212.7 269.1 174.7 269.1 169.1 197.2 219.8 197.2 212.7 269.1"/>
        <polygon class="cls-6" points="212.7 269.1 174.7 269.1 169.1 197.2 219.8 197.2 212.7 269.1"/>
        <polygon class="cls-45" points="212.7 269.1 174.7 269.1 169.1 197.2 219.8 197.2 212.7 269.1"/>
        <polygon class="cls-63" points="212.7 269.1 174.7 269.1 169.1 197.2 219.8 197.2 212.7 269.1"/>
        <polygon class="cls-5" points="212.7 269.1 174.7 269.1 169.1 197.2 219.8 197.2 212.7 269.1"/>
        <polygon class="cls-21" points="212.7 269.1 174.7 269.1 169.1 197.2 219.8 197.2 212.7 269.1"/>
        <polygon class="cls-30" points="212.7 269.1 174.7 269.1 169.1 197.2 219.8 197.2 212.7 269.1"/>
        <polygon class="cls-60" points="212.7 269.1 174.7 269.1 169.1 197.2 219.8 197.2 212.7 269.1"/>
        <polygon class="cls-26" points="212.7 269.1 174.7 269.1 169.1 197.2 219.8 197.2 212.7 269.1"/>
      </g>
      <g>
        <rect class="cls-75" x="167.6" y="191.4" width="53.9" height="5.8"/>
        <rect class="cls-79" x="167.6" y="191.4" width="53.9" height="5.8"/>
        <rect class="cls-43" x="167.6" y="191.4" width="53.9" height="5.8"/>
        <rect class="cls-76" x="167.6" y="191.4" width="53.9" height="5.8"/>
        <rect class="cls-83" x="167.6" y="191.4" width="53.9" height="5.8"/>
        <rect class="cls-2" x="167.6" y="191.4" width="53.9" height="5.8"/>
        <rect class="cls-91" x="167.6" y="191.4" width="53.9" height="5.8"/>
        <rect class="cls-71" x="167.6" y="191.4" width="53.9" height="5.8"/>
        <rect class="cls-88" x="167.6" y="191.4" width="53.9" height="5.8"/>
        <rect class="cls-26" x="167.6" y="191.4" width="53.9" height="5.8"/>
      </g>
      <g>
        <g>
          <g>
            <path class="cls-82" d="M150.7,229.1c-5.9,0-10.8-4.9-10.9-10.8h-67.3c0,5.9-5,10.8-10.9,10.8v28.3c5.8.2,10.6,5.1,10.6,10.9s0,.3,0,.5h67.8c0,0,0-.2,0-.3,0-5.9,5-10.9,10.9-10.9s0,0,0,0v-28.5c-.1,0-.2,0-.3,0Z"/>
            <path class="cls-82" d="M141.7,232.9c-4.7,0-8.6-3.6-8.7-8h-53.7c0,4.3-4,7.9-8.7,8v20.9c4.6.1,8.5,3.7,8.5,8s0,.3,0,.4h54.1c0,0,0-.1,0-.2,0-4.4,4-8,8.7-8s0,0,0,0v-21c0,0-.2,0-.3,0Z"/>
          </g>
          <polygon class="cls-82" points="107.2 229.4 111.7 238.5 121.7 240 114.4 247.1 116.2 257.1 107.2 252.4 98.2 257.1 99.9 247.1 92.6 240 102.7 238.5 107.2 229.4"/>
        </g>
        <g>
          <g>
            <path class="cls-13" d="M150.7,229.1c-5.9,0-10.8-4.9-10.9-10.8h-67.3c0,5.9-5,10.8-10.9,10.8v28.3c5.8.2,10.6,5.1,10.6,10.9s0,.3,0,.5h67.8c0,0,0-.2,0-.3,0-5.9,5-10.9,10.9-10.9s0,0,0,0v-28.5c-.1,0-.2,0-.3,0Z"/>
            <path class="cls-13" d="M141.7,232.9c-4.7,0-8.6-3.6-8.7-8h-53.7c0,4.3-4,7.9-8.7,8v20.9c4.6.1,8.5,3.7,8.5,8s0,.3,0,.4h54.1c0,0,0-.1,0-.2,0-4.4,4-8,8.7-8s0,0,0,0v-21c0,0-.2,0-.3,0Z"/>
          </g>
          <polygon class="cls-13" points="107.2 229.4 111.7 238.5 121.7 240 114.4 247.1 116.2 257.1 107.2 252.4 98.2 257.1 99.9 247.1 92.6 240 102.7 238.5 107.2 229.4"/>
        </g>
        <g>
          <g>
            <path class="cls-90" d="M150.7,229.1c-5.9,0-10.8-4.9-10.9-10.8h-67.3c0,5.9-5,10.8-10.9,10.8v28.3c5.8.2,10.6,5.1,10.6,10.9s0,.3,0,.5h67.8c0,0,0-.2,0-.3,0-5.9,5-10.9,10.9-10.9s0,0,0,0v-28.5c-.1,0-.2,0-.3,0Z"/>
            <path class="cls-90" d="M141.7,232.9c-4.7,0-8.6-3.6-8.7-8h-53.7c0,4.3-4,7.9-8.7,8v20.9c4.6.1,8.5,3.7,8.5,8s0,.3,0,.4h54.1c0,0,0-.1,0-.2,0-4.4,4-8,8.7-8s0,0,0,0v-21c0,0-.2,0-.3,0Z"/>
          </g>
          <polygon class="cls-90" points="107.2 229.4 111.7 238.5 121.7 240 114.4 247.1 116.2 257.1 107.2 252.4 98.2 257.1 99.9 247.1 92.6 240 102.7 238.5 107.2 229.4"/>
        </g>
        <g>
          <g>
            <path class="cls-46" d="M150.7,229.1c-5.9,0-10.8-4.9-10.9-10.8h-67.3c0,5.9-5,10.8-10.9,10.8v28.3c5.8.2,10.6,5.1,10.6,10.9s0,.3,0,.5h67.8c0,0,0-.2,0-.3,0-5.9,5-10.9,10.9-10.9s0,0,0,0v-28.5c-.1,0-.2,0-.3,0Z"/>
            <path class="cls-46" d="M141.7,232.9c-4.7,0-8.6-3.6-8.7-8h-53.7c0,4.3-4,7.9-8.7,8v20.9c4.6.1,8.5,3.7,8.5,8s0,.3,0,.4h54.1c0,0,0-.1,0-.2,0-4.4,4-8,8.7-8s0,0,0,0v-21c0,0-.2,0-.3,0Z"/>
          </g>
          <polygon class="cls-46" points="107.2 229.4 111.7 238.5 121.7 240 114.4 247.1 116.2 257.1 107.2 252.4 98.2 257.1 99.9 247.1 92.6 240 102.7 238.5 107.2 229.4"/>
        </g>
        <g>
          <g>
            <path class="cls-37" d="M150.7,229.1c-5.9,0-10.8-4.9-10.9-10.8h-67.3c0,5.9-5,10.8-10.9,10.8v28.3c5.8.2,10.6,5.1,10.6,10.9s0,.3,0,.5h67.8c0,0,0-.2,0-.3,0-5.9,5-10.9,10.9-10.9s0,0,0,0v-28.5c-.1,0-.2,0-.3,0Z"/>
            <path class="cls-37" d="M141.7,232.9c-4.7,0-8.6-3.6-8.7-8h-53.7c0,4.3-4,7.9-8.7,8v20.9c4.6.1,8.5,3.7,8.5,8s0,.3,0,.4h54.1c0,0,0-.1,0-.2,0-4.4,4-8,8.7-8s0,0,0,0v-21c0,0-.2,0-.3,0Z"/>
          </g>
          <polygon class="cls-37" points="107.2 229.4 111.7 238.5 121.7 240 114.4 247.1 116.2 257.1 107.2 252.4 98.2 257.1 99.9 247.1 92.6 240 102.7 238.5 107.2 229.4"/>
        </g>
        <g>
          <g>
            <path class="cls-87" d="M150.7,229.1c-5.9,0-10.8-4.9-10.9-10.8h-67.3c0,5.9-5,10.8-10.9,10.8v28.3c5.8.2,10.6,5.1,10.6,10.9s0,.3,0,.5h67.8c0,0,0-.2,0-.3,0-5.9,5-10.9,10.9-10.9s0,0,0,0v-28.5c-.1,0-.2,0-.3,0Z"/>
            <path class="cls-87" d="M141.7,232.9c-4.7,0-8.6-3.6-8.7-8h-53.7c0,4.3-4,7.9-8.7,8v20.9c4.6.1,8.5,3.7,8.5,8s0,.3,0,.4h54.1c0,0,0-.1,0-.2,0-4.4,4-8,8.7-8s0,0,0,0v-21c0,0-.2,0-.3,0Z"/>
          </g>
          <polygon class="cls-87" points="107.2 229.4 111.7 238.5 121.7 240 114.4 247.1 116.2 257.1 107.2 252.4 98.2 257.1 99.9 247.1 92.6 240 102.7 238.5 107.2 229.4"/>
        </g>
        <g>
          <g>
            <path class="cls-12" d="M150.7,229.1c-5.9,0-10.8-4.9-10.9-10.8h-67.3c0,5.9-5,10.8-10.9,10.8v28.3c5.8.2,10.6,5.1,10.6,10.9s0,.3,0,.5h67.8c0,0,0-.2,0-.3,0-5.9,5-10.9,10.9-10.9s0,0,0,0v-28.5c-.1,0-.2,0-.3,0Z"/>
            <path class="cls-12" d="M141.7,232.9c-4.7,0-8.6-3.6-8.7-8h-53.7c0,4.3-4,7.9-8.7,8v20.9c4.6.1,8.5,3.7,8.5,8s0,.3,0,.4h54.1c0,0,0-.1,0-.2,0-4.4,4-8,8.7-8s0,0,0,0v-21c0,0-.2,0-.3,0Z"/>
          </g>
          <polygon class="cls-12" points="107.2 229.4 111.7 238.5 121.7 240 114.4 247.1 116.2 257.1 107.2 252.4 98.2 257.1 99.9 247.1 92.6 240 102.7 238.5 107.2 229.4"/>
        </g>
        <g>
          <g>
            <path class="cls-35" d="M150.7,229.1c-5.9,0-10.8-4.9-10.9-10.8h-67.3c0,5.9-5,10.8-10.9,10.8v28.3c5.8.2,10.6,5.1,10.6,10.9s0,.3,0,.5h67.8c0,0,0-.2,0-.3,0-5.9,5-10.9,10.9-10.9s0,0,0,0v-28.5c-.1,0-.2,0-.3,0Z"/>
            <path class="cls-35" d="M141.7,232.9c-4.7,0-8.6-3.6-8.7-8h-53.7c0,4.3-4,7.9-8.7,8v20.9c4.6.1,8.5,3.7,8.5,8s0,.3,0,.4h54.1c0,0,0-.1,0-.2,0-4.4,4-8,8.7-8s0,0,0,0v-21c0,0-.2,0-.3,0Z"/>
          </g>
          <polygon class="cls-35" points="107.2 229.4 111.7 238.5 121.7 240 114.4 247.1 116.2 257.1 107.2 252.4 98.2 257.1 99.9 247.1 92.6 240 102.7 238.5 107.2 229.4"/>
        </g>
        <g>
          <g>
            <path class="cls-16" d="M150.7,229.1c-5.9,0-10.8-4.9-10.9-10.8h-67.3c0,5.9-5,10.8-10.9,10.8v28.3c5.8.2,10.6,5.1,10.6,10.9s0,.3,0,.5h67.8c0,0,0-.2,0-.3,0-5.9,5-10.9,10.9-10.9s0,0,0,0v-28.5c-.1,0-.2,0-.3,0Z"/>
            <path class="cls-16" d="M141.7,232.9c-4.7,0-8.6-3.6-8.7-8h-53.7c0,4.3-4,7.9-8.7,8v20.9c4.6.1,8.5,3.7,8.5,8s0,.3,0,.4h54.1c0,0,0-.1,0-.2,0-4.4,4-8,8.7-8s0,0,0,0v-21c0,0-.2,0-.3,0Z"/>
          </g>
          <polygon class="cls-16" points="107.2 229.4 111.7 238.5 121.7 240 114.4 247.1 116.2 257.1 107.2 252.4 98.2 257.1 99.9 247.1 92.6 240 102.7 238.5 107.2 229.4"/>
        </g>
      </g>
    </g>
  </g>
  <g>
    <path class="cls-3" d="M126.1,128.6c-5.8-4.9-14.3-12-14.3-12"/>
    <path class="cls-86" d="M126.1,128.6c-5.8-4.9-14.3-12-14.3-12"/>
    <path class="cls-38" d="M126.1,128.6c-5.8-4.9-14.3-12-14.3-12"/>
    <path class="cls-33" d="M126.1,128.6c-5.8-4.9-14.3-12-14.3-12"/>
    <path class="cls-49" d="M126.1,128.6c-5.8-4.9-14.3-12-14.3-12"/>
    <path class="cls-27" d="M126.1,128.6c-5.8-4.9-14.3-12-14.3-12"/>
    <path class="cls-22" d="M126.1,128.6c-5.8-4.9-14.3-12-14.3-12"/>
    <path class="cls-74" d="M126.1,128.6c-5.8-4.9-14.3-12-14.3-12"/>
    <path class="cls-44" d="M126.1,128.6c-5.8-4.9-14.3-12-14.3-12"/>
    <path class="cls-36" d="M126.1,128.6c-5.8-4.9-14.3-12-14.3-12"/>
  </g>
  <g>
    <path class="cls-3" d="M84,178.3c-7.2-2.5-17.7-6.1-17.7-6.1"/>
    <path class="cls-86" d="M84,178.3c-7.2-2.5-17.7-6.1-17.7-6.1"/>
    <path class="cls-38" d="M84,178.3c-7.2-2.5-17.7-6.1-17.7-6.1"/>
    <path class="cls-33" d="M84,178.3c-7.2-2.5-17.7-6.1-17.7-6.1"/>
    <path class="cls-49" d="M84,178.3c-7.2-2.5-17.7-6.1-17.7-6.1"/>
    <path class="cls-27" d="M84,178.3c-7.2-2.5-17.7-6.1-17.7-6.1"/>
    <path class="cls-22" d="M84,178.3c-7.2-2.5-17.7-6.1-17.7-6.1"/>
    <path class="cls-74" d="M84,178.3c-7.2-2.5-17.7-6.1-17.7-6.1"/>
    <path class="cls-44" d="M84,178.3c-7.2-2.5-17.7-6.1-17.7-6.1"/>
    <path class="cls-36" d="M84,178.3c-7.2-2.5-17.7-6.1-17.7-6.1"/>
  </g>
  <g>
    <path class="cls-3" d="M427,145.1c5.8-4.9,13.8-11.6,13.8-11.6"/>
    <path class="cls-86" d="M427,145.1c5.8-4.9,13.8-11.6,13.8-11.6"/>
    <path class="cls-38" d="M427,145.1c5.8-4.9,13.8-11.6,13.8-11.6"/>
    <path class="cls-33" d="M427,145.1c5.8-4.9,13.8-11.6,13.8-11.6"/>
    <path class="cls-49" d="M427,145.1c5.8-4.9,13.8-11.6,13.8-11.6"/>
    <path class="cls-27" d="M427,145.1c5.8-4.9,13.8-11.6,13.8-11.6"/>
    <path class="cls-22" d="M427,145.1c5.8-4.9,13.8-11.6,13.8-11.6"/>
    <path class="cls-74" d="M427,145.1c5.8-4.9,13.8-11.6,13.8-11.6"/>
    <path class="cls-44" d="M427,145.1c5.8-4.9,13.8-11.6,13.8-11.6"/>
    <path class="cls-36" d="M427,145.1c5.8-4.9,13.8-11.6,13.8-11.6"/>
  </g>
  <g>
    <path class="cls-3" d="M372.7,97.4c3.5-6.7,9.5-18.1,9.5-18.1"/>
    <path class="cls-86" d="M372.7,97.4c3.5-6.7,9.5-18.1,9.5-18.1"/>
    <path class="cls-38" d="M372.7,97.4c3.5-6.7,9.5-18.1,9.5-18.1"/>
    <path class="cls-33" d="M372.7,97.4c3.5-6.7,9.5-18.1,9.5-18.1"/>
    <path class="cls-49" d="M372.7,97.4c3.5-6.7,9.5-18.1,9.5-18.1"/>
    <path class="cls-27" d="M372.7,97.4c3.5-6.7,9.5-18.1,9.5-18.1"/>
    <path class="cls-22" d="M372.7,97.4c3.5-6.7,9.5-18.1,9.5-18.1"/>
    <path class="cls-74" d="M372.7,97.4c3.5-6.7,9.5-18.1,9.5-18.1"/>
    <path class="cls-44" d="M372.7,97.4c3.5-6.7,9.5-18.1,9.5-18.1"/>
    <path class="cls-36" d="M372.7,97.4c3.5-6.7,9.5-18.1,9.5-18.1"/>
  </g>
  <g>
    <path class="cls-3" d="M189.8,87.1c-3.1-7-7.7-17.3-7.7-17.3"/>
    <path class="cls-86" d="M189.8,87.1c-3.1-7-7.7-17.3-7.7-17.3"/>
    <path class="cls-38" d="M189.8,87.1c-3.1-7-7.7-17.3-7.7-17.3"/>
    <path class="cls-33" d="M189.8,87.1c-3.1-7-7.7-17.3-7.7-17.3"/>
    <path class="cls-49" d="M189.8,87.1c-3.1-7-7.7-17.3-7.7-17.3"/>
    <path class="cls-27" d="M189.8,87.1c-3.1-7-7.7-17.3-7.7-17.3"/>
    <path class="cls-22" d="M189.8,87.1c-3.1-7-7.7-17.3-7.7-17.3"/>
    <path class="cls-74" d="M189.8,87.1c-3.1-7-7.7-17.3-7.7-17.3"/>
    <path class="cls-44" d="M189.8,87.1c-3.1-7-7.7-17.3-7.7-17.3"/>
    <path class="cls-36" d="M189.8,87.1c-3.1-7-7.7-17.3-7.7-17.3"/>
  </g>
  <g>
    <path class="cls-3" d="M273.5,76.9c0-7.6,0-19.8,0-19.8"/>
    <path class="cls-86" d="M273.5,76.9c0-7.6,0-19.8,0-19.8"/>
    <path class="cls-38" d="M273.5,76.9c0-7.6,0-19.8,0-19.8"/>
    <path class="cls-33" d="M273.5,76.9c0-7.6,0-19.8,0-19.8"/>
    <path class="cls-49" d="M273.5,76.9c0-7.6,0-19.8,0-19.8"/>
    <path class="cls-27" d="M273.5,76.9c0-7.6,0-19.8,0-19.8"/>
    <path class="cls-22" d="M273.5,76.9c0-7.6,0-19.8,0-19.8"/>
    <path class="cls-74" d="M273.5,76.9c0-7.6,0-19.8,0-19.8"/>
    <path class="cls-44" d="M273.5,76.9c0-7.6,0-19.8,0-19.8"/>
    <path class="cls-36" d="M273.5,76.9c0-7.6,0-19.8,0-19.8"/>
  </g>
</svg>