<?xml version="1.0" encoding="utf-8"?>
<!-- Generator: Adobe Illustrator 28.1.0, SVG Export Plug-In . SVG Version: 6.00 Build 0)  -->
<svg version="1.1" id="Livello_1" xmlns="http://www.w3.org/2000/svg" xmlns:xlink="http://www.w3.org/1999/xlink" x="0px" y="0px"
	 viewBox="0 0 105 25" style="enable-background:new 0 0 105 25;" xml:space="preserve">
<g>
	<path d="M52.5,22.7c-15.6,0-31.2,0-46.9,0c-1.7,0-3.2-1.4-3.1-3.1c0-4.8,0-9.5,0-14.3c0-1.9,1.2-3.1,3.1-3.1c31.2,0,62.5,0,93.7,0
		c1.9,0,3.1,1.2,3.1,3.1c0,4.8,0,9.5,0,14.3c0,1.8-1.5,3.1-3.1,3.1C83.7,22.7,68.1,22.7,52.5,22.7z M52.5,3.7c-15.5,0-31,0-46.6,0
		c-1.6,0-2.1,0.6-2.1,2.2c0,4.2,0,8.4,0,12.6c0,2.5,0.3,2.9,2.9,2.9c30.8,0,61.6,0,92.4,0c1.5,0,2.1-0.6,2.1-2.1c0-4.5,0-8.9,0-13.4
		c0-1.6-0.6-2.2-2.1-2.2C83.5,3.7,68,3.7,52.5,3.7z"/>
	<path d="M27.2,17.6c-1.2,0-2.3,0-3.4,0c-0.2,0-0.4-0.3-0.5-0.5c-0.6-1.2-1.2-2.4-1.8-3.6c-1.6,0.9-1.7,2.4-1.5,4c-1.1,0-2,0-3,0
		c0-3.4,0-6.7,0-10.2c1,0,1.9,0,3,0c0,1.2,0,2.3,0,3.7c1-1.2,1.9-2.3,2.8-3.3c0.2-0.2,0.6-0.4,0.9-0.4c1.1-0.1,2.2,0,3.4,0
		c-0.2,0.2-0.2,0.4-0.4,0.5c-0.9,0.9-1.7,1.9-2.6,2.8c-0.4,0.4-0.5,0.7-0.2,1.2c1,1.7,2,3.3,3,5C26.9,17.1,27,17.3,27.2,17.6z"/>
	<path d="M14.3,7.1c0,2.2,0,4.2,0,6.3c0.4,0,0.7,0,1.1,0.1c0,0.7,0,1.4,0,2.2c-0.4,0-0.7,0-1.1,0.1c0,0.6,0,1.2,0,1.8
		c-0.8,0-1.6,0-2.4,0c0-0.6,0-1.2,0-1.8c-1.7,0-3.2,0-4.9,0c0-1.2-0.3-2.2,0.6-3.3C9,11,10.2,9.4,11.4,7.8c0.4-0.5,0.8-0.8,1.5-0.7
		C13.3,7.2,13.8,7.1,14.3,7.1z M11.8,10.4c-0.9,1.1-1.6,2-2.4,3c0.9,0,1.6,0,2.4,0C11.8,12.4,11.8,11.5,11.8,10.4z"/>
	<path d="M62.8,12.9c1.6,1.2,2.2,3,3.3,4.5c-1.5,0.3-1.5,0.3-2.3-0.9c-0.4-0.7-0.9-1.4-1.4-2.2c-0.6-1-1.4-1.5-2.5-1.3
		c-0.3,0-0.7,0-1.1,0c0,1.5,0,3,0,4.5c-0.5,0-0.9,0-1.3,0c0-3.4,0-6.8,0-10.1c1.9,0,3.8-0.1,5.7,0c1.2,0.1,1.9,1.1,2.1,2.3
		c0.2,1.3-0.4,2.4-1.5,2.9C63.5,12.7,63.2,12.8,62.8,12.9z M58.8,8.5c0,1,0,1.9,0,2.9c0,0.1,0.3,0.4,0.4,0.4c1.1,0,2.1,0,3.2-0.1
		c0.9-0.1,1.4-0.7,1.4-1.6c0-0.9-0.5-1.5-1.4-1.6C61.4,8.5,60.1,8.5,58.8,8.5z"/>
	<path d="M89.4,17.6c0-3.4,0-6.8,0-10.2c1.7,0,3.3-0.1,4.9,0c1.6,0.2,2.8,1.6,3.1,3.6c0.2,1.3,0.2,2.7-0.3,4
		c-0.6,1.5-1.7,2.4-3.3,2.5C92.3,17.6,90.9,17.6,89.4,17.6z M90.7,16.3c0.1,0,0.2,0,0.3,0c0.8,0,1.5,0,2.3,0c1.3,0,2.1-0.6,2.5-1.8
		c0.4-1.3,0.5-2.7,0.1-4C95.5,9.6,95,8.9,94,8.7c-1.1-0.2-2.2-0.1-3.4-0.2C90.7,11.2,90.7,13.7,90.7,16.3z"/>
	<path d="M80.9,7.4c0,1.4,0,2.7,0,4.1c1.7,0,3.3,0,5,0c0-1.3,0-2.7,0-4.1c0.5,0,0.9,0,1.3,0c0,3.4,0,6.7,0,10.2c-0.4,0-0.8,0-1.3,0
		c0-1.6,0-3.1,0-4.7c-1.7,0-3.3,0-5,0c0,1.6,0,3.1,0,4.7c-0.5,0-0.9,0-1.3,0c0-3.4,0-6.7,0-10.2C80,7.4,80.4,7.4,80.9,7.4z"/>
	<path d="M75.4,17.5c-1.4,0.1-1.4,0.1-1.9-1.1c-0.2-0.6-0.3-1.5-0.8-1.8c-0.4-0.3-1.3-0.1-1.9-0.1c-0.7,0-1.5-0.2-2,0.2
		c-0.4,0.3-0.5,1.2-0.7,1.8c0,0,0,0,0,0.1c-0.4,1.2-0.4,1.2-1.8,1c0.5-1.4,1-2.8,1.6-4.2c0.7-1.8,1.3-3.6,2-5.5
		c0.2-0.4,0.4-0.5,0.8-0.5c0.4,0,0.8-0.1,1,0.4c1.2,3.2,2.4,6.3,3.7,9.4C75.3,17.3,75.4,17.4,75.4,17.5z M70.7,8.7
		c-0.5,1.6-1,3.1-1.6,4.6c1.1,0,2.1,0,3.2,0C71.8,11.8,71.3,10.3,70.7,8.7z"/>
	<path d="M39.2,7.4c0.5,0,0.9,0,1.3,0c0,0.6,0,1.1,0,1.7c0,1.9,0,3.8-0.2,5.8c-0.1,1.8-1.4,2.9-3.2,2.9c-0.5,0-1.1,0-1.6-0.1
		c-1.7-0.3-2.6-1.3-2.7-3.3c-0.1-2.3,0-4.6,0-7c0.4,0,0.8,0,1.3,0c0,1.3,0,2.6,0,3.8c0,1.2,0,2.3,0.1,3.5c0.1,1,0.8,1.7,1.8,1.8
		c0.3,0,0.6,0,0.9,0c1.4-0.1,2.1-0.7,2.1-2.1c0.1-1.9,0.1-3.7,0.1-5.6C39.2,8.3,39.2,7.9,39.2,7.4z"/>
	<path d="M56.2,7.4c0,0.4,0,0.7,0,1.1c-1,0-2.1,0-3.2,0c0,3.1,0,6,0,9c-0.5,0-0.9,0-1.3,0c0-3,0-5.9,0-9c-1.1,0-2.1,0-3.2,0
		c0-0.4,0-0.8,0-1.2C51,7.4,53.6,7.4,56.2,7.4z"/>
	<path d="M43.8,16.3c1.7,0,3.2,0,4.8,0c0,0.4,0,0.8,0,1.2c-2,0-4,0-6,0c0-3.4,0-6.8,0-10.2c0.4,0,0.8,0,1.2,0
		C43.8,10.3,43.8,13.3,43.8,16.3z"/>
</g>
</svg>
