<?xml version="1.0" encoding="utf-8"?>
<!-- Generator: Adobe Illustrator 28.1.0, SVG Export Plug-In . SVG Version: 6.00 Build 0)  -->
<svg version="1.1" xmlns="http://www.w3.org/2000/svg" xmlns:xlink="http://www.w3.org/1999/xlink" x="0px" y="0px"
	 viewBox="0 0 80 80" style="enable-background:new 0 0 80 80;" xml:space="preserve">
<style type="text/css">
	.st0{fill-rule:evenodd;clip-rule:evenodd;fill:#B1060F;}
	.st1{fill-rule:evenodd;clip-rule:evenodd;fill:#E50914;}
</style>
<g id="Bg">
</g>
<g id="Layer_1_5_">
	<path class="st0" d="M60,76.4c0-7.9,0-22.7,0-36.5l0-36.2H45.7v71.6C50.5,75.4,55.3,75.8,60,76.4z"/>
	<path class="st0" d="M20,3.6c0,6.9,0,55,0,72.7c4.7-0.6,9.4-1,14.1-1.1V3.6L20,3.6L20,3.6z"/>
	<path class="st1" d="M20,3.6l14.4,40.7v0l1.1,3.2C41.8,65.4,45.2,75,45.2,75l0.1,0.2c5,0.2,9.8,0.5,14.6,1.1l0-0.2L45.7,35.8v0
		L44.4,32c-1.3-3.6-2.1-6.1-7.3-20.7c-1.4-3.9-2.6-7.3-2.6-7.4l-0.1-0.3h-7.2L20,3.6z"/>
</g>
</svg>
