<?xml version="1.0" encoding="utf-8"?>
<!-- Generator: Adobe Illustrator 28.1.0, SVG Export Plug-In . SVG Version: 6.00 Build 0)  -->
<svg version="1.1" id="OBJECTS" xmlns="http://www.w3.org/2000/svg" xmlns:xlink="http://www.w3.org/1999/xlink" x="0px" y="0px"
	 viewBox="0 0 350 220" style="enable-background:new 0 0 350 220;" xml:space="preserve">
<style type="text/css">
	.st0{filter:url(#Adobe_OpacityMaskFilter);}
	.st1{mask:url(#SVGID_1_);}
	.st2{fill:none;stroke:#FFFFFF;stroke-width:20;stroke-linecap:round;stroke-linejoin:round;}
	.st3{fill:#EAF0F4;}
	.st4{opacity:0.75;}
	.st5{fill:#27B1BE;}
	.st6{fill:#FFFFFF;}
	
		.st7{fill:none;stroke:#FFFFFF;stroke-width:2.0385;stroke-linecap:round;stroke-linejoin:round;stroke-miterlimit:10;stroke-dasharray:6.1156,6.1156;}
	
		.st8{fill:none;stroke:#27B1BE;stroke-width:2.0385;stroke-linecap:round;stroke-linejoin:round;stroke-miterlimit:10;stroke-dasharray:6.1156,6.1156;}
	.st9{enable-background:new    ;}
	.st10{fill:#FF9D00;}
	.st11{opacity:0.65;}
	.st12{opacity:0.3;fill:#27B1BE;enable-background:new    ;}
	.st13{fill:#B8E5EA;}
	.st14{fill:#00A371;}
	.st15{opacity:0.3;fill:#FFFFFF;enable-background:new    ;}
</style>
<g>
	<defs>
		<filter id="Adobe_OpacityMaskFilter" filterUnits="userSpaceOnUse" x="12.7" y="11.8" width="335.5" height="206.5">
			<feFlood  style="flood-color:white;flood-opacity:1" result="back"/>
			<feBlend  in="SourceGraphic" in2="back" mode="normal"/>
		</filter>
	</defs>
	<mask maskUnits="userSpaceOnUse" x="12.7" y="11.8" width="335.5" height="206.5" id="SVGID_1_">
		<g class="st0">
			<image style="overflow:visible;" width="341" height="211" xlink:href="5F3675B2.jpg"  transform="matrix(1 0 0 1 10 9.75)">
			</image>
		</g>
	</mask>
	<g class="st1">
		<path d="M336.7,71.6c-22.1-28.6-60.1-37.3-92.4-21.1c-11.2,5.6-22.8,7.7-34.1,6.1c-0.9-1.2-1.9-2.2-3.1-3.1
			c-2.8-2-6.1-2.8-9.3-2.4c-1.6-0.2-3.2-0.1-4.8,0.3c-5.1-2.2-10.3-4.9-15.6-7.6l-2.8-1.4c-16.5-8.5-35.3-16.6-55.9-18
			c-1.2-1.9-2.6-3.6-4.2-5.1c-4.3-4.7-10.4-7.6-17.2-7.6C85.1,11.8,75,21.2,74,33.1c-20.5,9.6-38.6,26.2-49.6,45.9c0,0,0,0,0,0
			c-9.6,17.3-13.3,36.1-10.9,54.3c3.9,28.3,20.2,53.7,43.5,67.8c18.4,11.2,40.2,17.1,63.1,17.1c10.9,0,20.4-1.8,29.6-3.5
			c10-1.8,19.4-3.6,30-2.9c1,0.1,4,1,5.8,1.5c2.9,0.8,5.5,1.5,7.5,1.8c0.1,0,0.1,0,0.2,0c18.6,2.2,30.4-3.4,38.7-10
			c2.7,2.3,6.4,3.6,10.5,3.6c0.1,0,0.2,0,0.3,0c6.7-0.2,10.6-4.2,13.2-6.9c0.9-0.9,1.7-1.7,2.6-2.5c2.7-2.2,5.4-2.8,7.6-3.2
			c9.7-1.9,10.6-8.3,10.4-11.3c8.7-2,16.9-4.9,24.4-8.6l2.6,1.6c1.6,1,3.4,1.5,5.3,1.5c0.5,0,1,0,1.5-0.1c0.5,0.1,1,0.1,1.5,0.1
			c0.6,0,1.2-0.1,1.7-0.2l10.7-1.9c3.5-0.6,6.5-3.1,7.7-6.5c1.2-3.4,0.5-7.2-1.9-9.9l-3.2-3.7c13.9-14.3,19-29.1,20.7-40
			C350,100.8,346,83.7,336.7,71.6z"/>
	</g>
</g>
<g>
	<g>
		<path class="st2" d="M27.1,76.9c-8.1,14.6-12,31.2-9.7,48.1c3.4,24.5,17.5,47.7,38.8,60.6c17.3,10.5,37.7,15.6,57.9,15.6
			c21.8,0,38.4-7.8,60.4-6.3c3,0.2,10.9,2.9,13.9,3.3c37.1,4.3,38.9-26.7,58.4-27.3c22.5-0.6,41.5-7.9,53.6-16.4
			c39.6-27.7,36.1-66,22.4-83.8c-18.2-23.6-50.8-32.9-80-18.3c-16.5,8.3-34.9,10.2-52.5,4.1c-9.1-3.2-17.7-7.8-26.3-12.2
			c-23.7-12.2-48.6-21.5-75.5-15C63.4,35.7,40,53.8,27.1,76.9z"/>
		<g>
			<g>
				<g>
					<g>
						<path class="st2" d="M267.2,153.6c-0.5,0-1,0.1-1.5,0.2c-1.4-2.5-4-4.1-7-4.1c-2.5,0-4.7,1.1-6.1,2.9
							c-0.7-0.4-1.6-0.5-2.4-0.5c-3.1,0-5.7,2.5-5.7,5.7h6.3h5.1h6.4h4.5h5.5C271.7,155.4,269.6,153.6,267.2,153.6z"/>
					</g>
					<g>
						<path class="st2" d="M264.2,153.6c-0.5,0-1,0.1-1.5,0.2c-1.4-2.5-4-4.1-7-4.1c-2.5,0-4.7,1.1-6.1,2.9
							c-0.7-0.4-1.6-0.5-2.4-0.5c-3.1,0-5.7,2.5-5.7,5.7h6.3h5.1h6.4h4.5h5.5C268.8,155.4,266.7,153.6,264.2,153.6z"/>
					</g>
				</g>
				<g>
					<g>
						<path class="st2" d="M317.9,87.2c-0.8,0-1.6,0.1-2.3,0.3c-2.1-3.9-6.3-6.5-11-6.5c-3.9,0-7.3,1.8-9.6,4.5
							c-1.2-0.6-2.5-0.9-3.8-0.9c-4.9,0-8.9,4-8.9,8.9h9.8h8h10h7.1h8.6C325,89.9,321.8,87.2,317.9,87.2z"/>
					</g>
					<g>
						<path class="st2" d="M315,87.2c-0.8,0-1.6,0.1-2.3,0.3c-2.1-3.9-6.3-6.5-11-6.5c-3.9,0-7.3,1.8-9.6,4.5
							c-1.2-0.6-2.5-0.9-3.8-0.9c-4.9,0-8.9,4-8.9,8.9h9.8h8h10h7.1h8.6C322.1,89.9,318.9,87.2,315,87.2z"/>
					</g>
				</g>
				<g>
					<g>
						<path class="st2" d="M190.9,168.2c-44,18.9-104.2,34.5-142.5-4.8c-15.3-15.6-23.3-38.3-20.1-59.9
							c3.6-24.1,20.8-43.6,43.2-52.2c12.5-4.8,51.5-7.5,47.7,15.8c-1.6,9.8-18,11.3-22.7,1.6"/>
					</g>
					<g>
						<path class="st2" d="M192.3,169.6c-44,18.9-104.2,34.5-142.5-4.8c-15.3-15.6-23.3-38.3-20.1-59.9c3.6-24,20.8-43.6,43.3-52.1
							c12.5-4.8,51.5-7.5,47.7,15.8c-1.6,9.8-18,11.3-22.7,1.6"/>
					</g>
				</g>
				<g>
					<g>
						<g>
							<path class="st2" d="M54.3,108.6c-0.8,0.4-1.6,0.5-2.3,0.5c-2.9,0-4.5-2.5-4.5-5.1c0-9,10-11,15.2-11
								c6.1,0,11.4,2.4,17.7-0.4c1.2,5-1.4,8.3-5.4,8.3c-1.8,0-4.2-1-6.6-2l-7.1,33.5c-0.6,2.6-2.7,3.5-4.7,3.5
								c-1.3,0-2.3-0.3-2.9-0.7l8.8-38.7c-0.3-0.1-0.6-0.1-0.8-0.1c-3.9,0-8.5,2.8-8.5,9C53.2,106.2,53.6,107.7,54.3,108.6z"/>
							<path class="st2" d="M80.4,113.7c2.2-4.5,4.6-6,7.1-6c2.6,0,4,2.1,4,4.3c0,2.5-1.5,5.2-4.4,5.2c-0.5,0-1.1-0.1-1.6-0.2
								c0.4-0.3,0.6-1,0.6-1.7c0-0.8-0.6-1.4-1.7-1.4c-1.8,0-4.4,2.5-7.2,15.2l-0.7,3.4c-0.6,2.5-2.6,3.5-4.6,3.5
								c-1,0-1.9-0.3-2.6-0.7l4.5-21.1c0.2-0.9-0.1-1.4-0.6-1.4c-0.3,0-0.6,0.2-1.1,0.7c-0.7-0.4-1.1-2.1,0-3
								c1.9-1.5,3.9-2.6,6.2-2.6c2,0,3.1,0.9,2.6,3L80.4,113.7z"/>
							<path class="st2" d="M111.7,126.6c-0.6,2.8,0.1,4,1.2,4c1,0,2.3-0.7,3.1-2.6c1,0,1.7,0.6,1.7,1.5c0,3.9-4.5,6.4-7.6,6.4
								c-2.6,0-5.2-1.2-5.1-5.6c-2.3,3.2-5.2,5.6-8.4,5.6c-5.7,0-6.9-5.7-6.9-9.2c0-9.6,6.2-19.2,13.9-19.2c2.5,0,4.3,0.6,5.7,1.8
								c0.9-1.1,2.4-1.6,3.7-1.6c1,0,1.9,0.3,2.6,0.7L111.7,126.6z M105.1,126.8l3.1-14.8c-0.9-0.3-1.8-0.4-2.6-0.4
								c-6.7,0-9,8.7-9,14.7c0,2.8,1.3,4,3,4C101.3,130.1,103.6,128.8,105.1,126.8z"/>
							<path class="st2" d="M121.7,112.7c-0.3,0-0.6,0.2-1.1,0.7c-0.7-0.4-1.1-2.1,0-3c1.9-1.5,3.9-2.6,6.2-2.6c2,0,3.1,0.9,2.6,3
								c-1.4,6.8-2.1,15,0.2,19.5c4.2-3.3,6.9-9.1,6.9-14.3c0-3.7-1.1-6.9-3.4-8c0.1-2.9,1.9-4.3,3.7-4.2c2.1,0.1,4.5,2.1,4.5,6.1
								c0,12.6-9,26.1-15,26.1c-5.8,0-6-16-4-22.4C122.5,113.1,122.2,112.7,121.7,112.7z"/>
							<path class="st2" d="M148.3,126.9c0.6,3,2.6,4.1,5.1,4.1c4,0,9-2.8,11.4-5.9c1.4-0.3,2,0.9,1.4,1.9
								c-3.8,5.6-10.2,8.9-15.5,8.9c-3.6,0-6.8-1.5-8.4-4.8c-0.2,0.1-0.4,0.2-0.7,0.3c-2.1,0.6-4.1-1-3.7-3.2
								c1.3,0.2,2.4-0.1,3.5-0.6c-0.1-0.5-0.1-1-0.1-1.5c0-7.2,4.7-18.6,13.8-18.6c5,0,6.3,2.8,6.3,5.3
								C161.4,117.3,158.9,121.1,148.3,126.9z M148.1,124.7c5.3-3.4,9-7.2,9-10.8c0-1.3-0.7-2.1-1.6-2.1
								C150,111.7,148.3,120.8,148.1,124.7z"/>
							<path class="st2" d="M177.7,96.2c2.6,0,4.4,1.6,4.4,4.5c0,4.3-3.6,13.2-10.7,24c-0.1,0.7-0.2,1.3-0.2,2c-0.3,2.9,0.1,4,1.2,4
								c1,0,2.3-0.7,3.1-2.6c1,0,1.7,0.6,1.7,1.5c0,3.9-4.5,6.4-7.6,6.4c-2.8,0-5.9-1.7-5.2-8.1C166.5,107.8,170.5,96.2,177.7,96.2z
								 M172.1,119.8c4.9-9,6.9-16.9,6.9-18.8c0-0.9-0.3-1.2-0.9-1.2C176.3,99.8,173.9,108.2,172.1,119.8z"/>
						</g>
					</g>
					<g>
						<g>
							<path class="st2" d="M55.8,109.9c-0.8,0.4-1.6,0.6-2.3,0.6c-2.9,0-4.5-2.5-4.5-5.1c0-9,10-11,15.2-11
								c6.1,0,11.4,2.4,17.7-0.4c1.2,5-1.4,8.3-5.4,8.3c-1.8,0-4.2-1-6.6-2l-7.1,33.5c-0.6,2.6-2.7,3.5-4.7,3.5
								c-1.3,0-2.3-0.3-2.9-0.7L64,97.9c-0.3-0.1-0.6-0.1-0.8-0.1c-3.9,0-8.5,2.8-8.5,9C54.7,107.8,55,109.2,55.8,109.9z"/>
							<path class="st2" d="M81.8,115.1c2.2-4.5,4.6-6,7.1-6c2.6,0,4,2.1,4,4.3c0,2.5-1.5,5.2-4.4,5.2c-0.5,0-1.1-0.1-1.6-0.2
								c0.4-0.3,0.6-1,0.6-1.7c0-0.8-0.6-1.4-1.7-1.4c-1.8,0-4.4,2.5-7.2,15.2l-0.7,3.4c-0.6,2.5-2.6,3.5-4.6,3.5
								c-1,0-1.9-0.3-2.6-0.7l4.5-21.1c0.2-0.9-0.1-1.4-0.6-1.4c-0.3,0-0.6,0.2-1.1,0.7c-0.7-0.4-1.1-2.1,0-3
								c1.9-1.5,3.9-2.6,6.2-2.6c2,0,3.1,0.9,2.6,3L81.8,115.1z"/>
							<path class="st2" d="M113.2,127.9c-0.6,2.8,0.1,4,1.2,4c1,0,2.3-0.7,3.1-2.6c1,0,1.7,0.6,1.7,1.5c0,3.9-4.5,6.4-7.6,6.4
								c-2.6,0-5.2-1.2-5.1-5.6c-2.3,3.2-5.2,5.6-8.4,5.6c-5.7,0-6.9-5.7-6.9-9.2c0-9.6,6.2-19.2,13.9-19.2c2.5,0,4.3,0.6,5.7,1.8
								c0.9-1.1,2.4-1.6,3.7-1.6c1,0,1.9,0.3,2.6,0.7L113.2,127.9z M106.5,128.1l3.1-14.8c-0.9-0.3-1.8-0.4-2.6-0.4
								c-6.7,0-9,8.7-9,14.7c0,2.8,1.3,4,3,4S105,130.1,106.5,128.1z"/>
							<path class="st2" d="M123.2,114.1c-0.3,0-0.6,0.2-1.1,0.7c-0.7-0.4-1.1-2.1,0-3c1.9-1.5,3.9-2.6,6.2-2.6c2,0,3.1,0.9,2.6,3
								c-1.4,6.8-2.1,15,0.2,19.5c4.2-3.3,6.9-9.1,6.9-14.3c0-3.7-1.1-6.9-3.4-8c0.1-2.9,1.9-4.3,3.7-4.2c2.1,0.1,4.5,2.1,4.5,6.1
								c0,12.6-9,26.1-15,26.1c-5.8,0-6-16-4-22.4C123.9,114.4,123.7,114.1,123.2,114.1z"/>
							<path class="st2" d="M149.7,128.4c0.6,3,2.6,4.1,5.1,4.1c4,0,9-2.8,11.4-5.9c1.4-0.3,2,0.9,1.4,1.9
								c-3.8,5.6-10.2,8.9-15.5,8.9c-3.6,0-6.8-1.5-8.4-4.8c-0.2,0.1-0.4,0.2-0.7,0.3c-2.1,0.6-4.1-1-3.7-3.2
								c1.3,0.2,2.4-0.1,3.5-0.6c-0.1-0.5-0.1-1-0.1-1.5c0-7.2,4.7-18.6,13.8-18.6c5,0,6.3,2.8,6.3,5.3
								C162.8,118.8,160.4,122.6,149.7,128.4z M149.6,126.1c5.3-3.4,9-7.2,9-10.8c0-1.3-0.7-2.1-1.6-2.1
								C151.5,113.2,149.7,122.2,149.6,126.1z"/>
							<path class="st2" d="M179.2,97.6c2.6,0,4.4,1.6,4.4,4.5c0,4.3-3.6,13.2-10.7,24c-0.1,0.7-0.2,1.3-0.2,2c-0.3,2.9,0.1,4,1.2,4
								c1,0,2.3-0.7,3.1-2.6c1,0,1.7,0.6,1.7,1.5c0,3.9-4.5,6.4-7.6,6.4c-2.8,0-5.9-1.7-5.2-8.1C168,109.2,172,97.6,179.2,97.6z
								 M173.6,121.2c4.9-9,6.9-16.9,6.9-18.8c0-0.9-0.3-1.2-0.9-1.2C177.7,101.2,175.4,109.6,173.6,121.2z"/>
						</g>
					</g>
				</g>
				<g>
					<g>
						<path class="st2" d="M164.7,80.8c-0.8,0-1.6,0.1-2.3,0.3c-2.1-3.8-6.2-6.4-10.9-6.4c-3.8,0-7.3,1.7-9.5,4.5
							c-1.1-0.5-2.4-0.9-3.8-0.9c-4.9,0-8.8,4-8.8,8.8h9.7h7.9h9.9h7.1h8.5C171.7,83.4,168.5,80.8,164.7,80.8z"/>
					</g>
					<g>
						<path class="st2" d="M161.8,80.8c-0.8,0-1.6,0.1-2.3,0.3c-2.1-3.8-6.2-6.4-10.9-6.4c-3.8,0-7.3,1.7-9.5,4.5
							c-1.1-0.5-2.4-0.9-3.8-0.9c-4.9,0-8.8,4-8.8,8.8h9.7h7.9h9.9h7.1h8.5C168.8,83.4,165.6,80.8,161.8,80.8z"/>
					</g>
				</g>
				<g>
					<g>
						<polygon class="st2" points="316.5,160.6 305.8,162.6 245.2,124.7 240.6,121.8 233.8,117.6 226.7,113.1 227.5,112.6 
							243.1,104.3 259.8,95.4 264.7,101.2 273.9,111.7 279,117.6 297.3,138.4 302.3,144.4 						"/>
						<path class="st2" d="M274.7,123.7l-6.1-4.3l7.7-10.9c1.2-1.7,3.5-2.1,5.2-0.9l0,0c1.7,1.2,2.1,3.5,0.9,5.2L274.7,123.7z"/>
						<path class="st2" d="M299.2,148.6l-6.1-4.3l7.7-10.9c1.2-1.7,3.5-2.1,5.2-0.9l0,0c1.7,1.2,2.1,3.5,0.9,5.2L299.2,148.6z"/>
						<polygon class="st2" points="240.5,122.8 233.8,117.6 227.5,112.6 223.3,109.2 167.1,65.2 165.3,54.3 185.4,62.2 192.6,64.9 
							218.5,75.1 225.7,77.8 238.8,82.8 245.8,85.7 243.1,104.3 240.6,121.8 						"/>
						<path class="st2" d="M214.3,81.2l6.1,4.3l7.7-10.9c1.2-1.7,0.8-4-0.9-5.2l0,0c-1.7-1.2-4-0.8-5.2,0.9L214.3,81.2z"/>
						<path class="st2" d="M182.4,66.6l6.1,4.3l7.7-10.9c1.2-1.7,0.8-4-0.9-5.2l0,0c-1.7-1.2-4-0.8-5.2,0.9L182.4,66.6z"/>
						<polygon class="st2" points="217.1,176.1 206.7,155.8 217.7,140.1 228.9,159.2 						"/>
						<polygon class="st2" points="184,152.9 206.7,155.8 217.7,140.1 195.9,135.9 						"/>
						<path class="st2" d="M245.2,124.7c6.9-8.1,13.8-16.4,19.6-23.5l-4.9-5.6l-16.7,8.9l2.7-18.7l-7-2.7
							c-4.7,7.8-10.2,17.1-15.5,26.4L245.2,124.7z"/>
						<path class="st2" d="M277.2,80.8c-4.6,6.5-69.1,87.2-75.6,82.6c-6.5-4.6,47.5-92.6,52.1-99.1s13.5-8.1,20-3.5
							C280.2,65.2,281.8,74.2,277.2,80.8z"/>
						<path class="st2" d="M270.4,65.4c4.5,3.2,5.9,9.1,3.4,13.9c0.3-0.4,0.7-0.7,1-1.2c3.4-4.9,2.3-11.7-2.6-15.1
							c-4.9-3.4-11.7-2.3-15.1,2.6c-0.3,0.4-0.5,0.8-0.8,1.3C259.9,63,265.9,62.2,270.4,65.4z"/>
						<path class="st2" d="M258.6,98.2c1.2,0.6,2.5,0.3,3-0.6c0.4-0.9-0.3-2-1.5-2.6s-2.5-0.3-3,0.6
							C256.7,96.6,257.4,97.8,258.6,98.2z"/>
						<path class="st2" d="M253.1,104.8c1.2,0.6,2.5,0.3,3-0.6c0.4-0.9-0.3-2-1.5-2.6s-2.5-0.3-3,0.6
							C251.2,103.2,251.9,104.2,253.1,104.8z"/>
						<path class="st2" d="M247.6,111.3c1.2,0.6,2.5,0.3,3-0.6s-0.3-2-1.5-2.6s-2.5-0.3-3,0.6C245.7,109.7,246.4,110.8,247.6,111.3z
							"/>
						<path class="st2" d="M242.1,117.9c1.2,0.6,2.5,0.3,3-0.6s-0.3-2-1.5-2.6s-2.5-0.3-3,0.6C240.2,116.2,240.9,117.3,242.1,117.9z
							"/>
						<path class="st2" d="M237.4,123.7c1.2,0.6,2.5,0.3,3-0.6c0.4-0.9-0.3-2-1.5-2.6s-2.5-0.3-3,0.6
							C235.5,121.8,236.2,123.1,237.4,123.7z"/>
						<path class="st2" d="M231.9,130.1c1.2,0.6,2.5,0.3,3-0.6c0.4-0.9-0.3-2-1.5-2.6s-2.5-0.3-3,0.6
							C230,128.4,230.7,129.6,231.9,130.1z"/>
						<path class="st2" d="M226.4,136.8c1.2,0.6,2.5,0.3,3-0.6c0.4-0.9-0.3-2-1.5-2.6s-2.5-0.3-3,0.6
							C224.6,134.9,225.2,136.1,226.4,136.8z"/>
						<path class="st2" d="M273.8,60.8c-0.1,0-0.1-0.1-18.8,25.9c0,0-53.4,76.7-53.3,76.7c6.5,4.6,71-76.1,75.6-82.6
							C281.8,74.2,280.2,65.2,273.8,60.8z"/>
					</g>
					<g>
						<g>
							<g>
								<polygon class="st2" points="313.6,160.6 302.8,162.6 242.3,124.7 237.7,121.8 230.9,117.6 223.8,113.1 224.6,112.6 
									240.2,104.3 256.9,95.4 261.8,101.2 271,111.7 276.1,117.6 294.3,138.4 299.4,144.4 								"/>
								<path class="st2" d="M271.8,123.7l-6.1-4.3l7.7-10.9c1.2-1.7,3.5-2.1,5.2-0.9l0,0c1.7,1.2,2.1,3.5,0.9,5.2L271.8,123.7z"/>
								<path class="st2" d="M296.3,148.6l-6.1-4.3l7.7-10.9c1.2-1.7,3.5-2.1,5.2-0.9l0,0c1.7,1.2,2.1,3.5,0.9,5.2L296.3,148.6z"/>
							</g>
							<g>
								<polygon class="st2" points="237.6,122.8 230.9,117.6 224.6,112.6 220.4,109.2 164.2,65.2 162.4,54.3 182.5,62.2 
									189.7,64.9 215.6,75.1 222.8,77.8 235.9,82.8 242.9,85.7 240.2,104.3 237.7,121.8 								"/>
								<path class="st2" d="M211.4,81.2l6.1,4.3l7.7-10.9c1.2-1.7,0.8-4-0.9-5.2l0,0c-1.7-1.2-4-0.8-5.2,0.9L211.4,81.2z"/>
								<path class="st2" d="M179.4,66.6l6.1,4.3l7.7-10.9c1.2-1.7,0.8-4-0.9-5.2l0,0c-1.7-1.2-4-0.8-5.2,0.9L179.4,66.6z"/>
							</g>
							<g>
								<polygon class="st2" points="214.2,176.1 203.8,155.8 214.8,140.1 226,159.2 								"/>
								<polygon class="st2" points="181.1,152.9 203.8,155.8 214.8,140.1 192.9,135.9 								"/>
							</g>
							<path class="st2" d="M242.3,124.7c6.9-8.1,13.8-16.4,19.6-23.5l-4.9-5.6l-16.7,8.9l2.7-18.7l-7-2.7
								c-4.7,7.8-10.2,17.1-15.5,26.4L242.3,124.7z"/>
							<path class="st2" d="M274.3,80.8c-4.6,6.5-69.1,87.2-75.6,82.6c-6.5-4.6,47.5-92.6,52.1-99.1s13.5-8.1,20-3.5
								C277.3,65.2,278.9,74.2,274.3,80.8z"/>
							<g>
								<path class="st2" d="M267.5,65.4c4.5,3.2,5.9,9.1,3.4,13.9c0.3-0.4,0.7-0.7,1-1.2c3.4-4.9,2.3-11.7-2.6-15.1
									c-4.9-3.4-11.7-2.3-15.1,2.6c-0.3,0.4-0.5,0.8-0.8,1.3C257,63,263,62.2,267.5,65.4z"/>
							</g>
							<g>
								<path class="st2" d="M255.7,98.2c1.2,0.6,2.5,0.3,3-0.6c0.4-0.9-0.3-2-1.5-2.6c-1.2-0.6-2.5-0.3-3,0.6
									C253.8,96.6,254.5,97.8,255.7,98.2z"/>
							</g>
							<g>
								<path class="st2" d="M250.2,104.8c1.2,0.6,2.5,0.3,3-0.6s-0.3-2-1.5-2.6s-2.5-0.3-3,0.6C248.3,103.2,249,104.2,250.2,104.8z
									"/>
							</g>
							<g>
								<path class="st2" d="M244.7,111.3c1.2,0.6,2.5,0.3,3-0.6c0.4-0.9-0.3-2-1.5-2.6s-2.5-0.3-3,0.6
									C242.8,109.7,243.5,110.8,244.7,111.3z"/>
							</g>
							<g>
								<path class="st2" d="M239.2,117.9c1.2,0.6,2.5,0.3,3-0.6c0.4-0.9-0.3-2-1.5-2.6s-2.5-0.3-3,0.6
									C237.3,116.2,238,117.3,239.2,117.9z"/>
							</g>
							<g>
								<path class="st2" d="M234.5,123.7c1.2,0.6,2.5,0.3,3-0.6c0.4-0.9-0.3-2-1.5-2.6s-2.5-0.3-3,0.6
									C232.6,121.8,233.3,123.1,234.5,123.7z"/>
							</g>
							<g>
								<path class="st2" d="M229,130.1c1.2,0.6,2.5,0.3,3-0.6c0.4-0.9-0.3-2-1.5-2.6s-2.5-0.3-3,0.6
									C227.1,128.4,227.8,129.6,229,130.1z"/>
							</g>
							<g>
								<path class="st2" d="M223.5,136.8c1.2,0.6,2.5,0.3,3-0.6c0.4-0.9-0.3-2-1.5-2.6s-2.5-0.3-3,0.6
									C221.6,134.9,222.3,136.1,223.5,136.8z"/>
							</g>
							<path class="st2" d="M270.8,60.8c-0.1,0-0.1-0.1-18.8,25.9c0,0-53.4,76.7-53.3,76.7c6.5,4.6,71-76.1,75.6-82.6
								C278.9,74.2,277.3,65.2,270.8,60.8z"/>
						</g>
					</g>
				</g>
			</g>
			<g>
				<g>
					<path class="st2" d="M91.3,14.8c-7.4,0-13.4,6-13.4,13.4s13.4,29.4,13.4,29.4s13.4-22,13.4-29.4
						C104.7,20.8,98.7,14.8,91.3,14.8z M91.3,36c-4.3,0-7.8-3.5-7.8-7.8s3.5-7.8,7.8-7.8s7.8,3.5,7.8,7.8C99.1,32.5,95.6,36,91.3,36
						z"/>
				</g>
				<g>
					<g>
						<path class="st2" d="M92.7,16.1c-7.4,0-13.4,6-13.4,13.4s13.4,29.4,13.4,29.4s13.4-22,13.4-29.4S100.1,16.1,92.7,16.1z
							 M92.7,37.5c-4.3,0-7.8-3.5-7.8-7.8s3.5-7.8,7.8-7.8s7.8,3.5,7.8,7.8S97,37.5,92.7,37.5z"/>
					</g>
				</g>
			</g>
			<g>
				<g>
					<path class="st2" d="M94.4,65.3c0,1.7-1.4,3.2-3.2,3.2c-1.7,0-3.2-1.4-3.2-3.2c0-1.7,1.4-3.2,3.2-3.2
						C93,62.2,94.4,63.5,94.4,65.3z"/>
				</g>
				<g>
					<path class="st2" d="M95.9,66.8c0,1.7-1.4,3.2-3.2,3.2c-1.7,0-3.2-1.4-3.2-3.2c0-1.7,1.4-3.2,3.2-3.2
						C94.5,63.7,95.9,65.1,95.9,66.8z"/>
				</g>
			</g>
		</g>
		<path class="st2" d="M242.8,179.1c1.7-0.8,6.3-2.8,12.3-2.2c0.9,0.1,5.3,0.5,5.4,1.6c0.1,1.4-7,0.3-14.3,6.2
			c-4.2,3.4-5.8,7-9.7,7.1c-2,0-4.7-0.9-5-2.7C231,185.9,238.4,181.1,242.8,179.1z"/>
	</g>
	<g>
		<path class="st3" d="M27.1,76.9c-8.1,14.6-12,31.2-9.7,48.1c3.4,24.5,17.5,47.7,38.8,60.6c17.3,10.5,37.7,15.6,57.9,15.6
			c21.8,0,38.4-7.8,60.4-6.3c3,0.2,10.9,2.9,13.9,3.3c37.1,4.3,38.9-26.7,58.4-27.3c22.5-0.6,41.5-7.9,53.6-16.4
			c39.6-27.7,36.1-66,22.4-83.8c-18.2-23.6-50.8-32.9-80-18.3c-16.5,8.3-34.9,10.2-52.5,4.1c-9.1-3.2-17.7-7.8-26.3-12.2
			c-23.7-12.2-48.6-21.5-75.5-15C63.4,35.7,40,53.8,27.1,76.9z"/>
		<g>
			<g>
				<g>
					<g class="st4">
						<path class="st5" d="M267.2,153.6c-0.5,0-1,0.1-1.5,0.2c-1.4-2.5-4-4.1-7-4.1c-2.5,0-4.7,1.1-6.1,2.9
							c-0.7-0.4-1.6-0.5-2.4-0.5c-3.1,0-5.7,2.5-5.7,5.7h6.3h5.1h6.4h4.5h5.5C271.7,155.4,269.6,153.6,267.2,153.6z"/>
					</g>
					<g>
						<path class="st6" d="M264.2,153.6c-0.5,0-1,0.1-1.5,0.2c-1.4-2.5-4-4.1-7-4.1c-2.5,0-4.7,1.1-6.1,2.9
							c-0.7-0.4-1.6-0.5-2.4-0.5c-3.1,0-5.7,2.5-5.7,5.7h6.3h5.1h6.4h4.5h5.5C268.8,155.4,266.7,153.6,264.2,153.6z"/>
					</g>
				</g>
				<g>
					<g class="st4">
						<path class="st5" d="M317.9,87.2c-0.8,0-1.6,0.1-2.3,0.3c-2.1-3.9-6.3-6.5-11-6.5c-3.9,0-7.3,1.8-9.6,4.5
							c-1.2-0.6-2.5-0.9-3.8-0.9c-4.9,0-8.9,4-8.9,8.9h9.8h8h10h7.1h8.6C325,89.9,321.8,87.2,317.9,87.2z"/>
					</g>
					<g>
						<path class="st6" d="M315,87.2c-0.8,0-1.6,0.1-2.3,0.3c-2.1-3.9-6.3-6.5-11-6.5c-3.9,0-7.3,1.8-9.6,4.5
							c-1.2-0.6-2.5-0.9-3.8-0.9c-4.9,0-8.9,4-8.9,8.9h9.8h8h10h7.1h8.6C322.1,89.9,318.9,87.2,315,87.2z"/>
					</g>
				</g>
				<g>
					<g>
						<path class="st7" d="M190.9,168.2c-44,18.9-104.2,34.5-142.5-4.8c-15.3-15.6-23.3-38.3-20.1-59.9
							c3.6-24.1,20.8-43.6,43.2-52.2c12.5-4.8,51.5-7.5,47.7,15.8c-1.6,9.8-18,11.3-22.7,1.6"/>
					</g>
					<g>
						<path class="st8" d="M192.3,169.6c-44,18.9-104.2,34.5-142.5-4.8c-15.3-15.6-23.3-38.3-20.1-59.9c3.6-24,20.8-43.6,43.3-52.1
							c12.5-4.8,51.5-7.5,47.7,15.8c-1.6,9.8-18,11.3-22.7,1.6"/>
					</g>
				</g>
				<g>
					<g class="st4">
						<g class="st9">
							<path class="st6" d="M54.3,108.6c-0.8,0.4-1.6,0.5-2.3,0.5c-2.9,0-4.5-2.5-4.5-5.1c0-9,10-11,15.2-11
								c6.1,0,11.4,2.4,17.7-0.4c1.2,5-1.4,8.3-5.4,8.3c-1.8,0-4.2-1-6.6-2l-7.1,33.5c-0.6,2.6-2.7,3.5-4.7,3.5
								c-1.3,0-2.3-0.3-2.9-0.7l8.8-38.7c-0.3-0.1-0.6-0.1-0.8-0.1c-3.9,0-8.5,2.8-8.5,9C53.2,106.2,53.6,107.7,54.3,108.6z"/>
							<path class="st6" d="M80.4,113.7c2.2-4.5,4.6-6,7.1-6c2.6,0,4,2.1,4,4.3c0,2.5-1.5,5.2-4.4,5.2c-0.5,0-1.1-0.1-1.6-0.2
								c0.4-0.3,0.6-1,0.6-1.7c0-0.8-0.6-1.4-1.7-1.4c-1.8,0-4.4,2.5-7.2,15.2l-0.7,3.4c-0.6,2.5-2.6,3.5-4.6,3.5
								c-1,0-1.9-0.3-2.6-0.7l4.5-21.1c0.2-0.9-0.1-1.4-0.6-1.4c-0.3,0-0.6,0.2-1.1,0.7c-0.7-0.4-1.1-2.1,0-3
								c1.9-1.5,3.9-2.6,6.2-2.6c2,0,3.1,0.9,2.6,3L80.4,113.7z"/>
							<path class="st6" d="M111.7,126.6c-0.6,2.8,0.1,4,1.2,4c1,0,2.3-0.7,3.1-2.6c1,0,1.7,0.6,1.7,1.5c0,3.9-4.5,6.4-7.6,6.4
								c-2.6,0-5.2-1.2-5.1-5.6c-2.3,3.2-5.2,5.6-8.4,5.6c-5.7,0-6.9-5.7-6.9-9.2c0-9.6,6.2-19.2,13.9-19.2c2.5,0,4.3,0.6,5.7,1.8
								c0.9-1.1,2.4-1.6,3.7-1.6c1,0,1.9,0.3,2.6,0.7L111.7,126.6z M105.1,126.8l3.1-14.8c-0.9-0.3-1.8-0.4-2.6-0.4
								c-6.7,0-9,8.7-9,14.7c0,2.8,1.3,4,3,4C101.3,130.1,103.6,128.8,105.1,126.8z"/>
							<path class="st6" d="M121.7,112.7c-0.3,0-0.6,0.2-1.1,0.7c-0.7-0.4-1.1-2.1,0-3c1.9-1.5,3.9-2.6,6.2-2.6c2,0,3.1,0.9,2.6,3
								c-1.4,6.8-2.1,15,0.2,19.5c4.2-3.3,6.9-9.1,6.9-14.3c0-3.7-1.1-6.9-3.4-8c0.1-2.9,1.9-4.3,3.7-4.2c2.1,0.1,4.5,2.1,4.5,6.1
								c0,12.6-9,26.1-15,26.1c-5.8,0-6-16-4-22.4C122.5,113.1,122.2,112.7,121.7,112.7z"/>
							<path class="st6" d="M148.3,126.9c0.6,3,2.6,4.1,5.1,4.1c4,0,9-2.8,11.4-5.9c1.4-0.3,2,0.9,1.4,1.9
								c-3.8,5.6-10.2,8.9-15.5,8.9c-3.6,0-6.8-1.5-8.4-4.8c-0.2,0.1-0.4,0.2-0.7,0.3c-2.1,0.6-4.1-1-3.7-3.2
								c1.3,0.2,2.4-0.1,3.5-0.6c-0.1-0.5-0.1-1-0.1-1.5c0-7.2,4.7-18.6,13.8-18.6c5,0,6.3,2.8,6.3,5.3
								C161.4,117.3,158.9,121.1,148.3,126.9z M148.1,124.7c5.3-3.4,9-7.2,9-10.8c0-1.3-0.7-2.1-1.6-2.1
								C150,111.7,148.3,120.8,148.1,124.7z"/>
							<path class="st6" d="M177.7,96.2c2.6,0,4.4,1.6,4.4,4.5c0,4.3-3.6,13.2-10.7,24c-0.1,0.7-0.2,1.3-0.2,2c-0.3,2.9,0.1,4,1.2,4
								c1,0,2.3-0.7,3.1-2.6c1,0,1.7,0.6,1.7,1.5c0,3.9-4.5,6.4-7.6,6.4c-2.8,0-5.9-1.7-5.2-8.1C166.5,107.8,170.5,96.2,177.7,96.2z
								 M172.1,119.8c4.9-9,6.9-16.9,6.9-18.8c0-0.9-0.3-1.2-0.9-1.2C176.3,99.8,173.9,108.2,172.1,119.8z"/>
						</g>
					</g>
					<g>
						<g class="st9">
							<path class="st10" d="M55.8,109.9c-0.8,0.4-1.6,0.6-2.3,0.6c-2.9,0-4.5-2.5-4.5-5.1c0-9,10-11,15.2-11
								c6.1,0,11.4,2.4,17.7-0.4c1.2,5-1.4,8.3-5.4,8.3c-1.8,0-4.2-1-6.6-2l-7.1,33.5c-0.6,2.6-2.7,3.5-4.7,3.5
								c-1.3,0-2.3-0.3-2.9-0.7L64,97.9c-0.3-0.1-0.6-0.1-0.8-0.1c-3.9,0-8.5,2.8-8.5,9C54.7,107.8,55,109.2,55.8,109.9z"/>
							<path class="st10" d="M81.8,115.1c2.2-4.5,4.6-6,7.1-6c2.6,0,4,2.1,4,4.3c0,2.5-1.5,5.2-4.4,5.2c-0.5,0-1.1-0.1-1.6-0.2
								c0.4-0.3,0.6-1,0.6-1.7c0-0.8-0.6-1.4-1.7-1.4c-1.8,0-4.4,2.5-7.2,15.2l-0.7,3.4c-0.6,2.5-2.6,3.5-4.6,3.5
								c-1,0-1.9-0.3-2.6-0.7l4.5-21.1c0.2-0.9-0.1-1.4-0.6-1.4c-0.3,0-0.6,0.2-1.1,0.7c-0.7-0.4-1.1-2.1,0-3
								c1.9-1.5,3.9-2.6,6.2-2.6c2,0,3.1,0.9,2.6,3L81.8,115.1z"/>
							<path class="st10" d="M113.2,127.9c-0.6,2.8,0.1,4,1.2,4c1,0,2.3-0.7,3.1-2.6c1,0,1.7,0.6,1.7,1.5c0,3.9-4.5,6.4-7.6,6.4
								c-2.6,0-5.2-1.2-5.1-5.6c-2.3,3.2-5.2,5.6-8.4,5.6c-5.7,0-6.9-5.7-6.9-9.2c0-9.6,6.2-19.2,13.9-19.2c2.5,0,4.3,0.6,5.7,1.8
								c0.9-1.1,2.4-1.6,3.7-1.6c1,0,1.9,0.3,2.6,0.7L113.2,127.9z M106.5,128.1l3.1-14.8c-0.9-0.3-1.8-0.4-2.6-0.4
								c-6.7,0-9,8.7-9,14.7c0,2.8,1.3,4,3,4S105,130.1,106.5,128.1z"/>
							<path class="st10" d="M123.2,114.1c-0.3,0-0.6,0.2-1.1,0.7c-0.7-0.4-1.1-2.1,0-3c1.9-1.5,3.9-2.6,6.2-2.6c2,0,3.1,0.9,2.6,3
								c-1.4,6.8-2.1,15,0.2,19.5c4.2-3.3,6.9-9.1,6.9-14.3c0-3.7-1.1-6.9-3.4-8c0.1-2.9,1.9-4.3,3.7-4.2c2.1,0.1,4.5,2.1,4.5,6.1
								c0,12.6-9,26.1-15,26.1c-5.8,0-6-16-4-22.4C123.9,114.4,123.7,114.1,123.2,114.1z"/>
							<path class="st10" d="M149.7,128.4c0.6,3,2.6,4.1,5.1,4.1c4,0,9-2.8,11.4-5.9c1.4-0.3,2,0.9,1.4,1.9
								c-3.8,5.6-10.2,8.9-15.5,8.9c-3.6,0-6.8-1.5-8.4-4.8c-0.2,0.1-0.4,0.2-0.7,0.3c-2.1,0.6-4.1-1-3.7-3.2
								c1.3,0.2,2.4-0.1,3.5-0.6c-0.1-0.5-0.1-1-0.1-1.5c0-7.2,4.7-18.6,13.8-18.6c5,0,6.3,2.8,6.3,5.3
								C162.8,118.8,160.4,122.6,149.7,128.4z M149.6,126.1c5.3-3.4,9-7.2,9-10.8c0-1.3-0.7-2.1-1.6-2.1
								C151.5,113.2,149.7,122.2,149.6,126.1z"/>
							<path class="st10" d="M179.2,97.6c2.6,0,4.4,1.6,4.4,4.5c0,4.3-3.6,13.2-10.7,24c-0.1,0.7-0.2,1.3-0.2,2
								c-0.3,2.9,0.1,4,1.2,4c1,0,2.3-0.7,3.1-2.6c1,0,1.7,0.6,1.7,1.5c0,3.9-4.5,6.4-7.6,6.4c-2.8,0-5.9-1.7-5.2-8.1
								C168,109.2,172,97.6,179.2,97.6z M173.6,121.2c4.9-9,6.9-16.9,6.9-18.8c0-0.9-0.3-1.2-0.9-1.2
								C177.7,101.2,175.4,109.6,173.6,121.2z"/>
						</g>
					</g>
				</g>
				<g>
					<g class="st4">
						<path class="st5" d="M164.7,80.8c-0.8,0-1.6,0.1-2.3,0.3c-2.1-3.8-6.2-6.4-10.9-6.4c-3.8,0-7.3,1.7-9.5,4.5
							c-1.1-0.5-2.4-0.9-3.8-0.9c-4.9,0-8.8,4-8.8,8.8h9.7h7.9h9.9h7.1h8.5C171.7,83.4,168.5,80.8,164.7,80.8z"/>
					</g>
					<g>
						<path class="st6" d="M161.8,80.8c-0.8,0-1.6,0.1-2.3,0.3c-2.1-3.8-6.2-6.4-10.9-6.4c-3.8,0-7.3,1.7-9.5,4.5
							c-1.1-0.5-2.4-0.9-3.8-0.9c-4.9,0-8.8,4-8.8,8.8h9.7h7.9h9.9h7.1h8.5C168.8,83.4,165.6,80.8,161.8,80.8z"/>
					</g>
				</g>
				<g>
					<g class="st11">
						<polygon class="st5" points="316.5,160.6 305.8,162.6 245.2,124.7 240.6,121.8 233.8,117.6 226.7,113.1 227.5,112.6 
							243.1,104.3 259.8,95.4 264.7,101.2 273.9,111.7 279,117.6 297.3,138.4 302.3,144.4 						"/>
						<path class="st5" d="M274.7,123.7l-6.1-4.3l7.7-10.9c1.2-1.7,3.5-2.1,5.2-0.9l0,0c1.7,1.2,2.1,3.5,0.9,5.2L274.7,123.7z"/>
						<path class="st5" d="M299.2,148.6l-6.1-4.3l7.7-10.9c1.2-1.7,3.5-2.1,5.2-0.9l0,0c1.7,1.2,2.1,3.5,0.9,5.2L299.2,148.6z"/>
						<polygon class="st5" points="240.5,122.8 233.8,117.6 227.5,112.6 223.3,109.2 167.1,65.2 165.3,54.3 185.4,62.2 192.6,64.9 
							218.5,75.1 225.7,77.8 238.8,82.8 245.8,85.7 243.1,104.3 240.6,121.8 						"/>
						<path class="st5" d="M214.3,81.2l6.1,4.3l7.7-10.9c1.2-1.7,0.8-4-0.9-5.2l0,0c-1.7-1.2-4-0.8-5.2,0.9L214.3,81.2z"/>
						<path class="st5" d="M182.4,66.6l6.1,4.3l7.7-10.9c1.2-1.7,0.8-4-0.9-5.2l0,0c-1.7-1.2-4-0.8-5.2,0.9L182.4,66.6z"/>
						<polygon class="st5" points="217.1,176.1 206.7,155.8 217.7,140.1 228.9,159.2 						"/>
						<polygon class="st5" points="184,152.9 206.7,155.8 217.7,140.1 195.9,135.9 						"/>
						<path class="st5" d="M245.2,124.7c6.9-8.1,13.8-16.4,19.6-23.5l-4.9-5.6l-16.7,8.9l2.7-18.7l-7-2.7
							c-4.7,7.8-10.2,17.1-15.5,26.4L245.2,124.7z"/>
						<path class="st5" d="M277.2,80.8c-4.6,6.5-69.1,87.2-75.6,82.6c-6.5-4.6,47.5-92.6,52.1-99.1s13.5-8.1,20-3.5
							C280.2,65.2,281.8,74.2,277.2,80.8z"/>
						<path class="st5" d="M270.4,65.4c4.5,3.2,5.9,9.1,3.4,13.9c0.3-0.4,0.7-0.7,1-1.2c3.4-4.9,2.3-11.7-2.6-15.1
							c-4.9-3.4-11.7-2.3-15.1,2.6c-0.3,0.4-0.5,0.8-0.8,1.3C259.9,63,265.9,62.2,270.4,65.4z"/>
						<path class="st5" d="M258.6,98.2c1.2,0.6,2.5,0.3,3-0.6c0.4-0.9-0.3-2-1.5-2.6s-2.5-0.3-3,0.6
							C256.7,96.6,257.4,97.8,258.6,98.2z"/>
						<path class="st5" d="M253.1,104.8c1.2,0.6,2.5,0.3,3-0.6c0.4-0.9-0.3-2-1.5-2.6s-2.5-0.3-3,0.6
							C251.2,103.2,251.9,104.2,253.1,104.8z"/>
						<path class="st5" d="M247.6,111.3c1.2,0.6,2.5,0.3,3-0.6s-0.3-2-1.5-2.6s-2.5-0.3-3,0.6C245.7,109.7,246.4,110.8,247.6,111.3z
							"/>
						<path class="st5" d="M242.1,117.9c1.2,0.6,2.5,0.3,3-0.6s-0.3-2-1.5-2.6s-2.5-0.3-3,0.6C240.2,116.2,240.9,117.3,242.1,117.9z
							"/>
						<path class="st5" d="M237.4,123.7c1.2,0.6,2.5,0.3,3-0.6c0.4-0.9-0.3-2-1.5-2.6s-2.5-0.3-3,0.6
							C235.5,121.8,236.2,123.1,237.4,123.7z"/>
						<path class="st5" d="M231.9,130.1c1.2,0.6,2.5,0.3,3-0.6c0.4-0.9-0.3-2-1.5-2.6s-2.5-0.3-3,0.6
							C230,128.4,230.7,129.6,231.9,130.1z"/>
						<path class="st5" d="M226.4,136.8c1.2,0.6,2.5,0.3,3-0.6c0.4-0.9-0.3-2-1.5-2.6s-2.5-0.3-3,0.6
							C224.6,134.9,225.2,136.1,226.4,136.8z"/>
						<path class="st12" d="M273.8,60.8c-0.1,0-0.1-0.1-18.8,25.9c0,0-53.4,76.7-53.3,76.7c6.5,4.6,71-76.1,75.6-82.6
							C281.8,74.2,280.2,65.2,273.8,60.8z"/>
					</g>
					<g>
						<g>
							<g>
								<polygon class="st13" points="313.6,160.6 302.8,162.6 242.3,124.7 237.7,121.8 230.9,117.6 223.8,113.1 224.6,112.6 
									240.2,104.3 256.9,95.4 261.8,101.2 271,111.7 276.1,117.6 294.3,138.4 299.4,144.4 								"/>
								<path class="st13" d="M271.8,123.7l-6.1-4.3l7.7-10.9c1.2-1.7,3.5-2.1,5.2-0.9l0,0c1.7,1.2,2.1,3.5,0.9,5.2L271.8,123.7z"/>
								<path class="st13" d="M296.3,148.6l-6.1-4.3l7.7-10.9c1.2-1.7,3.5-2.1,5.2-0.9l0,0c1.7,1.2,2.1,3.5,0.9,5.2L296.3,148.6z"/>
							</g>
							<g>
								<polygon class="st13" points="237.6,122.8 230.9,117.6 224.6,112.6 220.4,109.2 164.2,65.2 162.4,54.3 182.5,62.2 
									189.7,64.9 215.6,75.1 222.8,77.8 235.9,82.8 242.9,85.7 240.2,104.3 237.7,121.8 								"/>
								<path class="st13" d="M211.4,81.2l6.1,4.3l7.7-10.9c1.2-1.7,0.8-4-0.9-5.2l0,0c-1.7-1.2-4-0.8-5.2,0.9L211.4,81.2z"/>
								<path class="st13" d="M179.4,66.6l6.1,4.3l7.7-10.9c1.2-1.7,0.8-4-0.9-5.2l0,0c-1.7-1.2-4-0.8-5.2,0.9L179.4,66.6z"/>
							</g>
							<g>
								<polygon class="st13" points="214.2,176.1 203.8,155.8 214.8,140.1 226,159.2 								"/>
								<polygon class="st13" points="181.1,152.9 203.8,155.8 214.8,140.1 192.9,135.9 								"/>
							</g>
							<path class="st13" d="M242.3,124.7c6.9-8.1,13.8-16.4,19.6-23.5l-4.9-5.6l-16.7,8.9l2.7-18.7l-7-2.7
								c-4.7,7.8-10.2,17.1-15.5,26.4L242.3,124.7z"/>
							<path class="st13" d="M274.3,80.8c-4.6,6.5-69.1,87.2-75.6,82.6c-6.5-4.6,47.5-92.6,52.1-99.1s13.5-8.1,20-3.5
								C277.3,65.2,278.9,74.2,274.3,80.8z"/>
							<g>
								<path class="st14" d="M267.5,65.4c4.5,3.2,5.9,9.1,3.4,13.9c0.3-0.4,0.7-0.7,1-1.2c3.4-4.9,2.3-11.7-2.6-15.1
									c-4.9-3.4-11.7-2.3-15.1,2.6c-0.3,0.4-0.5,0.8-0.8,1.3C257,63,263,62.2,267.5,65.4z"/>
							</g>
							<g>
								<path class="st14" d="M255.7,98.2c1.2,0.6,2.5,0.3,3-0.6c0.4-0.9-0.3-2-1.5-2.6c-1.2-0.6-2.5-0.3-3,0.6
									C253.8,96.6,254.5,97.8,255.7,98.2z"/>
							</g>
							<g>
								<path class="st14" d="M250.2,104.8c1.2,0.6,2.5,0.3,3-0.6s-0.3-2-1.5-2.6s-2.5-0.3-3,0.6C248.3,103.2,249,104.2,250.2,104.8
									z"/>
							</g>
							<g>
								<path class="st14" d="M244.7,111.3c1.2,0.6,2.5,0.3,3-0.6c0.4-0.9-0.3-2-1.5-2.6s-2.5-0.3-3,0.6
									C242.8,109.7,243.5,110.8,244.7,111.3z"/>
							</g>
							<g>
								<path class="st14" d="M239.2,117.9c1.2,0.6,2.5,0.3,3-0.6c0.4-0.9-0.3-2-1.5-2.6s-2.5-0.3-3,0.6
									C237.3,116.2,238,117.3,239.2,117.9z"/>
							</g>
							<g>
								<path class="st14" d="M234.5,123.7c1.2,0.6,2.5,0.3,3-0.6c0.4-0.9-0.3-2-1.5-2.6s-2.5-0.3-3,0.6
									C232.6,121.8,233.3,123.1,234.5,123.7z"/>
							</g>
							<g>
								<path class="st14" d="M229,130.1c1.2,0.6,2.5,0.3,3-0.6c0.4-0.9-0.3-2-1.5-2.6s-2.5-0.3-3,0.6
									C227.1,128.4,227.8,129.6,229,130.1z"/>
							</g>
							<g>
								<path class="st14" d="M223.5,136.8c1.2,0.6,2.5,0.3,3-0.6c0.4-0.9-0.3-2-1.5-2.6s-2.5-0.3-3,0.6
									C221.6,134.9,222.3,136.1,223.5,136.8z"/>
							</g>
							<path class="st15" d="M270.8,60.8c-0.1,0-0.1-0.1-18.8,25.9c0,0-53.4,76.7-53.3,76.7c6.5,4.6,71-76.1,75.6-82.6
								C278.9,74.2,277.3,65.2,270.8,60.8z"/>
						</g>
					</g>
				</g>
			</g>
			<g>
				<g>
					<path class="st6" d="M91.3,14.8c-7.4,0-13.4,6-13.4,13.4s13.4,29.4,13.4,29.4s13.4-22,13.4-29.4
						C104.7,20.8,98.7,14.8,91.3,14.8z M91.3,36c-4.3,0-7.8-3.5-7.8-7.8s3.5-7.8,7.8-7.8s7.8,3.5,7.8,7.8C99.1,32.5,95.6,36,91.3,36
						z"/>
				</g>
				<g>
					<g>
						<path class="st14" d="M92.7,16.1c-7.4,0-13.4,6-13.4,13.4s13.4,29.4,13.4,29.4s13.4-22,13.4-29.4S100.1,16.1,92.7,16.1z
							 M92.7,37.5c-4.3,0-7.8-3.5-7.8-7.8s3.5-7.8,7.8-7.8s7.8,3.5,7.8,7.8S97,37.5,92.7,37.5z"/>
					</g>
				</g>
			</g>
			<g>
				<g>
					<path class="st6" d="M94.4,65.3c0,1.7-1.4,3.2-3.2,3.2c-1.7,0-3.2-1.4-3.2-3.2c0-1.7,1.4-3.2,3.2-3.2
						C93,62.2,94.4,63.5,94.4,65.3z"/>
				</g>
				<g>
					<path class="st14" d="M95.9,66.8c0,1.7-1.4,3.2-3.2,3.2c-1.7,0-3.2-1.4-3.2-3.2c0-1.7,1.4-3.2,3.2-3.2
						C94.5,63.7,95.9,65.1,95.9,66.8z"/>
				</g>
			</g>
		</g>
		<path class="st3" d="M242.8,179.1c1.7-0.8,6.3-2.8,12.3-2.2c0.9,0.1,5.3,0.5,5.4,1.6c0.1,1.4-7,0.3-14.3,6.2
			c-4.2,3.4-5.8,7-9.7,7.1c-2,0-4.7-0.9-5-2.7C231,185.9,238.4,181.1,242.8,179.1z"/>
	</g>
</g>
</svg>
